<svg xmlns="http://www.w3.org/2000/svg" xmlns:xlink="http://www.w3.org/1999/xlink" width="734" height="835" viewBox="0 0 734 835">
  <defs>
    <clipPath id="clip-path">
      <rect id="Rectangle_624" data-name="Rectangle 624" width="734" height="833.698" fill="none"/>
    </clipPath>
    <clipPath id="clip-path-2">
      <rect id="Rectangle_648" data-name="Rectangle 648" width="732" height="473" fill="none"/>
    </clipPath>
  </defs>
  <g id="alumni" transform="translate(-54.45)">
    <g id="BACKGROUND" transform="translate(54.45)">
      <g id="Group_89" data-name="Group 89" transform="translate(0)" clip-path="url(#clip-path)">
        <path id="Path_4591" data-name="Path 4591" d="M0,0H734V833.7H0Z" fill="#fafafa"/>
        <path id="Path_4074" data-name="Path 4074" d="M43.554,448.581c-14.679,0-98.116,4.812-98.953-2.807S-42.011,435.3-42.011,435.3s-1.673-24.76,16.734-33.33S2.335,406.73,2.335,406.73s5.872-29.521,34.305-30.473,26.775,38.092,26.775,38.092,25.953,3.809,30.973,16.189-25.116,7.618-25.116,7.618,18.32,10.575,3.347,10.475C61.624,448.564,51.451,448.564,43.554,448.581Z" transform="translate(-24.471 252.34)" fill="#c6def5"/>
        <path id="Path_4075" data-name="Path 4075" d="M540.477,250.554c-27.964.1-186.25,9.139-187.894-5.329s25.41-19.881,25.41-19.881-3.171-47,31.766-63.269,52.4,9.038,52.4,9.038,11.127-56.035,65.117-57.839,50.834,72.291,50.834,72.291,49.234,7.234,58.717,30.741-47.649,14.451-47.649,14.451,34.76,20.048,6.356,19.9C574.782,250.52,555.479,250.52,540.477,250.554Z" transform="translate(166.415 75.949)" fill="#c6def5"/>
        <path id="Path_4076" data-name="Path 4076" d="M89.554,110.615c-14.679,0-98.116,4.812-98.953-2.807S3.974,97.333,3.974,97.333,2.3,72.573,20.708,63.919,48.32,68.68,48.32,68.68s5.872-29.521,34.305-30.473S109.4,76.3,109.4,76.3s25.953,3.809,30.973,16.189-25.116,7.7-25.116,7.7,18.334,10.575,3.347,10.475C107.624,110.6,97.451,110.6,89.554,110.615Z" transform="translate(-2.947 25.613)" fill="#c6def5"/>
        <path id="Path_4077" data-name="Path 4077" d="M108.848,292.6c-22.019,0-146.983,7.2-148.26-4.21s20.052-15.688,20.052-15.688-2.481-37.073,25.1-49.92S47.092,229.9,47.092,229.9,55.9,185.7,98.469,184.26s40.1,57.071,40.1,57.071,38.856,5.7,46.372,24.242-37.593,11.411-37.593,11.411,27.435,15.838,5.006,15.688C135.9,292.571,120.694,292.571,108.848,292.6Z" transform="translate(-17 123.564)" fill="#c6def5"/>
        <path id="Path_4078" data-name="Path 4078" d="M497.554,88.615c-14.679,0-98.116,4.812-98.953-2.807s13.387-10.475,13.387-10.475-1.673-24.76,16.734-33.414,27.612,4.761,27.612,4.761,5.872-29.521,34.305-30.473S517.415,54.3,517.415,54.3s25.953,3.809,30.973,16.189-25.116,7.618-25.116,7.618,18.32,10.575,3.347,10.475C515.624,88.6,505.451,88.6,497.554,88.615Z" transform="translate(187.965 10.858)" fill="#c6def5"/>
      </g>
    </g>
    <g id="OBJECTS" transform="translate(56.45)">
      <rect id="Rectangle_625" data-name="Rectangle 625" width="306.624" height="835" transform="translate(213.132)" fill="#c6def5"/>
      <rect id="Rectangle_626" data-name="Rectangle 626" width="314.542" height="835" transform="translate(209.109)" fill="#fafafa"/>
      <path id="Path_4079" data-name="Path 4079" d="M555.607,278.183,543.4,276.549l-8.269,9.12-2.211-12.115-11.236-5.041,10.837-5.851,1.319-12.252,8.914,8.5,12.06-2.527L549.48,267.5Z" transform="translate(165.306 171.792)" fill="#d74261"/>
      <path id="Path_4080" data-name="Path 4080" d="M535.806,483.488l-12.939-1.731-8.749,9.67-2.349-12.843-11.909-5.329,11.483-6.208,1.4-12.966,9.436,9,12.774-2.678-5.645,11.771Z" transform="translate(157.155 317.847)" fill="#d74261"/>
      <path id="Path_4081" data-name="Path 4081" d="M117.806,135.488l-12.939-1.731-8.749,9.67-2.349-12.843L81.86,125.255l11.483-6.208,1.4-12.966,9.436,9,12.774-2.678-5.645,11.771Z" transform="translate(-46.211 72.882)" fill="#d74261"/>
      <path id="Path_4082" data-name="Path 4082" d="M127.873,481.244l-16.386-2.2-11.1,12.252-2.967-16.263L82.34,468.278l14.546-7.857,1.772-16.441,11.964,11.414L126.8,452l-7.156,14.9Z" transform="translate(-46.032 314.074)" fill="#d74261"/>
      <path id="Path_4083" data-name="Path 4083" d="M501.145,388.05,490.6,386.635l-7.142,7.884-1.923-10.466L471.82,379.7l9.368-5.068,1.14-10.59,7.706,7.348,10.425-2.184-4.6,9.6Z" transform="translate(146.68 248.919)" fill="#d74261"/>
      <path id="Path_4084" data-name="Path 4084" d="M545.145,97.05,534.6,95.635l-7.156,7.884-1.909-10.466L515.82,88.7l9.368-5.068,1.14-10.59,7.706,7.348L544.458,78.2l-4.6,9.6Z" transform="translate(163.117 45.487)" fill="#d74261"/>
      <path id="Path_4085" data-name="Path 4085" d="M146.148,380.383l-9.56-1.277-6.483,7.142-1.731-9.491-8.8-3.942,8.489-4.588,1.03-9.587,6.991,6.662,9.436-1.992-4.176,8.708Z" transform="translate(-32.125 244.742)" fill="#d74261"/>
      <path id="Path_4086" data-name="Path 4086" d="M112.626,232.865l-5.233-.7-3.544,3.915-.961-5.192-4.807-2.156,4.643-2.514.563-5.247,3.818,3.64,5.178-1.085-2.294,4.766Z" transform="translate(-40.152 149.523)" fill="#d74261"/>
      <path id="Path_4087" data-name="Path 4087" d="M461.626,217.865l-5.233-.7-3.544,3.915-.962-5.192-4.807-2.156,4.643-2.514.563-5.247,3.819,3.64,5.178-1.085-2.294,4.766Z" transform="translate(128.042 139.373)" fill="#d74261"/>
      <path id="Path_4088" data-name="Path 4088" d="M480.626,32.865l-5.233-.7-3.544,3.915-.961-5.192-4.807-2.156,4.643-2.514.563-5.247,3.819,3.64,5.178-1.085-2.294,4.766Z" transform="translate(144.536 7.833)" fill="#d74261"/>
      <path id="Path_4089" data-name="Path 4089" d="M160.626,43.865l-5.233-.7-3.544,3.915-.948-5.192-4.821-2.156,4.643-2.514.563-5.247,3.818,3.64,5.178-1.085-2.294,4.766Z" transform="translate(6.588 11.942)" fill="#d74261"/>
      <path id="Path_4090" data-name="Path 4090" d="M87.626,345.865l-5.233-.7-3.544,3.915-.961-5.192-4.807-2.156,4.643-2.514.563-5.247,3.818,3.64,5.178-1.085-2.294,4.766Z" transform="translate(-49.491 225.987)" fill="#d74261"/>
      <g id="Group_90" data-name="Group 90" transform="translate(0 360.698)" clip-path="url(#clip-path-2)">
        <path id="Path_4091" data-name="Path 4091" d="M408.766,439.481c-3.568,0-7.473.082-11.658.316,1.953-9.189,3.377-17,2.936-18.488-1.042-3.97-9.22-52.511-13.933-61.933s-16.473-32.965-21.23-34.009,5.638,30.218,5.638,30.218-21.509-30.795-25.752-29.833-.6,14.848-.6,14.848l7.5,12.362-16.282-8.241-.206.357c-2.481-.962-4.581-1.511-5.7-1.25-4.228.962-.558,6.428,0,8.406s16.605,12.046,16.605,12.046-20.012,1.456-19.5,3.448,1.556,5.947,10.542,5.989l13.713,9.477s6.211,23.776,16.238,27.787l-10.116,34.2c-16.972,3.64-28.689,8.241-29.012,11.922l-.5.288c-2.54,1.621-40.757,181.789-40.757,181.789l87.931,15.343s18.514-66.37,34.136-124.581Z" transform="translate(133.561 -90.941)" fill="#c6def5"/>
        <path id="Path_4092" data-name="Path 4092" d="M136.316,490.563l.426-.357c-.485-4.437,15.24-13.159,37.1-20.837l-.088-33.817a35.931,35.931,0,0,0-5.344-7.623c-2.188-2.047-17.457-18.364-17.457-18.364.749-8.392,17.457,0,17.457,0s-6.519-18.68-9.206-30.3,2.863-14.189,6.284-10.988,11.936,29.408,11.936,29.408l1.718-.7s-3.347-28.844.176-38.459,8.339,2.417,8.956,13.392,2.6,24.532,2.6,24.532,4.4-30.946,5.051-32.883,5.535-2.541,6.856,6.5-.881,27.746-.881,27.746,7.781-27.7,13.214-23.8-3.582,29.064-3.582,29.064,5.726,33.171-6.768,42.113h-.088l.176,15.3c11.305-2.445,20.452-3.393,25.326-2.6,2.026,0,3.626.591,4.287,2.06,2.79,6.167-13.082,216.306-13.082,216.306H132S134.129,492.61,136.316,490.563Z" transform="translate(61.131 -79.857)" fill="#c6def5"/>
        <path id="Path_4093" data-name="Path 4093" d="M196.506,493.178l.4-.4c-.91-4.368,13.933-14.367,34.973-23.831L228.6,435.269a36.626,36.626,0,0,0-6.064-7.156c-2.364-1.841-19.087-16.84-19.087-16.84,0-8.42,17.383-1.442,17.383-1.442s-8.266-18.062-12.039-29.421,1.468-14.367,5.227-11.414S228.7,397.3,228.7,397.3l1.659-.838s-6.078-28.446-3.494-38.363,8.545,1.7,10.277,12.6,4.918,24.216,4.918,24.216,7.018,2.678,11.746,4.121c.675.316,1.351.618,2.011.948,1.013.522,2.011,1.058,2.936,1.648l.5.3.411.3a44.876,44.876,0,0,1,4.919,4l.132.124c1.909,10.054,4.1,28.844-4.214,35.9h-.088l1.63,15.246c11.041-3.379,20.056-5.082,24.959-4.7,2.011-.11,3.671.288,4.4,1.689,3.362,5.92,7.473,216.554,7.473,216.554l-89.09,7.417S194.538,495.348,196.506,493.178Z" transform="translate(91.25 -80.108)" fill="#c6def5"/>
        <path id="Path_4094" data-name="Path 4094" d="M293.208,473.875c-.352-3.6-6.578-17.458-9.294-20.013-2.188-2.033-16.444-13.241-16.444-13.241.749-8.379,19.189,0,19.189,0s-6.519-18.667-9.206-30.3,1.13-14.175,4.551-10.988,11.937,29.408,11.937,29.408l1.718-.687s-3.347-28.845.176-38.459,8.339,2.417,8.956,13.378,2.6,24.545,2.6,24.545,4.4-30.946,5.051-32.883c.573-1.566,3.861-2.266,5.8,2.363a17.662,17.662,0,0,1,1.057,4.121c1.321,9.038-1.688,31.688-1.688,31.688s8.589-31.592,14.08-27.746-3.641,29.009-3.641,29.009-1.806,34.339-6.768,42.127l-26.692,11.895Z" transform="translate(124.558 -68.251)" fill="#ff8169"/>
        <path id="Path_4095" data-name="Path 4095" d="M369.257,449.334l.5,42.731-31.214-.536-.132-57.249Z" transform="translate(76.36 -50.248)" fill="#ff8169"/>
        <path id="Path_4096" data-name="Path 4096" d="M357.048,463.083c-1.982-4.409-12.377-.481-17.442,0-21.817,2.033-73,23.35-80.751,30.6-2.188,2.047-4.4,185.7-4.4,185.7h89.428S359.837,469.237,357.048,463.083Z" transform="translate(118.462 -40.262)" fill="#052a4f"/>
        <path id="Path_4097" data-name="Path 4097" d="M257.863,493.8c1.732,4.807,24.886,1.827,51.71-6.648s47.159-19.23,45.426-24.037-24.886-1.841-51.71,6.634S256.13,488.994,257.863,493.8Z" transform="translate(120.011 -40.336)" fill="#052a4f"/>
        <path id="Path_4098" data-name="Path 4098" d="M257.2,505.543c-1-2.747,3.157-6.607,12.333-11.455A240.949,240.949,0,0,1,338.535,472.3c10.454-1.373,16.253-.632,17.237,2.115l-1.38.44c-.543-1.483-4.918-2.569-15.651-1.2a239.857,239.857,0,0,0-68.55,21.62c-9.411,4.986-12.2,8.337-11.658,9.821Z" transform="translate(119.68 -36.296)" fill="#fbb03b"/>
        <path id="Path_4099" data-name="Path 4099" d="M304.158,482.6l-.308-15.4v-.082c5.286-8.241,6.622-41.275,6.636-41.6l4.331-15.439.719.179-4.4,15.356c0,1.291-1.336,33.281-6.68,41.77l.308,15.205Z" transform="translate(141.591 -59.288)" fill="#232323"/>
        <path id="Path_4100" data-name="Path 4100" d="M302.313,430.595l-.719-.082.778-6.7c0-.137.94-15.988.94-22.361s-2.452-8.64-2.481-8.667l.514-.481c.117.11,2.7,2.61,2.7,9.148s-.925,22.265-.94,22.416Z" transform="translate(140.177 -65.929)" fill="#232323"/>
        <path id="Path_4101" data-name="Path 4101" d="M125.769,484.878s-2.188-59.172-4.4-63.266S110.5,376.67,110.5,370.6s15.269-36.729,17.457-38.775,4.4,10.205,4.4,10.205,8.721-12.238,17.442-14.285,10.909-2.033,10.909,2.047S149.8,352.235,149.8,352.235l-2.217,32.677s6.533-16.318,10.909-16.318a6.731,6.731,0,0,1,6.533,6.112c0,1.992-6.533,20.411-6.533,20.411l-6.548,38.775,4.4,59.172Z" transform="translate(51.064 -90.544)" fill="#ff9c8a"/>
        <path id="Path_4102" data-name="Path 4102" d="M182.034,382.19l-.734-.055,3.318-35.863,9.822-15.3.631.357-9.778,15.233Z" transform="translate(2.801 -88.839)" fill="#232323"/>
        <path id="Path_4103" data-name="Path 4103" d="M187.329,381.891l-.719-.069,4.419-36.893,9.661-13.969.617.371-9.617,13.914Z" transform="translate(5.287 -88.843)" fill="#232323"/>
        <path id="Path_4104" data-name="Path 4104" d="M176.094,379.368h-.734l.015-20.507,6.534-20.411.7.206-6.519,20.356Z" transform="translate(0.02 -86.045)" fill="#232323"/>
        <line id="Line_1" data-name="Line 1" x2="26.178" transform="translate(170.285 292.307)" fill="none"/>
        <path id="Path_4160" data-name="Path 4160" d="M0,0,26.254.142l0,.687L0,.687Z" transform="translate(170.256 294.004) rotate(-4.82)" fill="#232323"/>
        <path id="Path_4105" data-name="Path 4105" d="M192.711,385.623l-.69-.234,6.211-15.466-23.139,11.813-.352-.6,24.871-12.692Z" transform="translate(-0.27 -74.842)" fill="#232323"/>
        <path id="Path_4106" data-name="Path 4106" d="M97.235,408.172c1.982-4.409,12.392-.467,17.457,0,21.8,2.047,72.984,23.35,80.751,30.616,2.173,2.033,4.4,185.69,4.4,185.69h-89.59S94.446,414.353,97.235,408.172Z" transform="translate(44.699 -60.772)" fill="#0f3a64"/>
        <path id="Path_4138" data-name="Path 4138" d="M9.228.186c5.111.106,9.7,22.988,10.256,51.109s-3.141,50.831-8.252,50.725S1.529,79.031.976,50.911,4.118.08,9.228.186Z" transform="translate(139.311 356.047) rotate(-71.34)" fill="#0f3a64"/>
        <path id="Path_4107" data-name="Path 4107" d="M195.764,450.644l-1.395-.44c1.365-3.818-16.752-14.271-44.971-23.185s-49.4-10.879-50.77-7.06l-1.468-.453c2.188-6.071,28.762-1.374,52.635,6.222S197.952,444.573,195.764,450.644Z" transform="translate(44.818 -56.804)" fill="#fbb03b"/>
        <path id="Path_4108" data-name="Path 4108" d="M277.463,457.445s2.1-50.148.308-53.871-19.38-50.038-25.87-58.472-22.669-29.614-27.544-29.792,11.481,28.735,11.481,28.735-27.191-26.564-31.17-24.889,2.32,14.7,2.32,14.7L217.267,345.2s-20.085-7.321-24.064-5.645.719,6.428,1.615,8.241,18.69,8.983,18.69,8.983-19.395,4.876-18.5,6.744,2.7,5.577,11.555,4.121l15.328,6.964s10.777,22.32,21.421,24.532l-7.238,79.2Z" transform="translate(89.048 -94.689)" fill="#754d46"/>
        <path id="Path_4109" data-name="Path 4109" d="M306.068,392.762c-1.982-4.409-12.377-.467-17.442,0-21.817,2.047-73,23.35-80.751,30.616-2.188,2.033-4.4,185.7-4.4,185.7H292.9S308.857,398.943,306.068,392.762Z" transform="translate(94.593 -66.529)" fill="#165694"/>
        <path id="Path_4110" data-name="Path 4110" d="M206.883,423.482c1.732,4.807,24.959,1.841,51.71-6.634s47.159-19.23,45.426-24.051-24.886-1.827-51.71,6.648S205.15,418.661,206.883,423.482Z" transform="translate(96.143 -66.604)" fill="#165694"/>
        <path id="Path_4111" data-name="Path 4111" d="M206.216,435.226c-1-2.747,3.157-6.607,12.333-11.469a242.092,242.092,0,0,1,69.005-21.784c10.454-1.374,16.253-.632,17.237,2.129l-1.38.44c-.543-1.483-4.948-2.582-15.651-1.209a240.989,240.989,0,0,0-68.433,21.62c-9.411,4.986-12.2,8.351-11.658,9.835Z" transform="translate(95.811 -62.567)" fill="#fbb03b"/>
        <path id="Path_4139" data-name="Path 4139" d="M0,0,.7.019l.377,14.449-.7-.019Z" transform="translate(302.361 262.385) rotate(-63.44)" fill="#232323"/>
        <path id="Path_4140" data-name="Path 4140" d="M0,0,.691.014l.647,34.428-.691-.014Z" transform="translate(287.963 245.401) rotate(-72.28)" fill="#232323"/>
        <path id="Path_4112" data-name="Path 4112" d="M387.308,430.865c.352-3.6,5.564-12.362,8.281-14.889,2.188-2.033,17.457-18.364,17.457-18.364-.749-8.379-17.457,0-17.457,0s6.519-18.666,9.206-30.3-2.936-14.175-6.284-10.988-11.936,29.449-11.936,29.449l-1.718-.687s3.347-28.844-.176-38.459-8.339,2.4-8.956,13.378-2.6,24.545-2.6,24.545-4.4-30.946-5.051-32.883-5.535-2.555-6.857,6.5.881,27.732.881,27.732-7.781-27.7-13.214-23.79,3.582,28.927,3.582,28.927-5.726,33.185,6.768,42.113l26.707,11.909Z" transform="translate(161.861 -84.303)" fill="#ffb8ab"/>
        <path id="Path_4113" data-name="Path 4113" d="M411.119,406.294l-.5,42.717,31.214-.522.132-57.249Z" transform="translate(110.169 -66.325)" fill="#ffb8ab"/>
        <path id="Path_4114" data-name="Path 4114" d="M335.255,420.031c1.982-4.4,12.377-.467,17.442,0,21.817,2.047,73,23.35,80.751,30.616,2.188,2.047,4.4,185.7,4.4,185.7H348.336S332.465,426.253,335.255,420.031Z" transform="translate(156.141 -56.341)" fill="#165694"/>
        <path id="Path_4141" data-name="Path 4141" d="M9.228.186c5.111.106,9.7,22.988,10.256,51.109s-3.141,50.831-8.252,50.725S1.529,79.031.976,50.911,4.118.08,9.228.186Z" transform="translate(488.783 372.364) rotate(-71.34)" fill="#165694"/>
        <path id="Path_4115" data-name="Path 4115" d="M433.746,462.5l-1.38-.44c.529-1.483-2.261-4.849-11.672-9.835a209.25,209.25,0,0,0-33.3-13.337c-28.219-8.914-49.4-10.878-50.785-7.074l-1.38-.44c2.188-6.071,28.747-1.374,52.635,6.208a212.368,212.368,0,0,1,33.548,13.447C430.589,455.893,434.73,459.753,433.746,462.5Z" transform="translate(156.283 -52.37)" fill="#fbb03b"/>
        <path id="Path_4116" data-name="Path 4116" d="M360.055,407.7l-.675-.261c9.1-20.123,30.186-24.861,30.406-24.9l.162.673C389.742,383.254,369,387.911,360.055,407.7Z" transform="translate(167.59 -69.575)" fill="#232323"/>
        <path id="Path_4117" data-name="Path 4117" d="M355.751,377.269l-.191-.673c23.932-6.1,30.627-.165,30.906.1l-.528.481S379.183,371.308,355.751,377.269Z" transform="translate(165.802 -72.82)" fill="#232323"/>
        <path id="Path_4118" data-name="Path 4118" d="M72.91,342.065,72,340.994c.162-.124,16.576-12.6,15.2-31.262-2.334-31.152,9.646-39.022,10.145-39.352l.822,1.14-.411-.563.411.563c-.117.082-11.746,7.884-9.5,38.116C90.1,329.044,73.086,341.942,72.91,342.065Z" transform="translate(33.039 -111.472)" fill="#d74261"/>
        <path id="Path_4119" data-name="Path 4119" d="M104.753,297.081,57.227,298.99a1.033,1.033,0,0,1-.98-.594.918.918,0,0,1,.246-1.068l82.425-69.378a4.446,4.446,0,0,1,3.23-1.016l101.643,8.241a1.014,1.014,0,0,1,.9.685.926.926,0,0,1-.354,1.032l-46,32.869a1.265,1.265,0,0,1-.308.151l-93.01,27.169Z" transform="translate(25.627 -127.707)" fill="#052a4f"/>
        <path id="Path_4120" data-name="Path 4120" d="M191.367,247.178c-3.142-6.73-28.2-5.494-56.7,2.871s-49.8,20.768-48.26,27.979h0l8.178,24.38,105.05-30.85-8.237-24.38Z" transform="translate(39.746 -121.757)" fill="#0f3a64"/>
        <path id="Path_4121" data-name="Path 4121" d="M197.1,265.28c2.393,7.129-19.175,19.834-48.172,28.35s-54.47,9.615-56.863,2.5,19.175-19.834,48.172-28.35S194.71,258.124,197.1,265.28Z" transform="translate(42.349 -115.135)" fill="#012040"/>
        <path id="Path_4142" data-name="Path 4142" d="M0,0,9.738.191l.029,1.387L.029,1.387Z" transform="matrix(0.948, -0.319, 0.319, 0.948, 95.576, 231.833)" fill="#d74261"/>
        <path id="Path_4143" data-name="Path 4143" d="M0,0,9.268.248,9.306,1.7.037,1.45Z" transform="translate(100.364 240.382) rotate(-64.06)" fill="#d74261"/>
        <path id="Path_4144" data-name="Path 4144" d="M0,0,9.6.284l.043,1.4L.043,1.4Z" transform="translate(95.538 235.534) rotate(-32.12)" fill="#d74261"/>
        <path id="Path_4122" data-name="Path 4122" d="M304.337,380.814l.514-.6c-.1,0-9.206-6.978-8.442-17.334,1.292-17.279-5.344-21.647-5.623-21.826l-.455.632.22-.316-.22.316s6.519,4.368,5.271,21.139C294.808,373.534,304.234,380.691,304.337,380.814Z" transform="translate(135.261 -85.073)" fill="#c6def5"/>
        <path id="Path_4123" data-name="Path 4123" d="M315.382,355.817l26.428,1.058a.562.562,0,0,0,.555-.326.5.5,0,0,0-.158-.595L296.5,317.5a2.515,2.515,0,0,0-1.806-.563l-56.379,4.56a.565.565,0,0,0-.5.386.517.517,0,0,0,.206.575l25.547,18.227a.347.347,0,0,0,.176.082l51.549,15.109Z" transform="translate(110.664 -94.086)" fill="#c6def5"/>
        <path id="Path_4124" data-name="Path 4124" d="M254.051,328.124c1.733-3.736,15.636-3.049,31.449,1.593s27.617,11.524,26.765,15.521h0l-4.537,13.529L249.47,341.639l4.537-13.516Z" transform="translate(116.13 -90.8)" fill="#c6def5"/>
        <path id="Path_4145" data-name="Path 4145" d="M7.545.144c4.175.082,7.812,13.741,8.122,30.51s-2.822,30.3-7,30.214S.859,47.126.548,30.358,3.37.062,7.545.144Z" transform="matrix(0.3, -0.954, 0.954, 0.3, 363.119, 258.152)" fill="#c6def5"/>
        <path id="Path_4146" data-name="Path 4146" d="M0,0,.763.016l.106,5.41L.106,5.41Z" transform="matrix(0.319, -0.948, 0.948, 0.319, 443.379, 296.712)" fill="#c6def5"/>
        <path id="Path_4147" data-name="Path 4147" d="M0,0,.8.02.935,5.17l-.8-.02Z" transform="translate(439.564 296.896) rotate(-25.94)" fill="#c6def5"/>
        <path id="Path_4148" data-name="Path 4148" d="M0,0,.784.024.942,5.357.158,5.333Z" transform="translate(440.327 296.338) rotate(-57.88)" fill="#c6def5"/>
        <path id="Path_4125" data-name="Path 4125" d="M292.367,260.527l-.117-.549c.088,0,8.545-1.772,11.746-8.859,5.256-11.812,11.2-12.65,11.452-12.678l.073.549v0s-5.873.879-10.967,12.362C301.235,258.7,292.455,260.513,292.367,260.527Z" transform="translate(136.16 -123.403)" fill="#c6def5"/>
        <path id="Path_4126" data-name="Path 4126" d="M312.385,246.562,294.576,239.1a.39.39,0,0,1,0-.742l43.9-11.346a1.8,1.8,0,0,1,1.38.192l35.663,20.466a.376.376,0,0,1,.2.406.4.4,0,0,1-.346.308l-23.33,4.121h-.147l-39.407-6.016Z" transform="translate(137.122 -127.693)" fill="#c6def5"/>
        <path id="Path_4127" data-name="Path 4127" d="M352.417,244.7c.176-3.008-9.25-6.868-21.348-8.695s-22.346-.934-23.183,1.978h0l-1.776,10.343,44.575,6.717,1.776-10.343Z" transform="translate(142.649 -124.666)" fill="#c6def5"/>
        <path id="Path_4128" data-name="Path 4128" d="M350.651,252.4c-.514,3.022-10.923,3.97-23.227,2.115s-21.862-5.81-21.348-8.846,10.923-3.983,23.242-2.129S351.179,249.362,350.651,252.4Z" transform="translate(142.624 -121.853)" fill="#c6def5"/>
        <path id="Path_4161" data-name="Path 4161" d="M0,0,.564.005l.036,4L.036,4Z" transform="translate(423.727 135.911) rotate(-81.85)" fill="#c6def5"/>
        <path id="Path_4149" data-name="Path 4149" d="M0,0,3.913.125,3.931.7.019.578Z" transform="translate(424.565 139.754) rotate(-37.47)" fill="#c6def5"/>
        <path id="Path_4162" data-name="Path 4162" d="M0,0,4.006.025l0,.564L0,.564Z" transform="translate(423.77 137.114) rotate(-5.54)" fill="#c6def5"/>
        <path id="Path_4129" data-name="Path 4129" d="M391.579,302.159l-1.189-.81c.367-.467,9.25-11.346,42.431-8.008,19.865,1.992,33.769-12.87,33.959-13.021l1.1.893c-.132.151-14.565,15.576-35.237,13.488C400.3,291.446,391.667,302.049,391.579,302.159Z" transform="translate(182.109 -107.759)" fill="#d74261"/>
        <path id="Path_4150" data-name="Path 4150" d="M0,0,9.226.208l.031,1.456L.031,1.456Z" transform="matrix(0.352, -0.936, 0.936, 0.352, 648.045, 170.544)" fill="#d74261"/>
        <path id="Path_4151" data-name="Path 4151" d="M0,0,9.676.232l.035,1.389L.035,1.389Z" transform="translate(651.705 172.231) rotate(-23.72)" fill="#d74261"/>
        <path id="Path_4152" data-name="Path 4152" d="M0,0,9.348.294l.044,1.438L.044,1.438Z" transform="translate(650.119 171.446) rotate(-55.66)" fill="#d74261"/>
        <path id="Path_4130" data-name="Path 4130" d="M434.194,337.092,481.72,339a1.021,1.021,0,0,0,1.007-.583.908.908,0,0,0-.273-1.079l-82.41-69.419A4.508,4.508,0,0,0,396.8,266.9l-101.644,8.241a1.013,1.013,0,0,0-.887.691.927.927,0,0,0,.358,1.026l46.043,32.883a2.284,2.284,0,0,0,.323.151l92.937,27.128Z" transform="translate(137.086 -112.776)" fill="#052a4f"/>
        <path id="Path_4131" data-name="Path 4131" d="M323.631,287.118c3.127-6.73,28.189-5.494,56.687,2.857s49.816,20.782,48.274,27.979h0l-8.178,24.38L315.38,311.471l8.178-24.38Z" transform="translate(146.989 -106.838)" fill="#0f3a64"/>
        <path id="Path_4153" data-name="Path 4153" d="M13.615.259C21.148.407,27.71,25.027,28.27,55.251s-5.093,54.6-12.627,54.457S1.548,84.94.988,54.717,6.081.112,13.615.259Z" transform="matrix(0.3, -0.954, 0.954, 0.3, 457.865, 217.905)" fill="#012040"/>
        <path id="Path_4132" data-name="Path 4132" d="M221.346,291.164l-1.086-.247c.117-.426,2.936-10.466,27.323-17.073,14.579-3.97,19.791-18.172,19.835-18.323l1.057.33c0,.151-5.432,14.876-20.555,19C224.283,281.288,221.42,291.067,221.346,291.164Z" transform="translate(102.454 -117.023)" fill="#c6def5"/>
        <path id="Path_4164" data-name="Path 4164" d="M0,0,1.116,0,1.13,6.953l-1.116,0Z" transform="translate(368.525 130.364) rotate(-1.74)" fill="#c6def5"/>
        <path id="Path_4154" data-name="Path 4154" d="M0,0,7.181.239,7.217,1.32.036,1.081Z" transform="matrix(0.694, -0.72, 0.72, 0.694, 371.826, 137.565)" fill="#c6def5"/>
        <path id="Path_4155" data-name="Path 4155" d="M0,0,6.971.1,6.986,1.21l-6.971-.1Z" transform="translate(370.466 137.417) rotate(-77.99)" fill="#c6def5"/>
        <path id="Path_4133" data-name="Path 4133" d="M263.531,307.979l33.974-11.5a.713.713,0,0,0,0-1.374l-79.283-26.482a3.542,3.542,0,0,0-2.6.165L146.765,302a.721.721,0,0,0-.449.741.748.748,0,0,0,.611.632L189.4,314.05a.955.955,0,0,0,.279,0l73.63-6.03Z" transform="translate(67.831 -112.191)" fill="#c6def5"/>
        <path id="Path_4134" data-name="Path 4134" d="M168.729,298.281c.117-5.577,18.1-11.483,40.7-13.3s41.4,1.154,42.578,6.62h0l1.777,19.34-83.32,6.675-1.762-19.34Z" transform="translate(78.314 -106.215)" fill="#c6def5"/>
        <path id="Path_4163" data-name="Path 4163" d="M41.778.224C64.853.35,83.585,5.061,83.619,10.746S64.973,20.936,41.9,20.81.092,15.972.059,10.287,18.7.1,41.778.224Z" transform="translate(247.899 201.429) rotate(-4.9)" fill="#c6def5"/>
        <path id="Path_4135" data-name="Path 4135" d="M231.091,300.694c0-.192-5.153-20.122,8.618-34.682,21.48-22.7,17.31-35.534,17.266-35.712l1.468-.44c.191.549,4.566,13.612-17.618,37-13.214,14.01-8.354,33.254-8.3,33.446Z" transform="translate(107.083 -126.608)" fill="#d74261"/>
        <path id="Path_4156" data-name="Path 4156" d="M0,0,1.439.044l.292,9.345L.292,9.345Z" transform="translate(340.589 175.039) rotate(-34.05)" fill="#d74261"/>
        <path id="Path_4157" data-name="Path 4157" d="M0,0,9.173.124l.019,1.464L.019,1.464Z" transform="translate(334.579 184.146) rotate(-78.465)" fill="#d74261"/>
        <path id="Path_4158" data-name="Path 4158" d="M0,0,1.457.031l.206,9.224L.206,9.224Z" transform="matrix(0.938, -0.348, 0.348, 0.938, 338.441, 175.827)" fill="#d74261"/>
        <path id="Path_4136" data-name="Path 4136" d="M241,235.783,211.84,270.959a.9.9,0,0,0-.061,1.1,1.045,1.045,0,0,0,1.089.413l108.177-22.732a4.4,4.4,0,0,0,2.745-1.882l51.651-82.33a.9.9,0,0,0-.092-1.068,1.056,1.056,0,0,0-1.1-.306l-55.307,16.112a.982.982,0,0,0-.323.151l-77.433,55.217A1.07,1.07,0,0,0,241,235.783Z" transform="translate(98.409 -151.17)" fill="#012040"/>
        <path id="Path_4137" data-name="Path 4137" d="M330.669,184.438c4.067,6.291-11.511,24.724-35.237,41.6s-46.982,25.974-52.312,20.6h0l-16.62-20.3L314.181,164,330.7,184.356Z" transform="translate(105.376 -151.21)" fill="#0f3a64"/>
        <path id="Path_4159" data-name="Path 4159" d="M53.732,1.665c29.683.944,53.947,7.932,54.2,15.608s-23.613,13.133-53.3,12.189S.685,21.53.437,13.854,24.049.721,53.732,1.665Z" transform="translate(322.893 64.06) rotate(-37.21)" fill="#052a4f"/>
      </g>
    </g>
  </g>
</svg>
