<svg id="Group_4" data-name="Group 4" xmlns="http://www.w3.org/2000/svg" width="19" height="10.149" viewBox="0 0 19 10.149">
  <path id="Path_197" data-name="Path 197" d="M0,10.149,3.422,4.839.354,0h2.36L4.72,3.3,6.727,0h2.36L6.019,4.957l3.422,5.193H6.963L4.72,6.609l-2.242,3.54ZM10.5,0h3.658A6.687,6.687,0,0,1,16.05.236,2.923,2.923,0,0,1,17.7,1.18a3.8,3.8,0,0,1,.944,1.652A7.1,7.1,0,0,1,19,5.193a5.717,5.717,0,0,1-.354,2.124,4.444,4.444,0,0,1-1.062,1.77,4.081,4.081,0,0,1-1.416.826,7.143,7.143,0,0,1-1.77.236H10.5Zm2.006,1.77V8.5h1.534a2.96,2.96,0,0,0,1.18-.118,1.9,1.9,0,0,0,.826-.472,3.267,3.267,0,0,0,.59-.944,4.324,4.324,0,0,0,.236-1.888A5.749,5.749,0,0,0,16.64,3.3a2.57,2.57,0,0,0-.59-.944,2.372,2.372,0,0,0-.944-.472,5.364,5.364,0,0,0-1.652-.118h-.944Z" fill="#2699fb"/>
</svg>
