<svg xmlns="http://www.w3.org/2000/svg" xmlns:xlink="http://www.w3.org/1999/xlink" width="300" height="208" viewBox="0 0 300 208">
  <defs>
    <clipPath id="clip-path">
      <rect id="_3370253" data-name="3370253" width="300" height="200" transform="translate(100 2215)" fill="#fff"/>
    </clipPath>
  </defs>
  <rect id="_3370253-2" data-name="3370253" width="300" height="200" fill="#fff"/>
  <g id="Mask_Group_1" data-name="Mask Group 1" transform="translate(-100 -2207)" clip-path="url(#clip-path)">
    <g id="Diary-pana" transform="translate(139.917 2198.293)">
      <g id="freepik--background-complete--inject-144">
        <rect id="Rectangle_675" data-name="Rectangle 675" width="46.17" height="66.923" transform="translate(26.749 16.707)" fill="#e0e0e0"/>
        <rect id="Rectangle_676" data-name="Rectangle 676" width="46.17" height="66.923" transform="translate(24.438 16.707)" fill="#f5f5f5"/>
        <rect id="Rectangle_677" data-name="Rectangle 677" width="34.701" height="52.428" transform="translate(30.173 23.955)" fill="#fff"/>
        <path id="Path_4356" data-name="Path 4356" d="M64.874,76.383V72.507c0-2.51,0-6.174-.031-10.8,0-9.243-.031-22.336-.053-37.752l.115.115-34.745.013h0l.124-.129V76.383l-.124-.1,25.281.053,6.977.027h.04l-6.954.027-25.343.093h-.1v-.1c0-14.414,0-32.647-.027-52.428V23.83H64.971v.12c-.027,15.448-.044,28.567-.058,37.828,0,4.617-.022,8.267-.031,10.773v3.584C64.882,76.3,64.874,76.383,64.874,76.383Z" fill="#e0e0e0"/>
        <path id="Path_4357" data-name="Path 4357" d="M70.737,16.707a7.8,7.8,0,0,1-.821,1.2c-.537.714-1.3,1.69-2.169,2.745s-1.681,1.991-2.28,2.661a8.063,8.063,0,0,1-1.016,1.038,8.7,8.7,0,0,1,.887-1.153l2.218-2.7,2.218-2.7a8.915,8.915,0,0,1,.962-1.1Z" fill="#e0e0e0"/>
        <path id="Path_4358" data-name="Path 4358" d="M65.051,76.214a42.9,42.9,0,0,0,6.05,7.571" fill="#fff"/>
        <path id="Path_4359" data-name="Path 4359" d="M71.1,83.785a7.15,7.15,0,0,1-1.056-.962,33.516,33.516,0,0,1-4.293-5.367,6.764,6.764,0,0,1-.7-1.242,9.549,9.549,0,0,1,.847,1.14c.51.714,1.229,1.694,2.062,2.737s1.632,1.956,2.218,2.612a9.217,9.217,0,0,1,.923,1.082Z" fill="#e0e0e0"/>
        <path id="Path_4360" data-name="Path 4360" d="M24.429,83.577q3.029-3.726,6.05-7.46" fill="#fff"/>
        <path id="Path_4361" data-name="Path 4361" d="M30.479,76.117a46.045,46.045,0,0,1-2.927,3.81,45.788,45.788,0,0,1-3.1,3.65,46.933,46.933,0,0,1,2.927-3.81,46.776,46.776,0,0,1,3.1-3.65Z" fill="#e0e0e0"/>
        <path id="Path_4362" data-name="Path 4362" d="M24.438,16.707a42.924,42.924,0,0,1,2.936,3.508,41.822,41.822,0,0,1,2.737,3.668,43.5,43.5,0,0,1-2.936-3.513,41.416,41.416,0,0,1-2.737-3.663Z" fill="#e0e0e0"/>
        <rect id="Rectangle_678" data-name="Rectangle 678" width="11.62" height="32.989" transform="translate(42.445 34.599)" fill="#e0e0e0"/>
        <rect id="Rectangle_679" data-name="Rectangle 679" width="99.459" height="45.869" transform="translate(12.747 109.904)" fill="#f5f5f5"/>
        <path id="Path_4363" data-name="Path 4363" d="M109.842,153.613H15.026v-41.3h94.816Zm-94.2-.6h93.583V112.938H15.643Z" fill="#e0e0e0"/>
        <rect id="Rectangle_680" data-name="Rectangle 680" width="24.296" height="45.869" transform="translate(112.21 109.904)" fill="#e0e0e0"/>
        <path id="Path_4364" data-name="Path 4364" d="M15.332,125.1h94.217a.124.124,0,0,0,0-.248H15.332a.124.124,0,1,0,0,.248Z" fill="#e0e0e0"/>
        <path id="Path_4365" data-name="Path 4365" d="M62.74,124.975a102.5,102.5,0,0,0,.031-12.463.129.129,0,0,0-.253,0,104.321,104.321,0,0,0,.031,12.463.1.1,0,0,0,.191,0Z" fill="#e0e0e0"/>
        <path id="Path_4366" data-name="Path 4366" d="M88.1,118.744a1.282,1.282,0,1,1-.377-.908A1.286,1.286,0,0,1,88.1,118.744Z" fill="#e0e0e0"/>
        <path id="Path_4367" data-name="Path 4367" d="M38.662,118.744a1.282,1.282,0,1,1-.377-.908A1.286,1.286,0,0,1,38.662,118.744Z" fill="#e0e0e0"/>
        <circle id="Ellipse_281" data-name="Ellipse 281" cx="1.282" cy="1.282" r="1.282" transform="translate(61.153 131.685)" fill="#e0e0e0"/>
        <path id="Path_4368" data-name="Path 4368" d="M24.638,155.777l-5.118,28.8H22.4l9.443-28.8Z" fill="#e0e0e0"/>
        <path id="Path_4369" data-name="Path 4369" d="M105.172,155.777l4.28,28.847h-2.878l-8.6-28.847Z" fill="#e0e0e0"/>
        <path id="Path_4370" data-name="Path 4370" d="M124.4,155.777l4.852,28.847h-2.878L117.2,155.777Z" fill="#e0e0e0"/>
        <path id="Path_4371" data-name="Path 4371" d="M63.632,145.949a1.282,1.282,0,1,1-.375-.911A1.286,1.286,0,0,1,63.632,145.949Z" fill="#e0e0e0"/>
        <path id="Path_4372" data-name="Path 4372" d="M15.332,139.305h94.217a.129.129,0,0,0,0-.253H15.332a.129.129,0,0,0,0,.253Z" fill="#e0e0e0"/>
        <path id="Path_4373" data-name="Path 4373" d="M190.177,144.077c-.04.053-.39-.16-.785-.475s-.674-.608-.63-.661.39.16.785.475S190.221,144.024,190.177,144.077Z" fill="#e0e0e0"/>
        <path id="Path_4374" data-name="Path 4374" d="M200.861,128.111a12.286,12.286,0,0,0-.364-4.435,3.9,3.9,0,0,0-7.34-.891,12.321,12.321,0,0,0-1.535,4.834,171.061,171.061,0,0,0-2.093,35.109l6.83.958C199.362,151.427,200.316,140.715,200.861,128.111Z" fill="#ebebeb"/>
        <path id="Path_4375" data-name="Path 4375" d="M196.524,120.593a.311.311,0,0,1-.031.111c-.031.08-.067.182-.111.306l-.444,1.18c-.093.257-.222.537-.324.856l-.333,1.033c-.12.373-.244.767-.381,1.189s-.231.887-.35,1.353a58.814,58.814,0,0,0-1.331,6.759c-.368,2.568-.612,5.415-.8,8.4-.35,5.983-.4,11.412-.559,15.341-.071,1.965-.137,3.548-.213,4.648-.035.537-.067.958-.084,1.264a1.03,1.03,0,0,1-.031.328.444.444,0,0,1,0,.111.413.413,0,0,1,0-.111v-.328c0-.31,0-.732.04-1.268.044-1.1.084-2.683.137-4.648.106-3.93.133-9.358.483-15.355.191-2.994.444-5.846.825-8.427a56.952,56.952,0,0,1,1.375-6.773c.129-.475.253-.927.373-1.353l.4-1.189c.129-.368.244-.71.355-1.029s.24-.594.342-.847c.213-.492.377-.887.5-1.166l.133-.3a.377.377,0,0,1,.031-.089Z" fill="#e0e0e0"/>
        <path id="Path_4376" data-name="Path 4376" d="M197.158,120.6a4.941,4.941,0,0,1,.834,1.41,10.418,10.418,0,0,1,.621,4.435c-.182,3.77-.519,8.972-.967,14.716s-.954,10.933-1.357,14.685c-.2,1.876-.373,3.393-.5,4.435-.067.506-.12.909-.155,1.206a1.692,1.692,0,0,1-.049.31.3.3,0,0,1-.022.106.324.324,0,0,1,0-.106,1.752,1.752,0,0,1,.022-.319l.106-1.206c.106-1.073.248-2.59.444-4.435.359-3.757.829-8.946,1.282-14.689s.816-10.942,1.038-14.7a10.738,10.738,0,0,0-.537-4.378A9.425,9.425,0,0,0,197.158,120.6Z" fill="#e0e0e0"/>
        <path id="Path_4377" data-name="Path 4377" d="M201.89,138.272a3.614,3.614,0,0,1-1.291-.333,3.774,3.774,0,0,1-1.215-.563,3.628,3.628,0,0,1,1.3.333,3.721,3.721,0,0,1,1.211.563Z" fill="#e0e0e0"/>
        <path id="Path_4378" data-name="Path 4378" d="M202.715,131.313a4.107,4.107,0,0,1-1.233.683,4.027,4.027,0,0,1-1.331.444,4.222,4.222,0,0,1,1.233-.683,4.151,4.151,0,0,1,1.331-.444Z" fill="#e0e0e0"/>
        <path id="Path_4379" data-name="Path 4379" d="M202.289,125.631a4.262,4.262,0,0,1-2.022-.137,2.124,2.124,0,0,1,1.02-.053,2.244,2.244,0,0,1,1,.191Z" fill="#e0e0e0"/>
        <path id="Path_4380" data-name="Path 4380" d="M195.242,121.99c-.058.035-.359-.337-.67-.829s-.519-.927-.444-.962.355.337.67.829A2.231,2.231,0,0,1,195.242,121.99Z" fill="#e0e0e0"/>
        <path id="Path_4381" data-name="Path 4381" d="M192.931,125.427a2.093,2.093,0,0,1-.971.1c-.537,0-.967-.075-.967-.146a2.058,2.058,0,0,1,.971-.1A2.014,2.014,0,0,1,192.931,125.427Z" fill="#e0e0e0"/>
        <path id="Path_4382" data-name="Path 4382" d="M191.241,132.3a2.427,2.427,0,0,1-1.025-.284c-.537-.217-.954-.444-.927-.506a2.355,2.355,0,0,1,1.02.279C190.847,132.009,191.263,132.235,191.241,132.3Z" fill="#e0e0e0"/>
        <path id="Path_4383" data-name="Path 4383" d="M191.059,138.081c0,.067-.373.2-.887.306s-.887.133-.918.067.377-.2.887-.306S191.046,138.014,191.059,138.081Z" fill="#e0e0e0"/>
        <path id="Path_4384" data-name="Path 4384" d="M190.27,147.537a2.072,2.072,0,0,1-.923.288,2,2,0,0,1-.967.049,2.072,2.072,0,0,1,.923-.288,2,2,0,0,1,.967-.049Z" fill="#e0e0e0"/>
        <path id="Path_4385" data-name="Path 4385" d="M189.751,152.753c.031.062-.31.306-.767.546s-.852.39-.887.328.315-.3.772-.541S189.72,152.695,189.751,152.753Z" fill="#e0e0e0"/>
        <path id="Path_4386" data-name="Path 4386" d="M194.013,158.678c-.058.035-.359-.381-.67-.927a2.789,2.789,0,0,1-.444-1.047c.062-.031.359.381.674.927a2.8,2.8,0,0,1,.439,1.047Z" fill="#e0e0e0"/>
        <path id="Path_4387" data-name="Path 4387" d="M195.242,148.832c.049.049-.284.444-.745.887a3.231,3.231,0,0,1-.918.727,3.175,3.175,0,0,1,.745-.887,3.016,3.016,0,0,1,.918-.727Z" fill="#e0e0e0"/>
        <path id="Path_4388" data-name="Path 4388" d="M194.971,143.669c-.049.044-.359-.208-.692-.568s-.563-.692-.514-.736.359.208.692.568S195.02,143.625,194.971,143.669Z" fill="#e0e0e0"/>
        <path id="Path_4389" data-name="Path 4389" d="M195.818,137.07c.049.044-.231.444-.625.887s-.754.758-.8.714.226-.444.621-.887A2.7,2.7,0,0,1,195.818,137.07Z" fill="#e0e0e0"/>
        <path id="Path_4390" data-name="Path 4390" d="M196.293,132.28c-.049.049-.444-.257-.887-.683s-.745-.807-.7-.856.444.257.887.683S196.342,132.231,196.293,132.28Z" fill="#e0e0e0"/>
        <path id="Path_4391" data-name="Path 4391" d="M197.229,125.8a2.346,2.346,0,0,1-.443.967c-.3.5-.585.887-.643.847a2.4,2.4,0,0,1,.444-.971C196.878,126.146,197.171,125.769,197.229,125.8Z" fill="#e0e0e0"/>
        <path id="Path_4392" data-name="Path 4392" d="M198.985,119.8c.062.031-.111.466-.386.971s-.541.887-.6.852a2.28,2.28,0,0,1,.386-.967C198.657,120.154,198.927,119.772,198.985,119.8Z" fill="#e0e0e0"/>
        <path id="Path_4393" data-name="Path 4393" d="M200.981,122.531c.031.058-.244.248-.608.444s-.687.266-.719.208.244-.253.612-.444S200.954,122.469,200.981,122.531Z" fill="#e0e0e0"/>
        <path id="Path_4394" data-name="Path 4394" d="M201.03,144.077a2.781,2.781,0,0,1-1.331-.324,2.71,2.71,0,0,1-1.158-.741,6.653,6.653,0,0,1,1.251.519,6.533,6.533,0,0,1,1.237.546Z" fill="#e0e0e0"/>
        <path id="Path_4395" data-name="Path 4395" d="M200.214,148.641a2.026,2.026,0,0,1-.918.3,1.974,1.974,0,0,1-.967.062,2.093,2.093,0,0,1,.923-.3,2.018,2.018,0,0,1,.962-.062Z" fill="#e0e0e0"/>
        <path id="Path_4396" data-name="Path 4396" d="M199.211,156.469a2.661,2.661,0,0,1-1.038-.914,2.6,2.6,0,0,1-.652-1.22,7.983,7.983,0,0,1,.843,1.069A8.18,8.18,0,0,1,199.211,156.469Z" fill="#e0e0e0"/>
        <path id="Path_4397" data-name="Path 4397" d="M188.234,160.049c-.044-.053.235-.364.621-.692s.732-.559.776-.506-.235.359-.621.692S188.279,160.111,188.234,160.049Z" fill="#e0e0e0"/>
        <path id="Path_4398" data-name="Path 4398" d="M185.076,142.969c-.444-1.388-1.277-3.007-2.737-3.029a2.422,2.422,0,0,0-2.049,1.37,5.078,5.078,0,0,0-.55,2.515,65.286,65.286,0,0,0,3.131,18.184h5.322a63.179,63.179,0,0,0-3.118-19.04Z" fill="#ebebeb"/>
        <path id="Path_4399" data-name="Path 4399" d="M175.434,134.227a5.919,5.919,0,0,0-5.553-4.737c-2.355.412-3.269,2.732-3.548,5.109a16.723,16.723,0,0,0,1.184,7.021q3.513,10.977,7.021,21.954l6.653-.723C179.071,153.045,177.851,143.958,175.434,134.227Z" fill="#ebebeb"/>
        <path id="Path_4400" data-name="Path 4400" d="M182.34,139.939a6.086,6.086,0,0,0-.444.754,4.919,4.919,0,0,0-.253,2.36c.106,1.011.222,2.218.39,3.548s.417,2.807.714,4.338c.6,3.065,1.282,5.815,1.716,7.819.217,1,.381,1.814.483,2.377.044.257.084.475.115.648a1.125,1.125,0,0,1,.022.231,1.131,1.131,0,0,1-.071-.217c-.035-.146-.1-.386-.16-.643-.137-.594-.328-1.388-.559-2.36-.475-1.991-1.18-4.732-1.774-7.806-.3-1.539-.537-3.012-.7-4.36-.084-.674-.142-1.331-.2-1.916s-.115-1.158-.146-1.672a4.879,4.879,0,0,1,.337-2.408,2.16,2.16,0,0,1,.519-.692Z" fill="#e0e0e0"/>
        <path id="Path_4401" data-name="Path 4401" d="M169.979,129.3a8.469,8.469,0,0,0-.8,1.078,7.54,7.54,0,0,0-1.007,3.473,15.966,15.966,0,0,0,.82,5.322l1.889,6.413c1.331,4.546,2.524,8.662,3.4,11.673l1,3.548c.106.4.2.723.262.967a2.273,2.273,0,0,1,.075.341,1.681,1.681,0,0,1-.124-.328c-.075-.24-.177-.559-.306-.954l-1.073-3.522c-.887-3.007-2.116-7.1-3.464-11.651l-1.876-6.4A16.292,16.292,0,0,1,168,133.85a7.438,7.438,0,0,1,1.1-3.508,4.1,4.1,0,0,1,.883-1.042Z" fill="#e0e0e0"/>
        <path id="Path_4402" data-name="Path 4402" d="M179.723,162.142a2.6,2.6,0,0,1-.146-.319c-.089-.213-.231-.523-.381-.931-.315-.816-.719-2.018-1.14-3.526s-.834-3.322-1.237-5.349-.8-4.258-1.246-6.6A62.781,62.781,0,0,0,174,138.9a36.049,36.049,0,0,0-1.912-5.114,26.663,26.663,0,0,0-1.774-3.22c-.226-.373-.444-.643-.559-.834a2.1,2.1,0,0,1-.186-.3,1.827,1.827,0,0,1,.226.271c.137.186.359.444.6.812a24.224,24.224,0,0,1,1.863,3.2,34.594,34.594,0,0,1,1.96,5.109,66.245,66.245,0,0,1,1.6,6.533c.444,2.342.852,4.573,1.229,6.6s.785,3.841,1.184,5.349.776,2.714,1.064,3.548c.133.417.262.732.333.949a1.668,1.668,0,0,1,.1.337Z" fill="#e0e0e0"/>
        <path id="Path_4403" data-name="Path 4403" d="M167.65,140.525c0,.067-.346.208-.807.319s-.847.151-.865.084.346-.208.807-.319S167.619,140.458,167.65,140.525Z" fill="#e0e0e0"/>
        <path id="Path_4404" data-name="Path 4404" d="M166.932,136a8.364,8.364,0,0,1-2.24.089,2.28,2.28,0,0,1,1.113-.213,2.311,2.311,0,0,1,1.127.124Z" fill="#e0e0e0"/>
        <path id="Path_4405" data-name="Path 4405" d="M167.682,131.863c-.044.049-.4-.186-.807-.523s-.687-.656-.643-.71.4.182.8.523S167.726,131.81,167.682,131.863Z" fill="#e0e0e0"/>
        <path id="Path_4406" data-name="Path 4406" d="M169.7,128.035c.067,0,.049.337.04.727s0,.71-.08.723-.177-.315-.164-.732S169.642,128.018,169.7,128.035Z" fill="#e0e0e0"/>
        <path id="Path_4407" data-name="Path 4407" d="M173.86,129.836c.053.04-.106.368-.364.732s-.506.63-.563.59.106-.368.364-.732S173.784,129.8,173.86,129.836Z" fill="#e0e0e0"/>
        <path id="Path_4408" data-name="Path 4408" d="M176.521,134.5c.022.062-.319.262-.767.444s-.834.279-.86.217.319-.262.767-.444S176.521,134.435,176.521,134.5Z" fill="#e0e0e0"/>
        <path id="Path_4409" data-name="Path 4409" d="M178.153,139.3a2.018,2.018,0,0,1-1.051.444,1.965,1.965,0,0,1-1.149.04,4.6,4.6,0,0,1,1.1-.275A4.267,4.267,0,0,1,178.153,139.3Z" fill="#e0e0e0"/>
        <path id="Path_4410" data-name="Path 4410" d="M170.675,137.935c-.062-.022,0-.355.106-.741s.271-.687.337-.67,0,.355-.106.741S170.755,137.935,170.675,137.935Z" fill="#e0e0e0"/>
        <path id="Path_4411" data-name="Path 4411" d="M171.722,143.958a2.271,2.271,0,0,1,.3-1c.231-.523.444-.927.523-.887a2.3,2.3,0,0,1-.3,1C172.015,143.581,171.78,143.984,171.722,143.958Z" fill="#e0e0e0"/>
        <path id="Path_4412" data-name="Path 4412" d="M169.145,145.6c-.027.067-.444-.049-.958-.208s-.918-.306-.887-.373a1.819,1.819,0,0,1,.98.137C168.781,145.324,169.172,145.541,169.145,145.6Z" fill="#e0e0e0"/>
        <path id="Path_4413" data-name="Path 4413" d="M170.631,150.513c.035.058-.248.328-.639.6a1.866,1.866,0,0,1-.776.4c-.04-.04.248-.324.639-.6S170.591,150.46,170.631,150.513Z" fill="#e0e0e0"/>
        <path id="Path_4414" data-name="Path 4414" d="M171.82,155.409c0,.067-.337.208-.785.315s-.825.146-.843.08.337-.2.785-.315S171.806,155.343,171.82,155.409Z" fill="#e0e0e0"/>
        <path id="Path_4415" data-name="Path 4415" d="M178.295,143.385c.035.058-.266.3-.7.444s-.825.182-.834.12.328-.191.745-.35S178.251,143.328,178.295,143.385Z" fill="#e0e0e0"/>
        <path id="Path_4416" data-name="Path 4416" d="M179.209,151c-.031.062-.39-.044-.8-.24s-.723-.4-.7-.466.39.049.8.244S179.235,150.939,179.209,151Z" fill="#e0e0e0"/>
        <path id="Path_4417" data-name="Path 4417" d="M180.836,156.452a2.5,2.5,0,0,1-1.056-.284c-.559-.217-.993-.444-.967-.51a2.585,2.585,0,0,1,1.056.284C180.428,156.159,180.863,156.389,180.836,156.452Z" fill="#e0e0e0"/>
        <path id="Path_4418" data-name="Path 4418" d="M172.086,160.723c-.035-.062.4-.355.887-.754s.887-.745.945-.7-.271.483-.794.887a2.182,2.182,0,0,1-1.038.568Z" fill="#e0e0e0"/>
        <path id="Path_4419" data-name="Path 4419" d="M176.392,157.951c-.071,0-.164-.359-.333-.785s-.337-.758-.279-.8.333.253.51.714S176.454,157.946,176.392,157.951Z" fill="#e0e0e0"/>
        <path id="Path_4420" data-name="Path 4420" d="M175.248,151.4c-.04.053-.319-.08-.621-.3s-.519-.444-.479-.492.315.075.621.3S175.288,151.342,175.248,151.4Z" fill="#e0e0e0"/>
        <path id="Path_4421" data-name="Path 4421" d="M185.294,141.124c.04.053-.231.324-.608.6s-.71.444-.75.4.231-.319.608-.594S185.254,141.07,185.294,141.124Z" fill="#e0e0e0"/>
        <path id="Path_4422" data-name="Path 4422" d="M186.806,145.262c0,.067-.417.155-.94.1s-.923-.235-.887-.3a2.8,2.8,0,0,1,.927.053C186.389,145.168,186.8,145.2,186.806,145.262Z" fill="#e0e0e0"/>
        <path id="Path_4423" data-name="Path 4423" d="M180.3,146.189c0,.067-.377.208-.887.24s-.914-.053-.887-.12a2.466,2.466,0,0,1,.887-.124C179.9,146.149,180.286,146.122,180.3,146.189Z" fill="#e0e0e0"/>
        <path id="Path_4424" data-name="Path 4424" d="M180.858,142.277c0,.067-.4.075-.838-.124s-.683-.51-.639-.554.346.151.741.333S180.867,142.21,180.858,142.277Z" fill="#e0e0e0"/>
        <path id="Path_4425" data-name="Path 4425" d="M187.365,149.706c-.035.058-.444-.133-.909-.444s-.812-.577-.776-.634a2.218,2.218,0,0,1,.909.444C187.054,149.364,187.4,149.648,187.365,149.706Z" fill="#e0e0e0"/>
        <rect id="Rectangle_681" data-name="Rectangle 681" width="34.719" height="6.152" transform="translate(168.524 161.321)" fill="#e0e0e0"/>
        <path id="Path_4426" data-name="Path 4426" d="M171.119,166.253l4.222,18.388h20.69l4.621-18.388Z" fill="#e0e0e0"/>
        <path id="Path_4427" data-name="Path 4427" d="M203.225,167.482c0,.067-7.833.12-17.488.12s-17.492-.053-17.492-.12,7.828-.124,17.492-.124S203.225,167.415,203.225,167.482Z" fill="#ebebeb"/>
        <path id="Path_4428" data-name="Path 4428" d="M183.919,146.326c-.058.035-.3-.244-.532-.621s-.381-.71-.324-.745.3.24.532.617S183.972,146.291,183.919,146.326Z" fill="#e0e0e0"/>
        <path id="Path_4429" data-name="Path 4429" d="M183.928,151.276a1.969,1.969,0,0,1,.182-.936c.164-.492.35-.887.417-.856a1.969,1.969,0,0,1-.182.936C184.18,150.912,183.994,151.3,183.928,151.276Z" fill="#e0e0e0"/>
        <path id="Path_4430" data-name="Path 4430" d="M185.626,156.474c-.062.027-.324-.386-.581-.927a2.488,2.488,0,0,1-.359-1.033c.062-.031.319.386.581.927A2.607,2.607,0,0,1,185.626,156.474Z" fill="#e0e0e0"/>
        <path id="Path_4431" data-name="Path 4431" d="M181.958,160.656c-.053-.044.155-.368.444-.723s.6-.6.648-.559-.155.368-.444.723S182.007,160.7,181.958,160.656Z" fill="#e0e0e0"/>
        <path id="Path_4432" data-name="Path 4432" d="M181.187,153.063c0,.067-.346.062-.745,0s-.714-.182-.705-.248.346-.062.75,0S181.2,153.014,181.187,153.063Z" fill="#e0e0e0"/>
      </g>
      <g id="freepik--Floor--inject-144">
        <path id="Path_4433" data-name="Path 4433" d="M199.344,184.5c0,.062-39.611.115-88.46.115s-88.469-.062-88.469-.115,39.6-.115,88.469-.115S199.344,184.429,199.344,184.5Z" fill="#263238"/>
      </g>
      <g id="freepik--speech-bubble--inject-144">
        <circle id="Ellipse_282" data-name="Ellipse 282" cx="20.491" cy="20.491" r="20.491" transform="translate(40.884 54.433) rotate(-45)" fill="#fafafa"/>
        <path id="Path_4434" data-name="Path 4434" d="M89.085,68.249c0,.022-.222.04-.577.2a2.661,2.661,0,0,0-1.2,1.087,2.541,2.541,0,0,0-.35,1.056,2.218,2.218,0,0,0,.257,1.237,2.43,2.43,0,0,0,4.537-.395,2.218,2.218,0,0,0,.035-1.26,2.524,2.524,0,0,0-.523-.985,2.661,2.661,0,0,0-1.366-.86c-.381-.1-.6-.075-.6-.1a.559.559,0,0,1,.16,0,.989.989,0,0,1,.2,0,1.588,1.588,0,0,1,.262.035,2.685,2.685,0,0,1,2.027,1.863,2.364,2.364,0,0,1-.022,1.357,2.754,2.754,0,0,1-.816,1.255A2.448,2.448,0,0,1,88.079,73a2.759,2.759,0,0,1-1.016-1.1,2.324,2.324,0,0,1-.257-1.331,2.617,2.617,0,0,1,.39-1.113,2.661,2.661,0,0,1,1.282-1.082,1.681,1.681,0,0,1,.253-.084.989.989,0,0,1,.191-.035.749.749,0,0,1,.164-.013Z" fill="#263238"/>
        <path id="Path_4435" data-name="Path 4435" d="M93.485,73.89a1.636,1.636,0,0,0-.288.1,1.331,1.331,0,0,0-.594.541,1.22,1.22,0,0,0-.177.528,1.149,1.149,0,0,0,.129.616,1.215,1.215,0,0,0,2.266-.2,1.131,1.131,0,0,0,0-.63,1.286,1.286,0,0,0-.262-.488,1.331,1.331,0,0,0-.683-.444c-.191-.049-.3-.035-.3-.049h.177a.5.5,0,0,1,.133,0,1.331,1.331,0,0,1,.723.421,1.286,1.286,0,0,1,.288.514,1.166,1.166,0,0,1,0,.674,1.33,1.33,0,0,1-.4.625,1.229,1.229,0,0,1-1.512.133,1.384,1.384,0,0,1-.506-.546,1.166,1.166,0,0,1-.129-.665,1.331,1.331,0,0,1,.2-.554,1.3,1.3,0,0,1,.639-.541.6.6,0,0,1,.129-.04.262.262,0,0,1,.093,0Z" fill="#263238"/>
        <path id="Path_4436" data-name="Path 4436" d="M90.287,55.471V53.453c0-.271-.058-.55-.084-.86s-.071-.643-.106-1a3.459,3.459,0,0,0-.089-.55c-.04-.186-.08-.381-.12-.577a19.554,19.554,0,0,0-1.978-5.531,20.375,20.375,0,0,0-4.879-6.032l-.847-.7c-.3-.217-.612-.417-.927-.634l-.488-.315a4.244,4.244,0,0,0-.488-.3l-1.029-.585c-.177-.093-.35-.191-.528-.279l-.55-.235-1.122-.475c-.381-.146-.785-.253-1.18-.381l-.6-.186c-.1-.031-.2-.067-.3-.093l-.31-.062a19.187,19.187,0,0,0-2.555-.444c-.444-.04-.887-.106-1.331-.12H68.763l-.683.071c-.444.053-.918.08-1.379.151a21.825,21.825,0,0,0-2.754.723l-.687.213-.342.111-.333.142-1.331.563c-.444.213-.887.444-1.3.692-.213.124-.444.226-.648.364l-.621.417a23.652,23.652,0,0,0-2.4,1.841l-1.087,1.087-.275.271-.248.3-.5.6-.506.577-.444.648-.444.652-.222.328c-.067.111-.129.231-.191.346-.253.444-.506.931-.763,1.4l-.625,1.477a20.1,20.1,0,0,0-.656,12.818c.16.51.315,1.02.475,1.53l.616,1.468.155.364.186.346.377.692.373.692.444.648.444.648.217.319.248.3.971,1.189a23.064,23.064,0,0,0,2.218,2.076l.577.479c.191.16.408.284.608.444.412.275.807.568,1.224.821l1.282.7.319.173.328.142.661.284a21.4,21.4,0,0,0,2.661.927c.444.12.887.2,1.331.293l.674.137c.222.04.444.053.674.08l1.331.137c.444.027.887,0,1.331,0a18.377,18.377,0,0,0,2.581-.169l.315-.031a1.824,1.824,0,0,0,.31-.058l.616-.124c.408-.089.821-.151,1.215-.262l1.162-.359.577-.177.55-.226,1.078-.444a5.107,5.107,0,0,0,.519-.253l.5-.271c.333-.182.665-.35.985-.541l.914-.608a20.34,20.34,0,0,0,5.455-5.509c.164-.239.328-.47.475-.7l.395-.718.377-.687c.062-.115.129-.222.182-.337l.146-.342c.191-.444.377-.887.554-1.3s.271-.834.4-1.215l.182-.563a4.181,4.181,0,0,0,.142-.537c.071-.35.142-.683.2-.985s.133-.585.173-.847l.075-.71c.049-.421.084-.745.106-.967s.044-.328.044-.328v.328c0,.217-.053.546-.089.971,0,.213-.044.444-.071.714s-.1.541-.16.847l-.2.989a3.588,3.588,0,0,1-.169.532c-.058.182-.115.373-.177.563-.124.386-.231.807-.395,1.224s-.355.856-.55,1.308c-.049.115-.093.231-.146.346s-.115.226-.177.342l-.377.692-.39.723c-.151.235-.315.466-.475.705a20.353,20.353,0,0,1-5.469,5.562l-.918.616c-.319.186-.656.359-.989.546l-.506.271a4.341,4.341,0,0,1-.519.257l-1.087.444c-.186.08-.368.16-.554.231l-.577.182-1.171.364c-.4.111-.812.173-1.224.266l-.621.124c-.1.022-.208.049-.31.062l-.319.035a20.107,20.107,0,0,1-2.6.173H68.706l-1.331-.137c-.226-.027-.444-.035-.683-.075l-.679-.142c-.444-.1-.914-.173-1.366-.288a22.788,22.788,0,0,1-2.692-.936l-.665-.284c-.115-.049-.226-.093-.337-.146l-.319-.173-1.291-.705c-.421-.253-.825-.55-1.237-.825a4.445,4.445,0,0,1-.616-.444l-.581-.483a22.877,22.877,0,0,1-2.218-2.089l-.985-1.2-.248-.3-.222-.324-.444-.652-.444-.652-.381-.7-.377-.7-.191-.35-.155-.368-.625-1.477-.479-1.548A20.344,20.344,0,0,1,50.8,46.986c.213-.5.444-.993.634-1.49L52.2,44.09l.2-.35.226-.328.444-.661.444-.652.506-.6.5-.608.248-.3.279-.275c.368-.364.732-.732,1.1-1.091a23.413,23.413,0,0,1,2.422-1.858l.63-.417c.2-.142.444-.244.652-.368.444-.231.887-.483,1.331-.7l1.362-.568.337-.142.346-.111.692-.213a21.657,21.657,0,0,1,2.772-.661c.466-.071.931-.1,1.393-.151l.687-.071h2.045c.444,0,.887.084,1.331.12a18.628,18.628,0,0,1,2.572.444l.315.062c.1.027.2.062.3.093l.608.191c.4.129.8.235,1.189.386l1.127.479.559.239c.177.089.35.191.528.284l1.016.546a3.788,3.788,0,0,1,.492.306l.475.324c.315.217.63.444.931.643l.847.705a20.3,20.3,0,0,1,4.879,6.085,19.4,19.4,0,0,1,1.956,5.562c.04.2.08.395.115.581a3.6,3.6,0,0,1,.089.554c.031.355.067.692.093,1s.067.6.075.86,0,.506,0,.719v.971A2.714,2.714,0,0,1,90.287,55.471Z" fill="#263238"/>
        <path id="Path_4437" data-name="Path 4437" d="M75.687,54.442a1.907,1.907,0,1,0,1.854-1.956A1.907,1.907,0,0,0,75.687,54.442Z" fill="#263238"/>
        <path id="Path_4438" data-name="Path 4438" d="M68.054,54.651a1.907,1.907,0,1,0,1.854-1.956,1.907,1.907,0,0,0-1.854,1.956Z" fill="#263238"/>
        <path id="Path_4439" data-name="Path 4439" d="M60.416,53.905A1.907,1.907,0,1,0,63,53.138,1.907,1.907,0,0,0,60.416,53.905Z" fill="#263238"/>
      </g>
      <g id="freepik--Diary--inject-144">
        <path id="Path_4440" data-name="Path 4440" d="M193.871,77.576l.514-1.162,1.229.541a2.951,2.951,0,1,0,2.386-5.4l-1.331-.634.514-1.162,1.331.634a4.222,4.222,0,0,1-3.411,7.722Z" fill="#e0e0e0"/>
        <path id="Path_4441" data-name="Path 4441" d="M193.871,77.576a2.114,2.114,0,0,1,.306.115l.821.333a4.727,4.727,0,0,0,1.331.364,4.2,4.2,0,0,0,1.818-.222,4.129,4.129,0,0,0,2.036-6.236,4.014,4.014,0,0,0-1.038-1.047,10.286,10.286,0,0,0-1.375-.714l-.656-.306.151-.058c-.173.39-.342.781-.51,1.158l-.058-.146.914.444a6.8,6.8,0,0,1,.887.444,3.056,3.056,0,0,1,1.242,3.34,3.02,3.02,0,0,1-3.517,2.169,4.736,4.736,0,0,1-1.051-.39l-.821-.377h.062q-.248.523-.4.838a2.8,2.8,0,0,1-.155.306,2.291,2.291,0,0,1,.106-.3l.364-.887v-.044h.044l.825.35a4.568,4.568,0,0,0,1.033.364,2.918,2.918,0,0,0,2.5-.741,2.87,2.87,0,0,0,.723-3.029,2.794,2.794,0,0,0-1.1-1.415,6.8,6.8,0,0,0-.86-.444L196.577,71l-.1-.044.044-.1.514-1.166.049-.106.106.049.652.31.719.337.355.182.337.213a4.408,4.408,0,0,1,1.1,1.109,4.3,4.3,0,0,1-4.023,6.719,4.648,4.648,0,0,1-1.37-.412l-.816-.39a1.721,1.721,0,0,1-.266-.124Z" fill="#263238"/>
        <path id="Path_4442" data-name="Path 4442" d="M204.05,52.615l-69.5-25.36a.994.994,0,0,0-1.268.572L116.091,71.921a.993.993,0,0,0,.6,1.3l33.6,11.767.12.053,32.865,16.681a.993.993,0,0,0,1.366-.5l19.989-47.288a.993.993,0,0,0-.577-1.322Z" fill="#4797d9"/>
        <path id="Path_4443" data-name="Path 4443" d="M201.562,51.652l1.774,5.367,1.331-3.3a.887.887,0,0,0-.523-1.158Z" fill="#e0e0e0"/>
        <path id="Path_4444" data-name="Path 4444" d="M151.054,84.056c-18.912-13.337-32.643-11.044-32.643-11.044L135.894,26.58c14.814-2.218,33.166,12.161,33.166,12.161Z" fill="#fafafa"/>
        <path id="Path_4445" data-name="Path 4445" d="M151.054,84.056s.027-.075.084-.222.137-.359.248-.639c.222-.568.546-1.4.971-2.475l3.668-9.314c3.158-7.983,7.633-19.3,12.955-32.705l.035.12a76.574,76.574,0,0,0-6.963-4.644,72.551,72.551,0,0,0-7.85-4.054,48.407,48.407,0,0,0-8.728-2.914,29.969,29.969,0,0,0-4.679-.679,23.063,23.063,0,0,0-4.786.155h-.075l.089-.071L118.5,73.048l-.1-.129a29.569,29.569,0,0,1,7.642.266,46.759,46.759,0,0,1,6.688,1.539,57.133,57.133,0,0,1,10.2,4.3c1.375.679,2.524,1.415,3.548,2.014.5.31.989.572,1.4.856l1.122.758,1.535,1.042.528.364-.523-.337L148.978,82.7c-.683-.444-1.521-1.02-2.55-1.6s-2.173-1.331-3.548-1.991a57.378,57.378,0,0,0-10.2-4.249,47.246,47.246,0,0,0-6.653-1.512,29.432,29.432,0,0,0-7.589-.248h-.155l.053-.142c4.879-12.942,10.919-29.033,17.466-46.441v-.067h.142a23.254,23.254,0,0,1,4.834-.16,29.751,29.751,0,0,1,4.715.687,47.989,47.989,0,0,1,8.777,2.932,72.131,72.131,0,0,1,7.868,4.072,75.213,75.213,0,0,1,6.981,4.666l.062.049-.031.071L156.083,71.513l-3.712,9.265-.985,2.444-.253.625C151.085,83.989,151.054,84.056,151.054,84.056Z" fill="#263238"/>
        <path id="Path_4446" data-name="Path 4446" d="M186.021,98.484a8.844,8.844,0,0,0-6.484,1.366l3.5,2a1.171,1.171,0,0,0,1.637-.519Z" fill="#e0e0e0"/>
        <path id="Path_4447" data-name="Path 4447" d="M202.746,49.577s-12.512-12.21-33.685-10.835L151.054,84.056s26.318,9.239,32.222,15.3Z" fill="#fafafa"/>
        <path id="Path_4448" data-name="Path 4448" d="M202.746,49.577l-.084.235-.266.7c-.24.621-.594,1.535-1.051,2.723-.927,2.386-2.275,5.868-3.992,10.259-3.428,8.8-8.285,21.262-13.989,35.9l-.058.151-.115-.115a19.072,19.072,0,0,0-3.082-2.395c-1.113-.714-2.28-1.379-3.468-2.022-2.386-1.282-4.879-2.466-7.46-3.619-5.145-2.293-10.574-4.435-16.18-6.506l-2-.718-.111-.04.044-.111c6.746-16.96,12.973-32.608,18.029-45.31l.022-.058h.058a49.23,49.23,0,0,1,14.876,1.3,47.683,47.683,0,0,1,10.689,4.04,42.545,42.545,0,0,1,6.165,3.916c.67.51,1.158.931,1.481,1.215l.364.333.115.12-.129-.111-.368-.319c-.333-.279-.825-.692-1.495-1.193a43.673,43.673,0,0,0-6.183-3.863A47.621,47.621,0,0,0,183.888,40.1a49.275,49.275,0,0,0-14.827-1.264l.08-.058L151.16,84.1l-.067-.151,2,.718c5.611,2.062,11.039,4.218,16.193,6.515,2.572,1.158,5.078,2.346,7.473,3.632,1.193.648,2.36,1.331,3.477,2.036a19.431,19.431,0,0,1,3.1,2.426l-.173.035L197.22,63.5l4.045-10.259,1.082-2.728c.124-.306.217-.541.284-.7A1.932,1.932,0,0,1,202.746,49.577Z" fill="#263238"/>
        <path id="Path_4449" data-name="Path 4449" d="M192.044,83.883l-1.495-.727,7.926-17.9,1.277.4Z" fill="#e0e0e0"/>
        <path id="Path_4450" data-name="Path 4450" d="M202.808,85.542l-1.2.417-.444-1.273a2.954,2.954,0,0,0-5.575,1.943l2.275,6.511-1.2.444L194.39,87.05a4.226,4.226,0,1,1,7.983-2.776Z" fill="#e0e0e0"/>
        <path id="Path_4451" data-name="Path 4451" d="M202.808,85.542a1.06,1.06,0,0,1-.044-.106l-.115-.3c-.106-.262-.226-.639-.444-1.118a4.145,4.145,0,0,0-7.722,3c.217.612.444,1.242.661,1.881q.665,1.916,1.379,3.956l.24.683-.146-.071,1.2-.417-.071.146-1.907-5.5c-.146-.444-.306-.843-.444-1.286a2.962,2.962,0,0,1-.035-1.331,3.029,3.029,0,0,1,5.894-.235l.368,1.1-.049-.022.887-.288a2.414,2.414,0,0,1,.315-.093,2.574,2.574,0,0,1-.284.115l-.887.337h-.035V85.95c-.111-.31-.24-.674-.395-1.087a3.043,3.043,0,0,0-.758-1.264,2.865,2.865,0,0,0-4.821,1.526,2.834,2.834,0,0,0,.04,1.233c.115.4.288.834.444,1.264l1.925,5.5.04.106-.111.04-1.2.417-.111.04-.035-.111-.24-.683q-.714-2.036-1.379-3.961c-.217-.639-.444-1.264-.652-1.881a4.382,4.382,0,0,1-.2-1.934,4.286,4.286,0,0,1,7.1-2.737,4.165,4.165,0,0,1,1.118,1.566c.2.492.306.887.395,1.162.035.12.067.217.093.3A.354.354,0,0,1,202.808,85.542Z" fill="#263238"/>
        <rect id="Rectangle_682" data-name="Rectangle 682" width="11.381" height="7.3" rx="1.22" transform="translate(194.271 91.162) rotate(-19.2)" fill="#4797d9"/>
        <g id="Group_104" data-name="Group 104" opacity="0.5">
          <path id="Path_4452" data-name="Path 4452" d="M201.429,91.52a.949.949,0,1,0-.843,1.26l.466,1.331.492-.169-.47-1.331A.954.954,0,0,0,201.429,91.52Z"/>
        </g>
        <path id="Path_4453" data-name="Path 4453" d="M197.016,97.2c-.027,0-.444-1.135-.94-2.555s-.887-2.572-.852-2.581.444,1.131.94,2.55S197.038,97.188,197.016,97.2Z" fill="#fafafa"/>
        <path id="Path_4454" data-name="Path 4454" d="M200.227,93.228a.324.324,0,0,1-.124,0,1.122,1.122,0,0,1-.315-.155,1.34,1.34,0,0,1,.062-2.262.333.333,0,0,1,.12-.049,2.932,2.932,0,0,0-.342.31,1.331,1.331,0,0,0,.2,1.947A2.972,2.972,0,0,0,200.227,93.228Z" fill="#fafafa"/>
        <path id="Path_4455" data-name="Path 4455" d="M162.04,46.8a1.175,1.175,0,0,1-.244-.146l-.665-.444c-.288-.2-.639-.444-1.056-.719s-.887-.6-1.415-.931c-1.051-.683-2.337-1.446-3.788-2.253s-3.082-1.614-4.826-2.4-3.455-1.428-5.016-1.983-3-.976-4.209-1.3c-.6-.177-1.158-.3-1.637-.444s-.887-.222-1.246-.3l-.785-.186a1.375,1.375,0,0,1-.271-.08,1.2,1.2,0,0,1,.279.035l.794.142c.346.062.772.146,1.255.262s1.047.231,1.65.395c1.22.306,2.661.732,4.236,1.26s3.286,1.193,5.043,1.969,3.384,1.619,4.839,2.422,2.728,1.6,3.77,2.3c.532.342.989.674,1.4.962s.754.541,1.033.754l.639.492A1.5,1.5,0,0,1,162.04,46.8Z" fill="#263238"/>
        <path id="Path_4456" data-name="Path 4456" d="M155.205,48.379a.972.972,0,0,1-.244-.129c-.151-.089-.381-.217-.679-.377a23.369,23.369,0,0,0-2.595-1.2c-1.122-.444-2.493-.887-3.992-1.424-.758-.266-1.548-.528-2.377-.834a3.788,3.788,0,0,1-1.175-.683,2,2,0,0,1-.679-1.246,1.436,1.436,0,0,1,0-.191l.169.1a2.989,2.989,0,0,1-2.661.058,2,2,0,0,1-.976-.887.887.887,0,0,1-.053-.679.767.767,0,0,1,.51-.444.528.528,0,0,1,.63.217.6.6,0,0,1-.053.643,1.943,1.943,0,0,1-.927.652,3.606,3.606,0,0,1-1.947.319,1.96,1.96,0,0,1-1.375-.86,1.357,1.357,0,0,1-.111-1.215,1.158,1.158,0,0,1,.488-.6.657.657,0,0,1,.257-.093,1.335,1.335,0,0,0-.231.133,1.131,1.131,0,0,0-.444.59,1.273,1.273,0,0,0,.133,1.118,1.867,1.867,0,0,0,1.268.781,3.455,3.455,0,0,0,1.849-.337,1.774,1.774,0,0,0,.829-.585.39.39,0,0,0,.044-.444.324.324,0,0,0-.395-.12.559.559,0,0,0-.368.315.692.692,0,0,0,.053.51,1.81,1.81,0,0,0,.887.776,2.759,2.759,0,0,0,2.466-.058l.169-.089v.2a1.045,1.045,0,0,0,0,.164,1.774,1.774,0,0,0,.6,1.1,3.7,3.7,0,0,0,1.109.643c.807.3,1.61.572,2.364.838,1.508.537,2.874,1.007,3.992,1.477a19.918,19.918,0,0,1,2.577,1.268c.293.173.514.315.661.421a1.441,1.441,0,0,1,.222.169Z" fill="#263238"/>
        <path id="Path_4457" data-name="Path 4457" d="M158.962,53.076a.94.94,0,0,1-.24-.075l-.67-.257-2.457-.98-8.063-3.322-8.045-3.38a8.932,8.932,0,0,0-2.515-.714,9.247,9.247,0,0,0-.962,0,.772.772,0,0,1,.244-.049,3.925,3.925,0,0,1,.723,0,8.462,8.462,0,0,1,2.572.652c2.076.829,4.923,2.009,8.072,3.318l8.054,3.344,2.426,1.051.656.3a.949.949,0,0,1,.2.115Z" fill="#263238"/>
        <path id="Path_4458" data-name="Path 4458" d="M156.394,55.529a3.007,3.007,0,0,0-.856-.661,4.364,4.364,0,0,0-1.22-.373c-.492-.089-1.06-.106-1.7-.169a4.781,4.781,0,0,1-2.022-.559,4.351,4.351,0,0,1-.887-.785,1.446,1.446,0,0,0-.989-.528,9.479,9.479,0,0,0-1.26.129,1.889,1.889,0,0,1-.7-.049,1.7,1.7,0,0,1-.63-.355c-.364-.315-.634-.687-.967-1.016a13.621,13.621,0,0,0-1.042-.971,12.1,12.1,0,0,0-4.723-2.532,7.194,7.194,0,0,0-2.342-.16,2.062,2.062,0,0,1-1.1-.2.962.962,0,0,1-.559-.887.732.732,0,0,1,.652-.67.483.483,0,0,1,.444.2.577.577,0,0,1,.093.417.887.887,0,0,1-.386.625.945.945,0,0,1-.6.106,2.218,2.218,0,0,1-.776-.279.887.887,0,0,1-.24-.16,1.388,1.388,0,0,1,.262.115,2.249,2.249,0,0,0,.763.235.887.887,0,0,0,.537-.111.772.772,0,0,0,.315-.546.381.381,0,0,0-.377-.444.594.594,0,0,0-.5.537.816.816,0,0,0,.483.7,1.872,1.872,0,0,0,1.007.164,7.167,7.167,0,0,1,2.4.142,12.13,12.13,0,0,1,4.825,2.568A13.981,13.981,0,0,1,145.35,51c.337.337.621.719.949,1a1.437,1.437,0,0,0,.546.31,1.685,1.685,0,0,0,.617.049,8.9,8.9,0,0,1,1.3-.124,1.437,1.437,0,0,1,.634.2,2.537,2.537,0,0,1,.483.4,4.041,4.041,0,0,0,.834.763,4.719,4.719,0,0,0,1.938.563c.625.067,1.206.1,1.708.2a4.209,4.209,0,0,1,1.233.444,2.346,2.346,0,0,1,.652.506,1.516,1.516,0,0,1,.129.173C156.385,55.506,156.4,55.529,156.394,55.529Z" fill="#263238"/>
        <path id="Path_4459" data-name="Path 4459" d="M154.678,58.545a.776.776,0,0,1-.217-.084l-.6-.284-2.218-1.051c-1.858-.887-4.435-2.08-7.34-3.3-1.45-.608-2.83-1.193-4.107-1.663a15.626,15.626,0,0,0-3.486-.887,6.241,6.241,0,0,1-1.366-.324,2.581,2.581,0,0,1-.887-.572,1.748,1.748,0,0,1-.377-.559.612.612,0,0,1-.062-.226,2.248,2.248,0,0,0,.5.719,2.621,2.621,0,0,0,.887.519,6.232,6.232,0,0,0,1.331.279,15.142,15.142,0,0,1,3.548.838c1.291.444,2.661,1.042,4.129,1.65,2.9,1.224,5.477,2.444,7.318,3.371.927.444,1.663.847,2.173,1.118.231.133.444.235.581.324a.962.962,0,0,1,.191.137Z" fill="#263238"/>
        <path id="Path_4460" data-name="Path 4460" d="M153.085,62.323a1.011,1.011,0,0,1-.217-.084l-.6-.284L150.052,60.9c-1.858-.887-4.435-2.08-7.34-3.3-1.45-.608-2.83-1.193-4.107-1.659a15.656,15.656,0,0,0-3.486-.887,6.249,6.249,0,0,1-1.366-.319,2.661,2.661,0,0,1-.887-.577,1.69,1.69,0,0,1-.377-.554.652.652,0,0,1-.062-.226,2.262,2.262,0,0,0,.5.714,2.5,2.5,0,0,0,.887.519,6.019,6.019,0,0,0,1.331.279,15.173,15.173,0,0,1,3.548.843c1.291.444,2.661,1.038,4.125,1.645,2.9,1.229,5.482,2.448,7.323,3.371.923.444,1.663.847,2.173,1.122l.581.319A1.267,1.267,0,0,1,153.085,62.323Z" fill="#263238"/>
        <path id="Path_4461" data-name="Path 4461" d="M139.576,32.031a.7.7,0,0,1,.151.04,1.02,1.02,0,0,1,.4.222.75.75,0,0,1,.182.856c-.027.075-.053.151-.084.222a1.252,1.252,0,0,1-1.628.807.111.111,0,0,1-.053-.035.155.155,0,0,1,0-.142s.31-.648.887-1.894l.027-.04a.12.12,0,0,1,.12-.035Zm.5,1.056a.727.727,0,0,0,.031-.395.528.528,0,0,0-.386-.377l-.133-.031-.767,1.69h.049a.887.887,0,0,0,.532-.035,1.26,1.26,0,0,0,.674-.852Z"/>
        <path id="Path_4462" data-name="Path 4462" d="M140.219,34.213a.351.351,0,0,1,.035-.1,1.126,1.126,0,0,1,.3-.386.443.443,0,0,1,.444-.115.568.568,0,0,1,.106.049.266.266,0,0,1,.1.333v.031a.475.475,0,0,1-.275.271.577.577,0,0,1-.4,0l-.071-.031a.262.262,0,0,0,0,.058.257.257,0,0,0,0,.137c0,.044.058.084.137.12l.106.022a.812.812,0,0,0,.248-.035.239.239,0,0,1,.129,0h.035a.093.093,0,0,1,.022.093.1.1,0,0,1-.022.035.444.444,0,0,1-.288.1.825.825,0,0,1-.341-.027.3.3,0,0,1-.093-.04C140.174,34.657,140.152,34.479,140.219,34.213Zm.639-.4a.643.643,0,0,0-.315.271.226.226,0,0,0,.067.031.319.319,0,0,0,.231,0,.27.27,0,0,0,.164-.164c.022-.071,0-.115-.035-.133a.235.235,0,0,0-.111,0Z"/>
        <path id="Path_4463" data-name="Path 4463" d="M141.27,34.532l.04-.1a1.1,1.1,0,0,1,.3-.39.47.47,0,0,1,.444-.115.315.315,0,0,1,.146.1.1.1,0,0,1,.093,0h.04c.031.027.035.071,0,.137a1.287,1.287,0,0,1-.071.173c-.115.266-.186.444-.208.5a.342.342,0,0,0,0,.133.137.137,0,0,0,.08.12.128.128,0,0,0,.058,0c.151,0,.333-.173.546-.506a.337.337,0,0,1-.093-.084.306.306,0,0,1-.049-.3.235.235,0,0,1,.071-.1.231.231,0,0,1,.244-.044.333.333,0,0,1,.124.08.2.2,0,0,1,.049.213.662.662,0,0,1-.044.115l.106-.027a.253.253,0,0,1,.133,0,.151.151,0,0,1,.075.049.071.071,0,0,1,.027.062.2.2,0,0,1,0,.04,1.5,1.5,0,0,0-.217.412.767.767,0,0,0-.044.24c0,.089.027.137.08.155a.381.381,0,0,0,.164,0,.288.288,0,0,1,.151,0,.08.08,0,0,1,.04.031.075.075,0,0,1,0,.075c0,.053-.075.093-.164.129a.5.5,0,0,1-.3,0h-.035a.31.31,0,0,1-.177-.262.745.745,0,0,1,.049-.35.118.118,0,0,1,.035-.1c.04-.1.075-.173.1-.217a.28.28,0,0,1-.106,0l-.049.084c-.279.444-.563.639-.856.546a.3.3,0,0,1-.208-.271l-.058.031a.444.444,0,0,1-.337.044.288.288,0,0,1-.146-.1.528.528,0,0,1-.022-.5Zm.763-.226a1.308,1.308,0,0,0,.067-.137.244.244,0,0,0-.062-.04h-.058a.444.444,0,0,0-.3.177.927.927,0,0,0-.2.346.133.133,0,0,0,0,.053c-.022.1,0,.151.04.169a.2.2,0,0,0,.111,0,.714.714,0,0,0,.142-.062l.058-.08a2.785,2.785,0,0,0,.208-.426Zm.727-.031a.133.133,0,0,0,.067.142.788.788,0,0,0,.049-.106h0a.053.053,0,0,0-.04-.053h0a.058.058,0,0,0-.075.018Z"/>
        <path id="Path_4464" data-name="Path 4464" d="M145.621,33.982a.745.745,0,0,1,.146.04,1.131,1.131,0,0,1,.4.217.754.754,0,0,1,.177.86c-.022.075-.053.146-.08.217a1.331,1.331,0,0,1-.847.838,1.384,1.384,0,0,1-.781-.027.12.12,0,0,1-.053-.04.133.133,0,0,1,0-.137s.306-.652.887-1.894a.116.116,0,0,1,.022-.04A.111.111,0,0,1,145.621,33.982Zm.5,1.056a.683.683,0,0,0,.027-.395.523.523,0,0,0-.386-.373.786.786,0,0,0-.129-.031l-.789,1.685h.044a.887.887,0,0,0,.532-.04A1.237,1.237,0,0,0,146.122,35.038Z"/>
        <path id="Path_4465" data-name="Path 4465" d="M146.725,35.57l-.075.173c-.115.266-.182.444-.2.5a.342.342,0,0,0,0,.133.109.109,0,0,0,.08.12h.031a.359.359,0,0,0,.146-.027.248.248,0,0,1,.142,0,.071.071,0,0,1,.035.027.093.093,0,0,1,0,.089.262.262,0,0,1-.164.12.532.532,0,0,1-.31,0,.293.293,0,0,1-.173-.151.612.612,0,0,1,0-.444c.022-.062.075-.186.16-.364l.089-.182a.062.062,0,0,0,0-.027c.049-.093.1-.129.164-.106h.031Q146.761,35.455,146.725,35.57Zm-.04-.444a.093.093,0,0,1,.027-.044.1.1,0,0,1,.111-.027.146.146,0,0,1,.044.027.111.111,0,0,1-.111.186.181.181,0,0,1-.049-.031.093.093,0,0,1-.022-.1Z"/>
        <path id="Path_4466" data-name="Path 4466" d="M146.929,36.369a.6.6,0,0,1,.04-.1,1.074,1.074,0,0,1,.3-.386.444.444,0,0,1,.444-.115.333.333,0,0,1,.151.1.093.093,0,0,1,.089,0,.084.084,0,0,1,.04,0c.035,0,.04.071,0,.137a1.376,1.376,0,0,0-.071.173c-.12.266-.186.444-.208.5a.311.311,0,0,0,0,.129q0,.1.08.12a.12.12,0,0,0,.058,0c.151,0,.333-.173.541-.51a.382.382,0,0,1-.089-.08.31.31,0,0,1-.049-.3.24.24,0,0,1,.315-.146.271.271,0,0,1,.124.08.213.213,0,0,1,.049.213.429.429,0,0,1-.044.115l.106-.031a.31.31,0,0,1,.133,0,.186.186,0,0,1,.075.049c0,.027.031.049.027.062l-.027.04a1.615,1.615,0,0,0-.213.417.789.789,0,0,0-.049.239c0,.084.031.137.084.155a.412.412,0,0,0,.164,0,.342.342,0,0,1,.151,0,.08.08,0,0,1,.035.031.075.075,0,0,1,0,.075.244.244,0,0,1-.164.129.483.483,0,0,1-.306,0h-.035a.319.319,0,0,1-.177-.262.83.83,0,0,1,.08-.386.883.883,0,0,1,.035-.1,1.371,1.371,0,0,1,.1-.217.408.408,0,0,1-.106,0l-.049.08c-.279.444-.568.643-.856.55a.3.3,0,0,1-.208-.271l-.058.031a.444.444,0,0,1-.342.044.3.3,0,0,1-.142-.1.506.506,0,0,1-.022-.466Zm.763-.222a1.354,1.354,0,0,0,.062-.137.151.151,0,0,0-.058-.04h-.058a.417.417,0,0,0-.306.177.989.989,0,0,0-.2.346v.053c-.022.093,0,.151.044.169a.2.2,0,0,0,.111,0,.5.5,0,0,0,.137-.067.4.4,0,0,0,.062-.08,3.225,3.225,0,0,0,.208-.435Zm.727-.031a.133.133,0,0,0,.067.137.838.838,0,0,0,.049-.1h0a.052.052,0,0,0-.04-.053h0a.053.053,0,0,0-.075,0Z"/>
        <path id="Path_4467" data-name="Path 4467" d="M149.59,36.369c.062.022.08.071.058.142a.779.779,0,0,1-.04.093,3.579,3.579,0,0,0-.2.444c-.067.2-.049.328.053.364a.133.133,0,0,0,.071,0c.106-.031.231-.2.377-.492a1.987,1.987,0,0,0,.124-.257.062.062,0,0,0,0-.031h0a.106.106,0,0,1,.137-.062h.031a.12.12,0,0,1,.027.146v.031h0l-.488,1.011c.288-.1.444-.16.51-.182a.2.2,0,0,1,.124,0h.035a.089.089,0,0,1,0,.084.2.2,0,0,1-.124.106c-.12.053-.355.137-.7.262l-.217.444a.377.377,0,0,1-.24.2.319.319,0,0,1-.2,0,.355.355,0,0,1-.231-.444.342.342,0,0,1,.133-.191A.728.728,0,0,1,149,37.97l.444-.151.111-.244a.344.344,0,0,1-.293-.044c-.151-.106-.173-.315-.071-.634a2.368,2.368,0,0,1,.2-.444A.342.342,0,0,1,149.59,36.369Zm-.373,1.983.08-.169-.2.071a.239.239,0,0,0-.155.115.217.217,0,0,0,0,.053.089.089,0,0,0,.071.093.093.093,0,0,0,.049,0c.049,0,.1-.058.151-.169Z"/>
        <path id="Path_4468" data-name="Path 4468" d="M161.965,42.383a1.166,1.166,0,0,1-.2-.027,3.3,3.3,0,0,0-.59.027,1.4,1.4,0,0,1-.444,0,.7.7,0,0,1-.444-.293.648.648,0,0,1,0-.63,1.907,1.907,0,0,1,.4-.528l.075.169a10.857,10.857,0,0,0-2.626.514l-.3.1.16-.266.089-.142a10.076,10.076,0,0,1,1.774-2.169l.093.173c-.887.2-1.628.368-2.147.479a4.351,4.351,0,0,1-.829.137,4.164,4.164,0,0,1,.8-.257c.51-.137,1.246-.333,2.124-.554l.373-.093-.279.266a10.711,10.711,0,0,0-1.721,2.138l-.084.142-.137-.169a10.117,10.117,0,0,1,2.688-.5h.275l-.2.182c-.3.284-.554.656-.39.931a.847.847,0,0,0,.758.284,2.422,2.422,0,0,1,.6.027A.386.386,0,0,1,161.965,42.383Z" fill="#263238"/>
        <path id="Path_4469" data-name="Path 4469" d="M155.467,82.007c-.342.86.821,1.712,1.7,1.428a3.1,3.1,0,0,0,1.708-2.062,6.767,6.767,0,0,1,1.175-2.493,3.548,3.548,0,0,1,2.861-.887,12.578,12.578,0,0,1,2.98.807,42.817,42.817,0,0,0,8.374,2.009c2.053.279,4.338.346,5.979-.923a8.732,8.732,0,0,0,2.351-3.712c1.991-4.879,3.872-9.855,4.551-15.08a6.709,6.709,0,0,0-.355-3.907c-.834-1.645-2.719-2.408-4.435-3.043l-17.213,4.369Z" fill="#e0e0e0"/>
        <rect id="Rectangle_683" data-name="Rectangle 683" width="29.046" height="23.223" transform="matrix(0.251, -0.968, 0.968, 0.251, 160.498, 76.094)" fill="#fafafa"/>
        <path id="Path_4470" data-name="Path 4470" d="M182.983,81.931a.467.467,0,0,1,.031-.137c.031-.089.058-.222.1-.395.089-.35.217-.865.39-1.53.342-1.331.838-3.286,1.472-5.766l5.234-20.309.053.089-22.478-5.819h0l.1-.062c-2.705,10.409-5.225,20.078-7.314,28.115l-.049-.089,16.29,4.249,4.555,1.2,1.2.319.417.115-.4-.1-1.193-.3-4.546-1.158-16.353-4.209h-.067v-.067L167.7,47.958v-.08h.08l22.473,5.841h.071v.071c-2.187,8.36-4.023,15.395-5.322,20.34-.648,2.462-1.158,4.4-1.512,5.735-.173.656-.306,1.166-.4,1.512l-.106.386A.526.526,0,0,1,182.983,81.931Z" fill="#263238"/>
        <rect id="Rectangle_684" data-name="Rectangle 684" width="27.052" height="20.334" transform="translate(162.088 75.054) rotate(-75.548)" fill="#455a64"/>
        <path id="Path_4471" data-name="Path 4471" d="M168.968,49.319l9.842,12.3-9.11,3.672,3.091,4.9L162.182,75.46Z" fill="#455a64"/>
        <path id="Path_4472" data-name="Path 4472" d="M178.215,70.076a2.124,2.124,0,1,1,2.59-1.521,2.124,2.124,0,0,1-2.59,1.521Z" fill="#455a64"/>
        <g id="Group_105" data-name="Group 105" opacity="0.3">
          <path id="Path_4473" data-name="Path 4473" d="M168.968,49.319l9.842,12.3-9.11,3.672,3.091,4.9L162.182,75.46Z"/>
        </g>
        <g id="Group_106" data-name="Group 106" opacity="0.3">
          <path id="Path_4474" data-name="Path 4474" d="M178.215,70.076a2.124,2.124,0,1,1,2.59-1.521,2.124,2.124,0,0,1-2.59,1.521Z"/>
        </g>
        <path id="Path_4475" data-name="Path 4475" d="M170.422,38.71s.514.115.089,1.508S154.544,82.8,154.544,82.8l1.064-.86.887,1.8S170,48.1,172.6,40.272A1.832,1.832,0,0,0,170.156,38a5.411,5.411,0,0,0-1.127.679Z" fill="#4797d9"/>
        <path id="Path_4476" data-name="Path 4476" d="M194.648,54.109a1.5,1.5,0,0,1-.226-.089l-.63-.3c-.546-.253-1.331-.621-2.333-1.042-1.983-.847-4.777-1.9-7.837-3.1-1.535-.608-2.989-1.2-4.333-1.677-.67-.24-1.291-.506-1.9-.683a6.653,6.653,0,0,1-1.641-.7,3.85,3.85,0,0,0-1.3-.581,2.612,2.612,0,0,0-1.069.04,3.819,3.819,0,0,0-.847.368.723.723,0,0,1,.191-.155,2.368,2.368,0,0,1,.634-.3,2.524,2.524,0,0,1,1.113-.08,3.757,3.757,0,0,1,1.362.563,6.706,6.706,0,0,0,1.614.656c.612.169,1.242.444,1.916.665,1.357.47,2.812,1.056,4.346,1.659,3.06,1.215,5.846,2.3,7.819,3.189.985.444,1.774.829,2.306,1.109q.408.213.612.333a.842.842,0,0,1,.2.12Z" fill="#263238"/>
        <path id="Path_4477" data-name="Path 4477" d="M197.2,52.863a6.5,6.5,0,0,1-1.007-.483c-.612-.315-1.464-.741-2.422-1.171s-1.841-.781-2.484-1.029a6.612,6.612,0,0,1-1.033-.444,4.812,4.812,0,0,1,1.087.275,24.939,24.939,0,0,1,4.932,2.218A4.563,4.563,0,0,1,197.2,52.863Z" fill="#263238"/>
        <path id="Path_4478" data-name="Path 4478" d="M179.311,88.438a1.2,1.2,0,0,1-.266,0,5.034,5.034,0,0,1-.758-.115,6.3,6.3,0,0,1-2.524-1.224,6.516,6.516,0,0,1-1.331-1.441c-.2-.3-.355-.625-.568-.909a.918.918,0,0,0-.852-.479c-.342.053-.612.373-.954.621a1.113,1.113,0,0,1-.625.253.852.852,0,0,1-.648-.279,5.428,5.428,0,0,1-.634-1.162,1.109,1.109,0,0,0-.887-.732c-.914,0-1.628,1.042-2.7.887a2.053,2.053,0,0,1-1.175-.776,6.726,6.726,0,0,0-.887-.918,2.377,2.377,0,0,0-2.151-.31,2.32,2.32,0,0,0-1.419,1.193l-.058.12-.071-.1a4.262,4.262,0,0,1-.776-2.218,4.347,4.347,0,0,1,0-.634.759.759,0,0,1,.044-.213,5.785,5.785,0,0,0,0,.838,4.342,4.342,0,0,0,.816,2.142h-.129a2.457,2.457,0,0,1,1.5-1.308,2.559,2.559,0,0,1,2.337.315,6.543,6.543,0,0,1,.914.94,1.9,1.9,0,0,0,1.051.7,2.009,2.009,0,0,0,1.264-.373,2.936,2.936,0,0,1,1.41-.537,1.091,1.091,0,0,1,.679.284,2,2,0,0,1,.408.572,5.362,5.362,0,0,0,.594,1.113.612.612,0,0,0,.475.208.887.887,0,0,0,.506-.2c.315-.217.594-.577,1.051-.652a.887.887,0,0,1,.625.142,1.725,1.725,0,0,1,.421.421c.226.315.381.643.563.927a6.3,6.3,0,0,0,1.264,1.419,6.489,6.489,0,0,0,2.444,1.264C178.947,88.4,179.315,88.411,179.311,88.438Z" fill="#263238"/>
        <path id="Path_4479" data-name="Path 4479" d="M179.492,91.2c-.027.058-3.668-1.4-8.134-3.247s-8.072-3.406-8.045-3.464,3.663,1.4,8.134,3.247S179.515,91.139,179.492,91.2Z" fill="#263238"/>
        <path id="Path_4480" data-name="Path 4480" d="M139.86,61.84c0,.027-.559-.337-1.464-.887a12.556,12.556,0,0,0-3.739-1.539c-.781-.164-1.535-.244-2.218-.342a16.292,16.292,0,0,1-1.823-.328,8.17,8.17,0,0,1-1.189-.395,1.57,1.57,0,0,1-.4-.213c0-.04.608.235,1.628.444.51.111,1.127.2,1.814.275s1.455.16,2.244.328a11.349,11.349,0,0,1,3.779,1.628c.444.279.794.528,1.033.705A1.557,1.557,0,0,1,139.86,61.84Z" fill="#263238"/>
        <path id="Path_4481" data-name="Path 4481" d="M145.812,70.453a1.1,1.1,0,0,1,.239-.067l.7-.169a25.415,25.415,0,0,0,2.524-.763c.523-.191,1.091-.417,1.685-.683a6.285,6.285,0,0,0,.887-.466,2.04,2.04,0,0,0,.71-.718.962.962,0,0,0-.027-.971,1.455,1.455,0,0,0-.887-.585,3.7,3.7,0,0,0-2.333.444,5.034,5.034,0,0,1-1.073.3h-.1l-.027-.093c-.231-.816,0-1.606-.186-2.28a1.331,1.331,0,0,0-.55-.812.887.887,0,0,0-.887,0,1.97,1.97,0,0,0-.843,1.539,10.966,10.966,0,0,0-.133,1.637,11.631,11.631,0,0,0,.222,2.355c.106.55.191.847.177.852a.887.887,0,0,1-.084-.208c-.049-.142-.111-.35-.177-.625a10.537,10.537,0,0,1-.3-2.373,11.266,11.266,0,0,1,.111-1.668,3.442,3.442,0,0,1,.244-.918,1.628,1.628,0,0,1,.661-.754,1.1,1.1,0,0,1,1.1,0,1.548,1.548,0,0,1,.652.936c.217.763-.022,1.552.2,2.275l-.124-.08a4.959,4.959,0,0,0,1.025-.288,11.289,11.289,0,0,1,1.2-.412,2.368,2.368,0,0,1,1.268,0,1.681,1.681,0,0,1,1.025.687,1.189,1.189,0,0,1,.031,1.189,2.258,2.258,0,0,1-.789.794,6,6,0,0,1-.923.444c-.6.266-1.175.483-1.708.661a20.249,20.249,0,0,1-2.555.7c-.306.067-.546.106-.71.129A.958.958,0,0,1,145.812,70.453Z" fill="#263238"/>
        <path id="Path_4482" data-name="Path 4482" d="M142.317,66.869a4.679,4.679,0,0,0-1.6-1.424,10.091,10.091,0,0,0-2.2-.825c-.856-.231-1.814-.444-2.807-.75-1.987-.563-3.752-1.18-5.016-1.663-.63-.239-1.135-.444-1.486-.6a2.967,2.967,0,0,1-.528-.257,2.821,2.821,0,0,1,.563.173l1.508.528c1.273.444,3.043,1.033,5.025,1.6.989.288,1.938.523,2.8.767a9.314,9.314,0,0,1,2.218.887,3.992,3.992,0,0,1,1.22,1.056,2.169,2.169,0,0,1,.235.373C142.3,66.821,142.325,66.869,142.317,66.869Z" fill="#263238"/>
        <path id="Path_4483" data-name="Path 4483" d="M144.144,71.234a.927.927,0,0,1-.213-.075l-.581-.244-2.129-.949c-.887-.4-1.96-.887-3.158-1.393a21.822,21.822,0,0,0-3.992-1.273,14.694,14.694,0,0,0-2.16-.257,3.255,3.255,0,0,1-1.983-.585,1.774,1.774,0,0,1-.559-.829,1.056,1.056,0,0,1,.146-.94,1.1,1.1,0,0,1,.794-.395.723.723,0,0,1,.719,1.1,1.131,1.131,0,0,1-.47.444,1.481,1.481,0,0,1-1.016.08,3.424,3.424,0,0,1-.6-.213c-.133-.062-.2-.1-.2-.106a7.7,7.7,0,0,0,.816.231,1.419,1.419,0,0,0,.936-.1,1.064,1.064,0,0,0,.4-.412.625.625,0,0,0,0-.6c-.213-.39-.931-.328-1.242.071a.887.887,0,0,0-.1.767,1.512,1.512,0,0,0,.5.723,3.158,3.158,0,0,0,1.863.528,13.554,13.554,0,0,1,2.191.253,21.068,21.068,0,0,1,4.04,1.3c1.2.51,2.253,1.02,3.14,1.441l2.1,1.011.568.288a.754.754,0,0,1,.191.129Z" fill="#263238"/>
        <path id="Path_4484" data-name="Path 4484" d="M146.743,76.228c-.022.027-.5-.39-1.331-1a24.54,24.54,0,0,0-7.034-3.7c-.971-.328-1.583-.488-1.574-.523a1.566,1.566,0,0,1,.444.067c.279.053.687.155,1.18.3a20.349,20.349,0,0,1,3.721,1.517,20.647,20.647,0,0,1,3.357,2.218c.4.328.71.6.918.807S146.756,76.214,146.743,76.228Z" fill="#263238"/>
      </g>
      <g id="freepik--Character--inject-144">
        <path id="Path_4485" data-name="Path 4485" d="M137.247,88.411c-.541-1.5-1.331-2.994-1.273-4.595.062-2,1.419-3.734,1.805-5.7.444-2.2-.381-4.435-.825-6.613a54.156,54.156,0,0,1-.585-9.713,23.232,23.232,0,0,0-1.739-9.514c-1.388-2.936-4.089-5.433-7.318-5.766L102.506,63.157c-.519,6.036-4.32,11.851-2.967,17.741.271,1.184.745,2.315.954,3.513a16.25,16.25,0,0,1,.058,3.8q-.173,2.705-.35,5.415a3.979,3.979,0,0,0,.35,2.391,3.851,3.851,0,0,0,2.333,1.357,86.3,86.3,0,0,0,29.286,3.3,6.764,6.764,0,0,0,4.253-1.3,5.78,5.78,0,0,0,1.53-3.451,15.523,15.523,0,0,0-.705-7.522Z" fill="#263238"/>
        <path id="Path_4486" data-name="Path 4486" d="M102.329,60.4c1.211-5.145,2.453-10.5,6.71-13.62,3.8-2.785,8.045-3.455,12.738-3.1a16.766,16.766,0,0,1,6.875,2.532c2.71,1.654,3.779,4.879,5.021,7.793,2.484,5.863,1.889,13.674,0,15.789L109.119,81.767c-4.2-2.364-7.025-3.495-7.983-8.214C100.462,70.329,101.566,63.6,102.329,60.4Z" fill="#263238"/>
        <path id="Path_4487" data-name="Path 4487" d="M109.407,51.568l15.337-3.992c4.919-.554,8.232,5.482,8.573,10.418.386,5.482.639,12.192,0,16.29-1.251,8.241-7.54,9.314-7.54,9.314s0,.124-.049,2.572l.044,5.5c-2.031,6.7-8.791,5.9-17.244,2.422l-1.69-39.575a2.892,2.892,0,0,1,2.568-2.954Z" fill="#ffbe9d"/>
        <path id="Path_4488" data-name="Path 4488" d="M130.182,65.122a1.051,1.051,0,0,1-1.011,1.073,1.011,1.011,0,0,1-1.091-.945,1.051,1.051,0,0,1,1.007-1.073,1.007,1.007,0,0,1,1.1.945Z" fill="#263238"/>
        <path id="Path_4489" data-name="Path 4489" d="M131.889,62.487c-.133.137-.936-.444-2.071-.444s-1.965.581-2.089.444c-.062-.062.071-.31.444-.577a2.932,2.932,0,0,1,1.672-.528,2.812,2.812,0,0,1,1.65.519C131.832,62.177,131.952,62.425,131.889,62.487Z" fill="#263238"/>
        <path id="Path_4490" data-name="Path 4490" d="M120.167,65.122a1.06,1.06,0,0,1-1.011,1.073,1.016,1.016,0,0,1-1.1-.945,1.06,1.06,0,0,1,1.011-1.073,1.007,1.007,0,0,1,1.1.945Z" fill="#263238"/>
        <path id="Path_4491" data-name="Path 4491" d="M120.722,62.35c-.129.137-.931-.444-2.067-.444s-1.965.585-2.089.444c-.062-.062.071-.31.444-.577a2.878,2.878,0,0,1,1.672-.528,2.79,2.79,0,0,1,1.65.519C120.668,62.04,120.788,62.288,120.722,62.35Z" fill="#263238"/>
        <path id="Path_4492" data-name="Path 4492" d="M124.9,70.183a7.549,7.549,0,0,1,1.841-.346c.293-.031.563-.093.612-.288a1.49,1.49,0,0,0-.2-.86q-.412-1.051-.887-2.218a38.55,38.55,0,0,1-1.965-5.766,38.087,38.087,0,0,1,2.426,5.593c.293.772.572,1.508.838,2.218a1.672,1.672,0,0,1,.155,1.135.714.714,0,0,1-.475.444,2.152,2.152,0,0,1-.488.075A7.313,7.313,0,0,1,124.9,70.183Z" fill="#263238"/>
        <path id="Path_4493" data-name="Path 4493" d="M125.778,83.617a20.93,20.93,0,0,1-11.039-2.865s2.763,5.766,10.995,4.919Z" fill="#eb996e"/>
        <path id="Path_4494" data-name="Path 4494" d="M121.165,72.329a1.823,1.823,0,0,1,1.512-.838,2.364,2.364,0,0,1,2.169,1.056,1.464,1.464,0,0,1,.1,1.064c-.075.182,0,.093-.155.217a4.143,4.143,0,0,1-1.69,1.064,1.774,1.774,0,0,1-1.885-.679A1.805,1.805,0,0,1,121.165,72.329Z" fill="#eb996e"/>
        <path id="Path_4495" data-name="Path 4495" d="M121.36,71.034c.186,0,.2,1.22,1.268,2.08s2.377.71,2.391.887c0,.075-.293.244-.847.266a3.1,3.1,0,0,1-1.991-.665,2.661,2.661,0,0,1-.985-1.747C121.143,71.336,121.276,71.025,121.36,71.034Z" fill="#263238"/>
        <path id="Path_4496" data-name="Path 4496" d="M121.289,58.545c-.093.315-1.233.244-2.555.488s-2.373.679-2.564.412c-.089-.124.08-.444.492-.754a4.315,4.315,0,0,1,1.872-.794,4.373,4.373,0,0,1,2.031.106C121.081,58.168,121.325,58.394,121.289,58.545Z" fill="#263238"/>
        <path id="Path_4497" data-name="Path 4497" d="M131.894,59.875c-.266.213-1.078-.2-2.111-.4s-1.943-.169-2.1-.47c-.067-.146.12-.377.546-.55a3.411,3.411,0,0,1,3.389.7C131.938,59.467,132.014,59.751,131.894,59.875Z" fill="#263238"/>
        <path id="Path_4498" data-name="Path 4498" d="M124.563,46.685a.376.376,0,0,0,.031.182h-.027C124.563,46.814,124.563,46.751,124.563,46.685Z" fill="#263238"/>
        <path id="Path_4499" data-name="Path 4499" d="M107.363,85.3a5.549,5.549,0,0,0,3.575-4.151,18.418,18.418,0,0,0,.155-5.717,13.131,13.131,0,0,1,.523-5.673,25.708,25.708,0,0,0,1.57-3.548c.5-2.173-.625-4.511.035-6.653.444-1.486,1.7-2.568,2.705-3.761a13.749,13.749,0,0,0,3.189-8.711,17.9,17.9,0,0,0-7.509,1.9,11.807,11.807,0,0,0-5.322,5.509c-1.082,2.462-1.127,5.234-1.158,7.921q-.12,11.257-.235,22.509" fill="#263238"/>
        <path id="Path_4500" data-name="Path 4500" d="M118.637,48.73a6.116,6.116,0,0,0,3.579,2.559c1.428.461,2.932.665,4.355,1.153a11.611,11.611,0,0,1,7.615,9.917A11.243,11.243,0,0,0,119.8,46.969" fill="#263238"/>
        <path id="Path_4501" data-name="Path 4501" d="M104.378,56.744c.51-3.415,1.109-3.708.182-5.7s-4.324-3.912-6.52-3.739a4.62,4.62,0,0,0-4.2,4.3c-.031,2.382,1.991,4.324,4.16,5.322a5.109,5.109,0,0,0-1.512.923,1.716,1.716,0,0,0-.532,1.614,1.754,1.754,0,0,0,2.173.971,5.015,5.015,0,0,0,2.12-1.535,1.479,1.479,0,0,0,1.477,1.637,2.417,2.417,0,0,0,2-1.331,7.012,7.012,0,0,0,.656-2.43" fill="#263238"/>
        <path id="Path_4502" data-name="Path 4502" d="M101.952,61.206a1.742,1.742,0,0,1,0-.417,10.87,10.87,0,0,1,.08-1.127,17.435,17.435,0,0,1,2.386-7.016,8.33,8.33,0,0,1,.625-.94,1.517,1.517,0,0,1,.266-.319c.031,0-.293.514-.75,1.331a21.291,21.291,0,0,0-1.49,3.371,21.662,21.662,0,0,0-.887,3.584A12.814,12.814,0,0,1,101.952,61.206Z" fill="#4797d9"/>
        <path id="Path_4503" data-name="Path 4503" d="M103.535,55.413a5.836,5.836,0,0,1,.732.053,13.531,13.531,0,0,0,1.987,0,12.419,12.419,0,0,0,10.418-6.914,13.3,13.3,0,0,0,.763-1.836,5.766,5.766,0,0,1,.235-.692.959.959,0,0,1-.027.186c-.027.12-.058.306-.124.532a11,11,0,0,1-.7,1.885,12.215,12.215,0,0,1-10.551,7,11.585,11.585,0,0,1-2.009-.089c-.235-.027-.417-.071-.537-.093a.665.665,0,0,1-.186-.035Z" fill="#455a64"/>
        <path id="Path_4504" data-name="Path 4504" d="M116.3,55.777a2.789,2.789,0,0,1-.444.355,5.765,5.765,0,0,1-.559.373,8.361,8.361,0,0,1-.772.444,14.237,14.237,0,0,1-2.129.927,16.5,16.5,0,0,1-2.772.656,16.13,16.13,0,0,1-2.843.12,14.126,14.126,0,0,1-2.3-.31c-.324-.058-.612-.151-.865-.217a6.035,6.035,0,0,1-.639-.208,2.519,2.519,0,0,1-.528-.222c0-.044.781.244,2.067.488a15.407,15.407,0,0,0,2.275.257,15.511,15.511,0,0,0,7.655-1.668C115.617,56.225,116.273,55.737,116.3,55.777Z" fill="#455a64"/>
        <path id="Path_4505" data-name="Path 4505" d="M135.389,61.255c-.022,0-.022-.328-.075-.918a12.088,12.088,0,0,0-.444-2.453,9.81,9.81,0,0,0-1.677-3.26,10.959,10.959,0,0,0-3.548-2.763c-1.433-.736-2.883-1.277-4.182-1.81a24.886,24.886,0,0,1-3.371-1.61,11.781,11.781,0,0,1-1.193-.807c-.328-.266-.6-.51-.821-.714l-.444-.51c-.1-.12-.155-.186-.146-.191a1.1,1.1,0,0,1,.182.16l.483.475c.226.191.506.444.834.679a11.342,11.342,0,0,0,1.2.767,26.957,26.957,0,0,0,3.371,1.557c1.3.519,2.754,1.056,4.209,1.774a11.163,11.163,0,0,1,3.593,2.839,9.757,9.757,0,0,1,1.668,3.349,11.314,11.314,0,0,1,.4,2.493c0,.3,0,.528,0,.683A.993.993,0,0,1,135.389,61.255Z" fill="#455a64"/>
        <path id="Path_4506" data-name="Path 4506" d="M138.791,148.947l3.349,5.659-26.713,14.756.954-20.415,5.158-4.528Z" fill="#263238"/>
        <path id="Path_4507" data-name="Path 4507" d="M81.608,119.826s4.1-23.56,4.963-24.775A27.511,27.511,0,0,1,90.9,91.414l8.662,20.939-1.206,8.01Z" fill="#455a64"/>
        <path id="Path_4508" data-name="Path 4508" d="M106.392,85.75c-.692.084-12.068,3.1-15.483,5.664l7.11,28.851,2.249,26.168,24.008,1.7,15.834,3.025-1.375-3s.612,1.1.262-1.153-5.628-8.835-5.367-10.48,2.249-4.333,2.856-7.624a80.086,80.086,0,0,0,.617-10.01c.111-11.146-.328-27.361-.328-27.361l-10.689-3.992c-3.606,4.542-13.243,3.6-17.94-2.541Z" fill="#455a64"/>
        <path id="Path_4509" data-name="Path 4509" d="M136.6,91.5s6.129,2.949,7.323,7.376S149.2,119.9,149.2,119.9s-9.363.585-12.09-.985S136.6,91.5,136.6,91.5Z" fill="#455a64"/>
        <path id="Path_4510" data-name="Path 4510" d="M98.532,120.979a1.127,1.127,0,0,1-.031-.3c0-.217-.027-.5-.044-.843-.053-.732-.155-1.774-.342-3.1a90.97,90.97,0,0,0-2.133-10.028,65.835,65.835,0,0,0-3.349-9.678c-.3-.581-.532-1.131-.794-1.579s-.47-.847-.674-1.149l-.488-.687a1.566,1.566,0,0,1-.16-.253,1.734,1.734,0,0,1,.2.222c.133.173.31.39.528.665s.444.7.714,1.14.519.989.825,1.574a60.208,60.208,0,0,1,3.428,9.686,79.869,79.869,0,0,1,2.067,10.063c.169,1.3.244,2.368.271,3.1v.847a1.7,1.7,0,0,1-.013.315Z" fill="#263238"/>
        <path id="Path_4511" data-name="Path 4511" d="M97.574,117.218a2.968,2.968,0,0,1-.6.084c-.386.035-.945.071-1.641.093a36.811,36.811,0,0,1-5.415-.248A37.213,37.213,0,0,1,84.6,116.1c-.665-.186-1.2-.355-1.57-.483a2.852,2.852,0,0,1-.559-.222,3.314,3.314,0,0,1,.585.137c.373.1.914.244,1.588.408a43.7,43.7,0,0,0,10.715,1.291c.692,0,1.251,0,1.637-.022a3.36,3.36,0,0,1,.581.009Z" fill="#263238"/>
        <path id="Path_4512" data-name="Path 4512" d="M139.766,108.072c-.355-2.178-1.486-4.187-1.694-6.387a24.869,24.869,0,0,1,.444-5.109,19.768,19.768,0,0,0-3.349-13.195l-8.99,2.311c-1.158,1.774-.532,4.191.444,6.094s2.3,3.726,2.475,5.854c.191,2.262-.954,4.471-.834,6.737.129,2.5,1.743,4.635,2.776,6.914s1.331,5.384-.661,6.914a4.36,4.36,0,0,0,3.916-2.515c.027.758.049,1.517.071,2.275A9.456,9.456,0,0,0,139.766,108.072Z" fill="#263238"/>
        <path id="Path_4513" data-name="Path 4513" d="M94.186,102.209a47.268,47.268,0,0,1-4.7.51,46.766,46.766,0,0,1-4.723.275c0-.062,2.1-.288,4.7-.506S94.181,102.147,94.186,102.209Z" fill="#fff"/>
        <path id="Path_4514" data-name="Path 4514" d="M128.439,102.7c0,.062-7.318.421-16.348.8s-16.361.634-16.361.572,7.314-.444,16.348-.8S128.434,102.639,128.439,102.7Z" fill="#fff"/>
        <path id="Path_4515" data-name="Path 4515" d="M144.188,101.229c0,.071-1.26-.222-2.816-.359s-2.83-.08-2.834-.151a9.123,9.123,0,0,1,2.856-.08,9.314,9.314,0,0,1,2.794.59Z" fill="#fff"/>
        <path id="Path_4516" data-name="Path 4516" d="M103.526,189.383c-.887.155-25.724,5.482-25.724,5.482l-3.415-11.088,24.345-9.633Z" fill="#ffbe9d"/>
        <path id="Path_4517" data-name="Path 4517" d="M79.74,181.648s-3.992,9.7,2.768,12.3l-2.085,2.763L63.255,207.505a2.617,2.617,0,0,1-3.437-.483,2.528,2.528,0,0,1-.3-2.719c2.333-4.7,11-21.923,12.769-22.327L76.9,180.61a2.949,2.949,0,0,1,2.843,1.038Z" fill="#4797d9"/>
        <g id="Group_107" data-name="Group 107" opacity="0.6">
          <path id="Path_4518" data-name="Path 4518" d="M59.556,206.627l14.33-25.152-1.007.315c-1.113.24-1.4.847-1.938,1.579-1.592,2.169-4.905,7.833-11.452,20.845a2.546,2.546,0,0,0,.067,2.4Z" fill="#fff"/>
        </g>
        <g id="Group_108" data-name="Group 108" opacity="0.6">
          <path id="Path_4519" data-name="Path 4519" d="M77.731,183.324a1.539,1.539,0,0,1-1.774,1,1.477,1.477,0,0,1-1.007-1.774,1.616,1.616,0,0,1,1.9-1.051,1.543,1.543,0,0,1,.847,1.956" fill="#fff"/>
        </g>
        <path id="Path_4520" data-name="Path 4520" d="M68.2,197.983a7.8,7.8,0,0,1,2.493,1.5,8.9,8.9,0,0,1,1.37,2.564c.067,0,.155-.355.062-.936a4.058,4.058,0,0,0-2.989-3.14C68.564,197.845,68.2,197.921,68.2,197.983Z" fill="#263238"/>
        <path id="Path_4521" data-name="Path 4521" d="M65.561,200.662c-.067.142.94.661,1.672,1.774s.86,2.218,1.02,2.218a2.756,2.756,0,0,0-.568-2.524C66.83,200.875,65.583,200.52,65.561,200.662Z" fill="#263238"/>
        <path id="Path_4522" data-name="Path 4522" d="M71.282,193.574a25.934,25.934,0,0,1,2.768,2.568,27.813,27.813,0,0,1,1.916,3.255,5.523,5.523,0,0,0-1.495-3.593A5.843,5.843,0,0,0,71.282,193.574Z" fill="#263238"/>
        <path id="Path_4523" data-name="Path 4523" d="M76.849,191.4c-.124.111.834,1.246,1.428,2.927s.608,3.158.767,3.162.4-1.548-.257-3.349A5.065,5.065,0,0,0,76.849,191.4Z" fill="#263238"/>
        <path id="Path_4524" data-name="Path 4524" d="M78.627,195.277a2.129,2.129,0,0,0,.843-.408,6.462,6.462,0,0,0,1.827-1.8,2.874,2.874,0,0,0,.643-1.739,1.016,1.016,0,0,0-.736-.914,1.663,1.663,0,0,0-1.171.173,3.593,3.593,0,0,0-1.477,4.333,4.16,4.16,0,0,0,3.832,2.6,1.437,1.437,0,0,0,1.1-.5.993.993,0,0,0,0-1.175,3.575,3.575,0,0,0-1.512-1.051,7.234,7.234,0,0,0-2.493-.6,2.249,2.249,0,0,0-.936.062,11.964,11.964,0,0,1,3.269.887,3.291,3.291,0,0,1,1.3.949.532.532,0,0,1,0,.639,1,1,0,0,1-.741.288,3.717,3.717,0,0,1-3.3-2.3,3.1,3.1,0,0,1,1.2-3.695,1.246,1.246,0,0,1,.816-.155.55.55,0,0,1,.412.5,2.586,2.586,0,0,1-.519,1.481A10.025,10.025,0,0,1,78.627,195.277Z" fill="#263238"/>
        <path id="Path_4525" data-name="Path 4525" d="M86.114,120a128.786,128.786,0,0,0,1.02,14.388c.936,6.449,2.275,10.108,3.774,11.9a3.391,3.391,0,0,0,3.1,1.446l14.982-22.983-4.768-2.466-5.956,6.467.075-8.387Z" fill="#ffbe9d"/>
        <path id="Path_4526" data-name="Path 4526" d="M117.808,169.54c-.12.887-2.351,26.208-2.351,26.208H103.868l-2.036-26.1Z" fill="#ffbe9d"/>
        <path id="Path_4527" data-name="Path 4527" d="M103.141,190.15s9.239,6.555,13.7.887l1.171,2.75,5.251,19.586a2.63,2.63,0,0,1-1.477,3.145A2.541,2.541,0,0,1,119.1,216c-3.8-3.615-17.705-16.974-17.572-18.788l.058-4.808a2.444,2.444,0,0,1,1.552-2.253Z" fill="#4797d9"/>
        <g id="Group_109" data-name="Group 109" opacity="0.6">
          <path id="Path_4528" data-name="Path 4528" d="M121.338,216.646l-19.812-21.107v1.051a2.938,2.938,0,0,0,.94,2.32c1.6,2.16,6.036,6.994,16.557,17.089a2.532,2.532,0,0,0,2.311.648Z" fill="#fff"/>
        </g>
        <g id="Group_110" data-name="Group 110" opacity="0.6">
          <path id="Path_4529" data-name="Path 4529" d="M104.427,192.412a1.535,1.535,0,0,1,.444,2,1.477,1.477,0,0,1-1.983.443,1.614,1.614,0,0,1-.444-2.124,1.53,1.53,0,0,1,2.111-.231" fill="#fff"/>
        </g>
        <path id="Path_4530" data-name="Path 4530" d="M115.626,205.838c.142.067.692-1.233,2.164-1.938a9.14,9.14,0,0,1,2.852-.559c.022-.062-.293-.253-.887-.333a4.063,4.063,0,0,0-3.881,1.929C115.6,205.447,115.563,205.815,115.626,205.838Z" fill="#263238"/>
        <path id="Path_4531" data-name="Path 4531" d="M117.4,209.146c.12.111.914-.7,2.191-1.073s2.382-.169,2.422-.324a2.746,2.746,0,0,0-2.577-.2C117.99,208.006,117.275,209.084,117.4,209.146Z" fill="#263238"/>
        <path id="Path_4532" data-name="Path 4532" d="M112.321,201.593a25.335,25.335,0,0,1,3.269-1.885c1.938-.75,3.672-.71,3.677-.887s-1.805-.47-3.876.364A5.812,5.812,0,0,0,112.321,201.593Z" fill="#263238"/>
        <path id="Path_4533" data-name="Path 4533" d="M111.882,195.632c.067.146,1.433-.444,3.216-.5s3.2.35,3.247.2-1.357-.838-3.273-.741A5,5,0,0,0,111.882,195.632Z" fill="#263238"/>
        <path id="Path_4534" data-name="Path 4534" d="M116.113,195.078a2.187,2.187,0,0,0-.142-.931,6.511,6.511,0,0,0-1.184-2.275,2.865,2.865,0,0,0-1.472-1.127,1.011,1.011,0,0,0-1.087.444,1.659,1.659,0,0,0-.182,1.171,3.593,3.593,0,0,0,3.708,2.688,4.165,4.165,0,0,0,3.619-2.9,1.455,1.455,0,0,0-.155-1.193,1,1,0,0,0-1.127-.328,3.548,3.548,0,0,0-1.45,1.135,7.287,7.287,0,0,0-1.308,2.218,2.217,2.217,0,0,0-.217.914,11.211,11.211,0,0,1,1.81-2.861,3.309,3.309,0,0,1,1.291-.958.537.537,0,0,1,.616.173,1.011,1.011,0,0,1,.053.794,3.712,3.712,0,0,1-3.167,2.47,3.1,3.1,0,0,1-3.18-2.218,1.2,1.2,0,0,1,.093-.821.545.545,0,0,1,.6-.248,2.617,2.617,0,0,1,1.264.931A9.3,9.3,0,0,1,116.113,195.078Z" fill="#263238"/>
        <path id="Path_4535" data-name="Path 4535" d="M147.04,119.981s-1,21.622-2.617,25.028-3.739,5.189-5.358,4.808-16.5-7.744-18.854-15.262l4.861-5.047s8.941,5.446,10.272,5.4l1.774-16.011Z" fill="#ffbe9d"/>
        <path id="Path_4536" data-name="Path 4536" d="M140.862,140.33c-.04,0-.084-.475-.328-1.193a6.4,6.4,0,0,0-1.561-2.466,6.3,6.3,0,0,0-2.524-1.468c-.723-.222-1.2-.244-1.2-.288a.958.958,0,0,1,.337,0,5.134,5.134,0,0,1,.887.142,5.846,5.846,0,0,1,4.2,4.045,4.876,4.876,0,0,1,.173.887.887.887,0,0,1,.018.342Z" fill="#eb996e"/>
        <path id="Path_4537" data-name="Path 4537" d="M98.342,128.483a12.705,12.705,0,0,1-1.042,1.069c-.648.648-1.526,1.561-2.435,2.626s-1.672,2.08-2.218,2.825a11.471,11.471,0,0,1-.887,1.193,1.637,1.637,0,0,1,.177-.359c.129-.226.324-.541.577-.927a29.929,29.929,0,0,1,4.67-5.477c.337-.31.621-.554.825-.719S98.328,128.47,98.342,128.483Z" fill="#eb996e"/>
        <path id="Path_4538" data-name="Path 4538" d="M88.522,177.2s48.344-21.267,50.49-22.469,9.567-4.191,13.177-2.16a12.445,12.445,0,0,1,5.393,14.015c-1.916,6.227-10.644,16.055-13.656,17.852s-26.957.954-26.957.954l-22.983,6.852Z" fill="#263238"/>
        <path id="Path_4539" data-name="Path 4539" d="M151.24,173.771a2.9,2.9,0,0,1-.3.226c-.2.137-.5.359-.887.6a33.4,33.4,0,0,1-3.455,1.947,48.222,48.222,0,0,1-5.438,2.262c-2.089.736-4.435,1.419-6.9,2.058-4.954,1.26-9.469,2.249-12.68,3.189-1.61.444-2.9.887-3.783,1.166l-1.02.346a2.769,2.769,0,0,1-.364.111,1.924,1.924,0,0,1,.346-.151c.231-.093.563-.231,1.007-.39.887-.324,2.16-.758,3.765-1.237,3.207-.985,7.722-2,12.671-3.255,2.466-.643,4.8-1.331,6.892-2.04a50.368,50.368,0,0,0,5.433-2.218c1.5-.723,2.683-1.388,3.482-1.876.4-.235.7-.444.914-.568a1.927,1.927,0,0,1,.319-.173Z" fill="#455a64"/>
        <path id="Path_4540" data-name="Path 4540" d="M153.125,165.876a3.477,3.477,0,0,1,.12,1.069,10.2,10.2,0,0,1-1.237,5.016,3.388,3.388,0,0,1-.608.887A13.749,13.749,0,0,0,153.125,165.876Z" fill="#455a64"/>
        <path id="Path_4541" data-name="Path 4541" d="M141.758,153.493a1.06,1.06,0,0,1-.231.12l-.67.3-2.479,1.1c-2.085.936-4.932,2.293-8.059,3.828s-5.97,2.923-8.05,3.872c-1.042.475-1.889.847-2.479,1.1l-.679.279a1.261,1.261,0,0,1-.244.084.922.922,0,0,1,.226-.129l.661-.319,2.444-1.162c2.062-.98,4.879-2.386,8.019-3.925s5.992-2.874,8.094-3.774c1.051-.444,1.907-.8,2.506-1.029l.687-.257a1.507,1.507,0,0,1,.253-.08Z" fill="#455a64"/>
        <path id="Path_4542" data-name="Path 4542" d="M137.815,100.644a4.31,4.31,0,0,1,.155.745c.089.479.186,1.18.284,2.049a44.245,44.245,0,0,1-.621,13.62c-.177.856-.337,1.543-.47,2.018a5.282,5.282,0,0,1-.222.727,4.257,4.257,0,0,1,.133-.75c.106-.475.244-1.171.4-2.027a50.7,50.7,0,0,0,.621-13.572c-.08-.887-.151-1.57-.213-2.058A5.2,5.2,0,0,1,137.815,100.644Z" fill="#263238"/>
        <path id="Path_4543" data-name="Path 4543" d="M125.321,116.508l-5.681,12.937s-22.8,7-25.05,9.185H92.962l12.8-15s10.139-5.69,12.982-6.475,5.792-1.255,5.792-1.255Z" fill="#fff"/>
        <path id="Path_4544" data-name="Path 4544" d="M107.452,124.589s7.766-4.524,11.376-5.677a63.826,63.826,0,0,1,6.946-1.774l-5.633,12.773-14.871,3.282Z" fill="#4797d9"/>
        <path id="Path_4545" data-name="Path 4545" d="M114.583,124.833s-.608-1.175-.235-1.739,4.435-1.091,7-1.4,4.142.395,3.992,2.723a3.176,3.176,0,0,1,.865,2.422c-.138,1.45-.865,1.685-.865,1.685s.776,1.774,0,2.714-1.073.794-1.073.794a3.149,3.149,0,0,1-1.06,1.85,8.478,8.478,0,0,1-2.816,1.033l-4.808-9.842Z" fill="#ffbe9d"/>
        <path id="Path_4546" data-name="Path 4546" d="M123.711,124.589a5.957,5.957,0,0,1-1.184.2c-.736.089-1.774.186-2.887.253s-2.151.1-2.9.1a5.911,5.911,0,0,1-1.2-.053,6.893,6.893,0,0,1,1.193-.111l2.887-.164,2.883-.182a6.554,6.554,0,0,1,1.2-.035Z" fill="#eb996e"/>
        <path id="Path_4547" data-name="Path 4547" d="M123.485,128.177a19.891,19.891,0,0,1-3.065-.044,19.63,19.63,0,0,1-3.051-.279,20.992,20.992,0,0,1,3.065.049A20.692,20.692,0,0,1,123.485,128.177Z" fill="#eb996e"/>
        <path id="Path_4548" data-name="Path 4548" d="M123.3,131.127a7.447,7.447,0,0,1-4.564-.59c.022-.067,1.007.271,2.262.444S123.3,131.056,123.3,131.127Z" fill="#eb996e"/>
        <path id="Path_4549" data-name="Path 4549" d="M125.316,128.51a1.523,1.523,0,0,1,.182.364,4.591,4.591,0,0,1,.24,1.078,12.634,12.634,0,0,1,.044,1.637,5.091,5.091,0,0,1-.084.976,2.067,2.067,0,0,1-.506.949,4.533,4.533,0,0,1-1.721,1.064,7.1,7.1,0,0,1-1.6.4,4.731,4.731,0,0,1-1.1.022.963.963,0,0,1-.4-.084,9.381,9.381,0,0,0,1.481-.1,7.687,7.687,0,0,0,1.539-.444,4.462,4.462,0,0,0,1.628-1.02,1.81,1.81,0,0,0,.444-.847,5.1,5.1,0,0,0,.093-.931,15.139,15.139,0,0,0,0-1.61,8.52,8.52,0,0,0-.24-1.45Z" fill="#eb996e"/>
        <path id="Path_4550" data-name="Path 4550" d="M108.347,124.474a5.507,5.507,0,0,1,2.918-1.774c1.464-.111,4.79-.639,6.258,2.138s3.326,11.208,3.375,14.264-2.759,42.7-2.759,42.7H101.854l-1.49-9.491L90,176.716a11.5,11.5,0,0,1-4.537-8.773c-.4-6.112.368-13.687,1.712-15.683S108.347,124.474,108.347,124.474Z" fill="#263238"/>
        <path id="Path_4551" data-name="Path 4551" d="M120.7,142.13v.2l-.031.572c-.035.519-.08,1.264-.142,2.218-.129,1.951-.315,4.772-.55,8.3s-.5,7.784-.785,12.574-.6,10.121-.945,15.82v.1H102.143v-.093l-1.956-10.037h0a47.5,47.5,0,0,1-2.3-14.942,64.475,64.475,0,0,1,1.175-11.922c.625-3.309,1.3-5.908,1.8-7.677.24-.887.444-1.566.59-2.022.071-.226.12-.395.16-.523a1.534,1.534,0,0,1,.062-.173.593.593,0,0,1-.044.182l-.142.523c-.12.444-.324,1.144-.554,2.031-.47,1.774-1.127,4.378-1.73,7.686a65.093,65.093,0,0,0-1.127,11.9,47.567,47.567,0,0,0,2.32,14.871h0c.625,3.189,1.286,6.555,1.965,10.037l-.111-.093h15.9l-.115.106c.355-5.7.683-11.03.98-15.82s.554-9.039.829-12.574.475-6.347.621-8.294c.075-.962.133-1.708.177-2.218.022-.248.035-.444.049-.577S120.7,142.13,120.7,142.13Z" fill="#455a64"/>
        <path id="Path_4552" data-name="Path 4552" d="M115.5,110.729l-4.289.395,2.484,2.031a1.885,1.885,0,0,0,1.805-2.426Z" fill="#ffbe9d"/>
        <path id="Path_4553" data-name="Path 4553" d="M105.558,112.055l-4.826-1.912a.825.825,0,0,1-.444-1.078h0a.821.821,0,0,1,1.1-.444l6.076,2.661,9.686,4.253.954,1.273-1.61.337Z" fill="#263238"/>
        <path id="Path_4554" data-name="Path 4554" d="M104.227,122.283a2.927,2.927,0,0,1-.444-1.92,7.7,7.7,0,0,0-.031-2.284s-.537-1.747,0-2.43a2.138,2.138,0,0,0,.475-1.37s.058-1.774.554-1.925,5.171-2.249,5.8-2,5.668,4.67,5.668,4.67.5,1.331-.683,1.282l1.557,1.464-2.741,1.144-8.2,4.386A1.9,1.9,0,0,1,104.227,122.283Z" fill="#ffbe9d"/>
        <path id="Path_4555" data-name="Path 4555" d="M115.164,118.486a6.973,6.973,0,0,1-1.14-.151,24.872,24.872,0,0,0-5.508-.235,7.368,7.368,0,0,1-1.149.053,4.688,4.688,0,0,1,1.135-.213,17.378,17.378,0,0,1,2.785-.106,17.838,17.838,0,0,1,2.768.341A4.661,4.661,0,0,1,115.164,118.486Z" fill="#eb996e"/>
        <path id="Path_4556" data-name="Path 4556" d="M115.581,116.3a5.764,5.764,0,0,0-.976-.758,7.5,7.5,0,0,0-2.878-.723c-1.166-.106-2.244-.053-3.025-.1a4.609,4.609,0,0,1-1.251-.146,11.9,11.9,0,0,1,1.255,0,29.711,29.711,0,0,1,3.043.027,6.755,6.755,0,0,1,2.941.816,2.794,2.794,0,0,1,.71.608A.887.887,0,0,1,115.581,116.3Z" fill="#eb996e"/>
        <path id="Path_4557" data-name="Path 4557" d="M116.264,115.022a4.6,4.6,0,0,1-.843-.59c-.506-.39-1.189-.94-1.938-1.557s-1.415-1.184-1.894-1.606a4.741,4.741,0,0,1-.741-.719,4.537,4.537,0,0,1,.847.594c.506.386,1.189.936,1.938,1.552s1.415,1.189,1.889,1.61A4.59,4.59,0,0,1,116.264,115.022Z" fill="#eb996e"/>
        <path id="Path_4558" data-name="Path 4558" d="M106.525,123.09c0,.027-.208.106-.577.093a2.373,2.373,0,0,1-1.331-.475,2.413,2.413,0,0,1-.816-1.153c-.106-.35-.089-.577-.062-.577s.075.208.217.519a2.559,2.559,0,0,0,2,1.521,3.511,3.511,0,0,1,.563.071Z" fill="#eb996e"/>
        <path id="Path_4559" data-name="Path 4559" d="M94.128,138.245s-3.176,2.639-3.056,11.155-.568,11.132-.568,11.132h1.814l14.41-16.455a20.433,20.433,0,0,1-1.051-7.917c.182-2.994,2.661-11.669,2.661-11.669l-.887.115Z" fill="#4797d9"/>
        <path id="Path_4560" data-name="Path 4560" d="M93.232,138.378s-3.176,2.661-3.06,11.155-.563,11.132-.563,11.132h1.81l14.414-16.455a20.433,20.433,0,0,1-1.051-7.935c.182-2.994,2.661-11.669,2.661-11.669l-1.694-.962Z" fill="#ebebeb"/>
        <path id="Path_4561" data-name="Path 4561" d="M105.8,123.995v.1l-.08.284-.324,1.1c-.3.94-.679,2.324-1.118,4.049a46.448,46.448,0,0,0-1.087,6.16,24.242,24.242,0,0,0-.089,3.7c.035.319.067.643.1.967a6.672,6.672,0,0,0,.177.971l.12.483.155.475a3.837,3.837,0,0,0,.444.887l.067.084-.071.071-.94.945a127.388,127.388,0,0,0-9.784,11.23c-1.166,1.512-2.08,2.754-2.71,3.619-.3.421-.546.75-.723.993l-.191.257c-.044.058-.067.084-.071.08s0-.031.053-.093l.173-.271c.155-.235.381-.581.687-1.02.6-.887,1.5-2.138,2.661-3.663A116.859,116.859,0,0,1,103,144.1l.94-.945v.155a3.907,3.907,0,0,1-.475-.954l-.16-.492-.12-.5c-.08-.328-.12-.661-.177-.989s-.067-.661-.1-.985a24.075,24.075,0,0,1,.106-3.739,44.523,44.523,0,0,1,1.135-6.178c.444-1.725.865-3.1,1.193-4.036.151-.444.275-.816.364-1.082l.1-.279C105.779,124.021,105.793,123.99,105.8,123.995Z" fill="#263238"/>
        <path id="Path_4562" data-name="Path 4562" d="M105.886,144.383a2.661,2.661,0,0,1-.985-.444,3.355,3.355,0,0,1-.887-.661,2.616,2.616,0,0,1,.989.444C105.531,144.033,105.921,144.326,105.886,144.383Z" fill="#263238"/>
        <path id="Path_4563" data-name="Path 4563" d="M99.566,145.576a3.179,3.179,0,0,1-.124-.617c-.067-.4-.133-.985-.186-1.708a27.373,27.373,0,0,1,.182-5.664,27.8,27.8,0,0,1,1.331-5.509c.248-.679.47-1.224.639-1.592a3.55,3.55,0,0,1,.284-.563,3.158,3.158,0,0,1-.2.6c-.146.377-.342.927-.568,1.61a31.792,31.792,0,0,0-1.268,5.486,32.114,32.114,0,0,0-.248,5.624c.035.718.075,1.3.115,1.7a3.919,3.919,0,0,1,.044.63Z" fill="#263238"/>
        <path id="Path_4564" data-name="Path 4564" d="M97.659,146.024a1.672,1.672,0,0,1-.186-.443,8.769,8.769,0,0,1-.3-1.331,29.32,29.32,0,0,1-.138-4.484,16.854,16.854,0,0,1,.217-2.466,12.757,12.757,0,0,1,.5-1.965,11.477,11.477,0,0,1,.519-1.26,1.827,1.827,0,0,1,.253-.444c.035,0-.279.656-.616,1.747a14.334,14.334,0,0,0-.444,1.943,18.628,18.628,0,0,0-.2,2.439,36.859,36.859,0,0,0,.071,4.462C97.459,145.341,97.7,146.016,97.659,146.024Z" fill="#263238"/>
        <path id="Path_4565" data-name="Path 4565" d="M95.658,147.315a1.455,1.455,0,0,1,0-.377c0-.288.031-.634.053-1.042.053-.887.142-2.129.253-3.548l.04.093a1.823,1.823,0,0,1,.319-3.011l.04.208a1.486,1.486,0,0,1-.6-2.75l.142-.084-.035.16a1.122,1.122,0,0,1-.683.785.572.572,0,0,1-.373.044.788.788,0,0,0,.342-.115,1.051,1.051,0,0,0,.572-.741l.106.071a1.379,1.379,0,0,0-.6,1.224,1.331,1.331,0,0,0,1.153,1.189l.359.04-.319.169a1.637,1.637,0,0,0-.847,1.331,1.654,1.654,0,0,0,.563,1.331l.044.035v.044c-.124,1.428-.24,2.661-.333,3.548q-.075.6-.12,1.038A1.255,1.255,0,0,1,95.658,147.315Z" fill="#263238"/>
        <path id="Path_4566" data-name="Path 4566" d="M94.758,148.841a1.25,1.25,0,0,1-.155-.355,7.715,7.715,0,0,1-.3-1.016A14.925,14.925,0,0,1,93.96,144a30.089,30.089,0,0,1,.257-3.468,8.1,8.1,0,0,1,.244-1.419,10.3,10.3,0,0,1-.08,1.437c-.071.887-.177,2.1-.191,3.451a18.184,18.184,0,0,0,.275,3.433C94.629,148.3,94.8,148.827,94.758,148.841Z" fill="#263238"/>
        <path id="Path_4567" data-name="Path 4567" d="M92.7,152.571a1.978,1.978,0,0,1-.049-.488c0-.315-.031-.772-.044-1.331,0-1.127-.062-2.661-.031-4.4a29.774,29.774,0,0,1,.381-4.4c.1-.554.2-1,.279-1.308a1.774,1.774,0,0,1,.155-.466c.035,0-.124.687-.275,1.8a38.3,38.3,0,0,0-.306,4.373c-.035,1.716-.022,3.273-.04,4.4,0,.563,0,1.02-.027,1.331a1.881,1.881,0,0,1-.044.488Z" fill="#263238"/>
        <path id="Path_4568" data-name="Path 4568" d="M100.364,171.979a2.421,2.421,0,0,1-.444.262l-1.242.625c-1.051.514-2.515,1.206-4.147,1.938s-3.127,1.353-4.218,1.774c-.55.208-.993.373-1.3.475a2.314,2.314,0,0,1-.492.142,2.536,2.536,0,0,1,.444-.226l1.277-.541c1.073-.444,2.555-1.109,4.187-1.841l4.174-1.876,1.268-.559a2.483,2.483,0,0,1,.5-.173Z" fill="#455a64"/>
      </g>
      <g id="freepik--Plant--inject-144">
        <path id="Path_4569" data-name="Path 4569" d="M50.033,171.2c-1.26-.062-1.632-1.841-1.162-3.016s1.4-2.218,1.41-3.473c0-1.1-.683-2.093-.75-3.184-.12-1.974,1.774-3.584,1.867-5.557.062-1.539-1.007-3-.75-4.524.279-1.628,1.978-2.7,2.368-4.307.417-1.708-.772-3.517-.315-5.22s2.448-2.936,2.164-4.666a17.134,17.134,0,0,0-.594-1.632,4.246,4.246,0,0,1,1.2-3.668,14.03,14.03,0,0,0,2.426-3.18c.812-1.894.248-4.2,1.206-6.019.794-1.517,2.568-2.537,2.794-4.236.887,1.53,0,3.477.222,5.238a17.288,17.288,0,0,0,1.1,3.282,8.556,8.556,0,0,1-.683,6.852c-.772,1.357-1.96,2.635-1.9,4.2.071,1.885,1.96,3.251,2.293,5.109.475,2.661-2.355,5.052-1.965,7.722.1.692.417,1.331.475,2.036.2,2.36-2.475,4.032-2.883,6.365-.3,1.721.692,3.495.279,5.194-.315,1.3-1.441,2.479-1.166,3.792a9.114,9.114,0,0,0,.723,1.588,3.038,3.038,0,0,1-.475,3.136,2.635,2.635,0,0,1-3.047.625" fill="#4797d9"/>
        <g id="Group_111" data-name="Group 111" opacity="0.5">
          <path id="Path_4570" data-name="Path 4570" d="M58.407,169.89a9.114,9.114,0,0,1-.723-1.588c-.275-1.331.852-2.488,1.166-3.792.412-1.7-.581-3.473-.279-5.194.408-2.333,3.1-3.992,2.883-6.365-.058-.7-.373-1.331-.475-2.036-.39-2.661,2.439-5.061,1.965-7.722-.333-1.858-2.218-3.224-2.293-5.109-.062-1.561,1.127-2.839,1.9-4.2a8.556,8.556,0,0,0,.67-6.839,17.288,17.288,0,0,1-1.1-3.282c-.2-1.774.679-3.708-.222-5.238-.226,1.7-2,2.719-2.794,4.236-.958,1.823-.395,4.125-1.206,6.019a14.261,14.261,0,0,1-2.426,3.18,4.264,4.264,0,0,0-1.2,3.668,16,16,0,0,1,.594,1.632c.284,1.73-1.712,2.972-2.164,4.666s.732,3.513.315,5.22c-.39,1.606-2.089,2.661-2.368,4.307-.257,1.521.812,2.985.75,4.524-.084,1.974-1.987,3.584-1.867,5.557.067,1.091.763,2.089.75,3.184,0,1.26-.94,2.3-1.41,3.473s-.1,2.954,1.162,3.016l4.852,2.439a2.635,2.635,0,0,0,3.047-.625A3.038,3.038,0,0,0,58.407,169.89Z" fill="#fff"/>
        </g>
        <path id="Path_4571" data-name="Path 4571" d="M56.771,168.737a3.433,3.433,0,0,1-.488-1.867c.129-.723,1.331-1.357,1.654-2.581.395-1.588-.319-4.4,0-6,.408-2.178,2.661-3.61,2.568-5.766-.027-.634.062-2.333,0-2.963-.239-2.435,1.9-4.072,1.588-6.489-.217-1.69-1.969-3.668-1.969-5.4,0-1.428,1.025-2.683,1.7-3.992a8.915,8.915,0,0,0,.772-6.342,15.494,15.494,0,0,1-.8-2.949c-.115-1.61.679-3.459-.022-4.808-.235,1.579-1.739,2.635-2.448,4.08-.852,1.739-.444,3.823-1.189,5.619a14.958,14.958,0,0,1-2.111,3.082,4.581,4.581,0,0,0-1.109,3.459,13.582,13.582,0,0,1,.444,1.464c.182,1.574-1.512,2.847-1.938,4.435s.5,3.18.1,4.786c-.373,1.5-1.845,3.548-2.129,5.065-.262,1.415,1.02,2.337.923,3.757-.133,1.823-1.96,4.032-1.92,5.841,0,1,.856,1.331.816,2.333a20.8,20.8,0,0,1-1.45,4.582,3.145,3.145,0,0,0,.3,3.1l5.38,2.71C57.87,172.747,57.764,170.4,56.771,168.737Z" fill="#4797d9"/>
        <path id="Path_4572" data-name="Path 4572" d="M60.4,127.822a.355.355,0,0,1,0,.12v.35a13.129,13.129,0,0,1-.058,1.357,6.626,6.626,0,0,1-.47,2.076,10.831,10.831,0,0,1-1.632,2.324,4.328,4.328,0,0,0-.772,1.415,4.879,4.879,0,0,0-.2,1.734c.058,1.224.444,2.5.612,3.89a5.9,5.9,0,0,1-.071,2.156,4.014,4.014,0,0,1-.421,1.047,9.316,9.316,0,0,0-.572.949,3.562,3.562,0,0,0-.031,2.218c.075.381.164.767.208,1.171a4.684,4.684,0,0,1-.031,1.22,9.638,9.638,0,0,1-.745,2.275,18.458,18.458,0,0,0-.838,2.133,5.535,5.535,0,0,0-.191,2.164,9.718,9.718,0,0,1,.08,2.151,6.507,6.507,0,0,1-.687,1.934,7.717,7.717,0,0,0-.683,1.774,18.7,18.7,0,0,0,.089,3.406,9.114,9.114,0,0,1-.625,2.776,9.7,9.7,0,0,0-.528,2.058,2.941,2.941,0,0,0,.137,1.331c.111.284.2.444.182.444a2.555,2.555,0,0,1-.226-.417,2.914,2.914,0,0,1-.177-1.331,9.508,9.508,0,0,1,.5-2.089,9.048,9.048,0,0,0,.585-2.737,15.607,15.607,0,0,0-.133-1.637,6.178,6.178,0,0,1,.027-1.805c.231-1.26,1.153-2.333,1.331-3.686a9.708,9.708,0,0,0-.084-2.107,5.673,5.673,0,0,1,.191-2.24c.412-1.477,1.331-2.821,1.574-4.386a4.436,4.436,0,0,0,.027-1.162c-.044-.386-.129-.767-.2-1.149a3.746,3.746,0,0,1,.049-2.333,9.712,9.712,0,0,1,.585-.971,3.9,3.9,0,0,0,.4-.989,5.766,5.766,0,0,0,.071-2.08c-.169-1.366-.541-2.661-.594-3.9A5.016,5.016,0,0,1,57.3,135.5a4.435,4.435,0,0,1,.812-1.455,10.644,10.644,0,0,0,1.641-2.28,6.834,6.834,0,0,0,.514-2.053c.067-.581.08-1.038.1-1.331v-.35A.417.417,0,0,1,60.4,127.822Z" fill="#263238"/>
        <path id="Path_4573" data-name="Path 4573" d="M42.29,171.833c-1.774.257-2.763-2.107-2.435-3.859s1.331-3.451,1-5.2c-.284-1.521-1.521-2.71-1.912-4.209-.705-2.7,1.495-5.451,1.064-8.205-.333-2.151-2.218-3.89-2.271-6.063-.062-2.337,2-4.284,2.1-6.617.106-2.484-2.031-4.666-1.867-7.145s2.586-4.741,1.721-7.061a20.448,20.448,0,0,0-1.268-2.1c-.852-1.69-.244-3.748.656-5.411s2.1-3.22,2.493-5.069c.6-2.843-.807-5.881,0-8.666.687-2.32,2.865-4.218,2.71-6.653,1.668,1.872.98,4.812,1.747,7.2a24.008,24.008,0,0,0,2.413,4.244,12.073,12.073,0,0,1,.945,9.664c-.7,2.089-1.991,4.182-1.481,6.325.616,2.595,3.606,3.992,4.577,6.458,1.388,3.548-1.881,7.642-.6,11.234.328.927.94,1.739,1.215,2.688.927,3.216-2.328,6.262-2.258,9.611.058,2.462,1.92,4.653,1.814,7.1-.08,1.9-1.331,3.828-.577,5.575a12.611,12.611,0,0,0,1.433,2,4.276,4.276,0,0,1,.2,4.471,3.721,3.721,0,0,1-4.036,1.716" fill="#4797d9"/>
        <g id="Group_112" data-name="Group 112" opacity="0.5">
          <path id="Path_4574" data-name="Path 4574" d="M53.528,167.708a14.351,14.351,0,0,1-1.433-2c-.745-1.747.5-3.677.577-5.575.106-2.462-1.774-4.653-1.814-7.1-.071-3.349,3.184-6.4,2.258-9.611-.275-.949-.887-1.774-1.215-2.688-1.277-3.593,1.991-7.682.6-11.234-.971-2.484-3.961-3.863-4.577-6.458-.51-2.142.785-4.24,1.481-6.329a12.064,12.064,0,0,0-.945-9.66,24.008,24.008,0,0,1-2.413-4.244c-.767-2.386-.08-5.322-1.747-7.2.155,2.417-2.022,4.315-2.71,6.653-.829,2.785.581,5.823,0,8.666C41.2,112.778,40,114.335,39.1,116s-1.508,3.721-.656,5.411a24.186,24.186,0,0,1,1.268,2.1c.887,2.32-1.557,4.59-1.721,7.061s1.974,4.661,1.867,7.145c-.1,2.333-2.16,4.28-2.1,6.617.058,2.173,1.938,3.912,2.271,6.063.444,2.754-1.774,5.5-1.064,8.205.39,1.5,1.628,2.688,1.912,4.209.328,1.752-.674,3.451-1,5.2s.674,4.116,2.435,3.859l7.362,1.991a3.721,3.721,0,0,0,4.049-1.7,4.276,4.276,0,0,0-.2-4.453Z" fill="#fff"/>
        </g>
        <path id="Path_4575" data-name="Path 4575" d="M50.934,166.559a4.835,4.835,0,0,1-1.184-2.453c0-1.033,1.5-2.249,1.583-4.027.111-2.311-1.645-6.01-1.663-8.312-.027-3.127,2.7-5.73,1.983-8.7-.213-.887-.554-3.251-.812-4.1-1-3.309,1.512-6.16.444-9.425-.767-2.28-3.734-4.542-4.213-6.941-.39-1.983.687-3.992,1.273-5.988a12.636,12.636,0,0,0-.665-9,21.539,21.539,0,0,1-1.925-3.867c-.6-2.218,0-4.976-1.331-6.653.1,2.253-1.69,4.129-2.275,6.329-.7,2.661.412,5.42-.106,8.108a21.464,21.464,0,0,1-2.08,4.852c-.75,1.6-1.268,3.548-.594,5.092a20.615,20.615,0,0,1,1.011,1.907c.683,2.133-1.331,4.364-1.472,6.684s1.561,4.276,1.45,6.6c-.106,2.187-1.588,5.42-1.561,7.6,0,2.031,2.053,2.958,2.3,4.954.319,2.559-1.606,6.121-1.06,8.613.3,1.384,1.552,1.6,1.774,3.012.248,1.623-.466,5.092-.754,6.746a4.47,4.47,0,0,0,1.273,4.244l8.245,2.24C53.573,171.811,52.779,168.582,50.934,166.559Z" fill="#4797d9"/>
        <path id="Path_4576" data-name="Path 4576" d="M44.8,108.875a21.187,21.187,0,0,1,.444,2.546,9.806,9.806,0,0,1-.111,3.025,7.686,7.686,0,0,1-.648,1.774c-.3.6-.656,1.215-.98,1.876a6.143,6.143,0,0,0-.692,2.182,6.746,6.746,0,0,0,.2,2.47c.412,1.685,1.286,3.349,1.912,5.225a8.36,8.36,0,0,1,.488,2.989,5.69,5.69,0,0,1-.3,1.552A12.893,12.893,0,0,0,44.583,134a4.994,4.994,0,0,0,.559,3.082,16.049,16.049,0,0,1,.608,1.561,6.333,6.333,0,0,1,.288,1.685,13.305,13.305,0,0,1-.408,3.349,25.818,25.818,0,0,0-.577,3.189,7.983,7.983,0,0,0,0,1.561,8.254,8.254,0,0,0,.324,1.5,13.825,13.825,0,0,1,.692,2.949,9.141,9.141,0,0,1-.412,2.856,10.8,10.8,0,0,0-.444,2.634,8.569,8.569,0,0,0,.444,2.448,22.663,22.663,0,0,1,.621,2.253,8.285,8.285,0,0,1,.1,2.124c-.044.674-.124,1.3-.2,1.885a13.6,13.6,0,0,0-.164,3,4.142,4.142,0,0,0,.563,1.774c.231.364.39.537.377.546a3.908,3.908,0,0,1-.417-.523,4.142,4.142,0,0,1-.608-1.805,13.563,13.563,0,0,1,.129-3.029c.067-.585.142-1.211.182-1.872a8.2,8.2,0,0,0-.115-2.089,22.62,22.62,0,0,0-.63-2.218,8.6,8.6,0,0,1-.444-2.5A10.915,10.915,0,0,1,45.5,155.7a9.061,9.061,0,0,0,.4-2.794A13.6,13.6,0,0,0,45.2,150a8.831,8.831,0,0,1-.333-1.535,8.089,8.089,0,0,1,0-1.606,26.38,26.38,0,0,1,.577-3.22,13.217,13.217,0,0,0,.4-3.291,6.143,6.143,0,0,0-.279-1.632c-.164-.523-.386-1.029-.6-1.539a9.248,9.248,0,0,1-.541-1.57,3.548,3.548,0,0,1-.08-1.668,13.307,13.307,0,0,1,.541-1.5,5.619,5.619,0,0,0,.293-1.49,8.161,8.161,0,0,0-.475-2.918c-.612-1.854-1.481-3.526-1.9-5.242a6.968,6.968,0,0,1-.191-2.532,6.28,6.28,0,0,1,.714-2.218c.337-.665.7-1.273,1-1.872a7.664,7.664,0,0,0,.652-1.747,9.722,9.722,0,0,0,.146-2.994c-.075-.825-.182-1.459-.248-1.889-.031-.208-.053-.373-.075-.492a1.2,1.2,0,0,1-.013-.169Z" fill="#263238"/>
        <path id="Path_4577" data-name="Path 4577" d="M41.185,172.995c-1.007.492-2.062-.727-2.218-1.841s.133-2.324-.4-3.309c-.444-.856-1.433-1.331-1.956-2.147-.945-1.481-.16-3.548-.949-5.118-.616-1.224-2.08-1.9-2.532-3.189-.488-1.384.368-2.949,0-4.364-.417-1.508-2.12-2.4-2.5-3.916s.634-3.34-.333-4.559a14.233,14.233,0,0,0-1.166-1.011,3.734,3.734,0,0,1-.652-3.366,11.967,11.967,0,0,0,.514-3.513c-.191-1.818-1.619-3.362-1.663-5.194-.035-1.521.887-3.078.337-4.493,1.362.8,1.517,2.688,2.439,3.97a15.086,15.086,0,0,0,2.266,2.076,7.593,7.593,0,0,1,2.43,5.6c0,1.388-.386,2.892.337,4.076.887,1.433,2.927,1.681,3.992,2.976,1.517,1.858.35,4.936,1.81,6.844.377.492.887.86,1.246,1.37,1.175,1.747-.182,4.2.51,6.209.506,1.464,2.045,2.413,2.457,3.907.319,1.149-.049,2.546.732,3.451a8.286,8.286,0,0,0,1.246.918,2.7,2.7,0,0,1,.985,2.639,2.346,2.346,0,0,1-2.093,1.8" fill="#4797d9"/>
        <g id="Group_113" data-name="Group 113" opacity="0.5">
          <path id="Path_4578" data-name="Path 4578" d="M47.115,168.351a8.285,8.285,0,0,1-1.246-.918c-.781-.887-.412-2.3-.732-3.451-.412-1.495-1.951-2.444-2.457-3.907-.692-1.991.665-4.435-.51-6.209-.346-.51-.887-.887-1.246-1.37-1.459-1.907-.293-4.985-1.81-6.844-1.06-1.3-3.1-1.543-3.992-2.976-.723-1.184-.35-2.688-.337-4.076a7.593,7.593,0,0,0-2.408-5.579,15.086,15.086,0,0,1-2.266-2.076c-.923-1.282-1.078-3.171-2.439-3.97.563,1.415-.373,2.972-.337,4.493.044,1.832,1.472,3.375,1.663,5.194a12.563,12.563,0,0,1-.514,3.513,3.79,3.79,0,0,0,.652,3.366,14.236,14.236,0,0,1,1.166,1.011c.967,1.22-.044,3.047.333,4.559s2.085,2.408,2.5,3.916c.39,1.415-.444,2.98,0,4.364.444,1.291,1.916,1.965,2.532,3.189.789,1.566,0,3.637.949,5.118.523.821,1.49,1.291,1.956,2.147.537.985.266,2.2.4,3.309s1.2,2.333,2.218,1.841l4.821-.2a2.346,2.346,0,0,0,2.093-1.8A2.7,2.7,0,0,0,47.115,168.351Z" fill="#fff"/>
        </g>
        <path id="Path_4579" data-name="Path 4579" d="M45.341,168.165a3.056,3.056,0,0,1-1.184-1.237c-.213-.617.444-1.637.169-2.714-.381-1.406-2.142-3.278-2.6-4.653-.621-1.867.506-3.952-.5-5.593-.3-.479-.958-1.836-1.277-2.3-1.242-1.774-.288-3.992-1.57-5.721-.887-1.22-3.1-2-3.863-3.344-.621-1.109-.364-2.524-.395-3.828a7.948,7.948,0,0,0-2.142-5.256,14.041,14.041,0,0,1-1.9-1.943c-.781-1.2-.967-2.98-2.089-3.726.5,1.331-.217,2.8-.142,4.227.093,1.716,1.3,3.167,1.5,4.879a13.149,13.149,0,0,1-.306,3.3,4.085,4.085,0,0,0,.63,3.162,12.322,12.322,0,0,1,.976.949c.821,1.144.058,2.861.408,4.28s1.774,2.258,2.142,3.672c.359,1.331.1,3.548.537,4.852.408,1.215,1.8,1.375,2.337,2.519.687,1.472.222,3.992,1.029,5.362.444.772,1.237.656,1.641,1.459a19.644,19.644,0,0,1,.856,4.187A2.794,2.794,0,0,0,41.185,173l5.371-.253C47.936,170.8,46.836,169.021,45.341,168.165Z" fill="#4797d9"/>
        <path id="Path_4580" data-name="Path 4580" d="M30.505,134.83a.412.412,0,0,1,.058.089c.044.071.093.16.155.271.133.24.333.594.546,1.073a6.125,6.125,0,0,1,.528,1.836,9.779,9.779,0,0,1-.262,2.515,3.69,3.69,0,0,0,0,1.428,4.223,4.223,0,0,0,.594,1.428c.572.923,1.415,1.747,2.156,2.75a5.282,5.282,0,0,1,.887,1.708,3.752,3.752,0,0,1,.124,1,8.251,8.251,0,0,0-.031.985,3.171,3.171,0,0,0,.923,1.716c.226.262.444.523.67.816a4.333,4.333,0,0,1,.506.962,8.768,8.768,0,0,1,.4,2.093,16.272,16.272,0,0,0,.266,2.018,4.879,4.879,0,0,0,.789,1.774,8.928,8.928,0,0,1,.989,1.637,5.894,5.894,0,0,1,.3,1.8,6.808,6.808,0,0,0,.231,1.659,16.552,16.552,0,0,0,1.535,2.608,8.227,8.227,0,0,1,.705,2.43,8.658,8.658,0,0,0,.475,1.827,2.63,2.63,0,0,0,.674.962c.208.177.333.248.328.262a1.773,1.773,0,0,1-.355-.226,2.55,2.55,0,0,1-.723-.967,8.374,8.374,0,0,1-.51-1.858,8.209,8.209,0,0,0-.727-2.373,15.384,15.384,0,0,1-1.574-2.63c-.368-1.082-.111-2.311-.546-3.437a8.818,8.818,0,0,0-.976-1.6,5.03,5.03,0,0,1-.821-1.827,35.893,35.893,0,0,0-.674-4.08,3.775,3.775,0,0,0-.475-.909c-.2-.279-.444-.541-.656-.807a3.349,3.349,0,0,1-.98-1.832,9.257,9.257,0,0,1,.035-1.007,3.5,3.5,0,0,0-.111-.94,5.145,5.145,0,0,0-.812-1.623c-.719-.989-1.561-1.823-2.147-2.776a4.435,4.435,0,0,1-.608-1.49,3.956,3.956,0,0,1,0-1.481,9.642,9.642,0,0,0,.288-2.479,5.93,5.93,0,0,0-.483-1.814c-.2-.479-.381-.843-.5-1.087l-.137-.284A.3.3,0,0,1,30.505,134.83Z" fill="#263238"/>
        <path id="Path_4581" data-name="Path 4581" d="M33.481,168.75l2.085,4.244H61l2.87-4.244Z" fill="#455a64"/>
        <path id="Path_4582" data-name="Path 4582" d="M36.178,171.531l3.805,13.141,17.133.018,3.451-13.137Z" fill="#455a64"/>
        <path id="Path_4583" data-name="Path 4583" d="M60.886,172.973c0,.058-5.673.106-12.671.106s-12.676-.049-12.676-.106,5.673-.111,12.676-.111S60.886,172.9,60.886,172.973Z" fill="#263238"/>
      </g>
    </g>
  </g>
</svg>
