<svg xmlns="http://www.w3.org/2000/svg" width="300" height="200" viewBox="0 0 300 200">
  <rect id="_3370253" data-name="3370253" width="300" height="200" fill="#fff"/>
  <g id="Connected_world-rafiki" data-name="Connected world-rafiki" transform="translate(0 -44.44)">
    <g id="freepik--background-complete--inject-115" transform="translate(0 44.44)">
      <rect id="Rectangle_655" data-name="Rectangle 655" width="300" height="0.092" transform="translate(0 183.356)" fill="#ebebeb"/>
      <rect id="Rectangle_656" data-name="Rectangle 656" width="12.206" height="0.092" transform="translate(269.329 189.286)" fill="#ebebeb"/>
      <rect id="Rectangle_657" data-name="Rectangle 657" width="3.203" height="0.092" transform="translate(194.838 190.289)" fill="#ebebeb"/>
      <rect id="Rectangle_658" data-name="Rectangle 658" width="7.072" height="0.092" transform="translate(241.618 185.866)" fill="#ebebeb"/>
      <rect id="Rectangle_659" data-name="Rectangle 659" width="15.918" height="0.092" transform="translate(19.334 186.485)" fill="#ebebeb"/>
      <rect id="Rectangle_660" data-name="Rectangle 660" width="2.333" height="0.092" transform="translate(63.046 186.485)" fill="#ebebeb"/>
      <rect id="Rectangle_661" data-name="Rectangle 661" width="34.526" height="0.092" transform="translate(85.898 188.041)" fill="#ebebeb"/>
      <path id="Path_4165" data-name="Path 4165" d="M111.474,159.225H40.311a2.1,2.1,0,0,1-2.1-2.1V57.086A2.1,2.1,0,0,1,40.311,55h71.163a2.1,2.1,0,0,1,2.1,2.1V157.121A2.1,2.1,0,0,1,111.474,159.225ZM40.311,55.074A2.012,2.012,0,0,0,38.3,57.086V157.121a2.012,2.012,0,0,0,2.009,2.012h71.163a2.016,2.016,0,0,0,2.012-2.012V57.086a2.016,2.016,0,0,0-2.012-2.012Z" transform="translate(-24.128 -51.108)" fill="#ebebeb"/>
      <path id="Path_4166" data-name="Path 4166" d="M327.771,159.225H256.6a2.108,2.108,0,0,1-2.1-2.1V57.086A2.108,2.108,0,0,1,256.6,55h71.167a2.1,2.1,0,0,1,2.1,2.086V157.121A2.1,2.1,0,0,1,327.771,159.225ZM256.6,55.074a2.016,2.016,0,0,0-2.012,2.012V157.121a2.016,2.016,0,0,0,2.012,2.012h71.167a2.016,2.016,0,0,0,2.012-2.012V57.086a2.016,2.016,0,0,0-2.012-2.012Z" transform="translate(-44.979 -51.108)" fill="#ebebeb"/>
      <path id="Path_4167" data-name="Path 4167" d="M259.292,84.946,219.179,71.4l-.033-.033L197.954,49.642l-17,15.523-.247-.273L197.969,49.13l21.409,21.943,39.774,13.434,16.327-22.456.3.217Z" transform="translate(1.616 -47.402)" fill="#f0f0f0"/>
      <path id="Path_4168" data-name="Path 4168" d="M48.816,233.393a1.983,1.983,0,1,1-1.983-1.983A1.983,1.983,0,0,1,48.816,233.393Z" transform="translate(-28.321 -130.751)" fill="#f0f0f0"/>
      <path id="Path_4169" data-name="Path 4169" d="M226.106,46.423a1.983,1.983,0,1,1-1.983-1.983,1.983,1.983,0,0,1,1.983,1.983Z" transform="translate(-87.725 -44.44)" fill="#f0f0f0"/>
      <path id="Path_4170" data-name="Path 4170" d="M436.836,81.083a1.983,1.983,0,1,1-1.983-1.983A1.983,1.983,0,0,1,436.836,81.083Z" transform="translate(-157.611 -66.326)" fill="#f0f0f0"/>
      <path id="Path_4171" data-name="Path 4171" d="M437.306,364.983A1.983,1.983,0,1,1,435.323,363a1.983,1.983,0,0,1,1.983,1.983Z" transform="translate(-157.907 -186.793)" fill="#f0f0f0"/>
      <path id="Path_4172" data-name="Path 4172" d="M283.946,105.713a1.983,1.983,0,1,1-1.983-1.983A1.983,1.983,0,0,1,283.946,105.713Z" transform="translate(-110.567 -81.879)" fill="#f0f0f0"/>
      <path id="Path_4173" data-name="Path 4173" d="M105.9,204.608l-.151-.029L56.02,195.191l.066-.361,49.573,9.357,34.71-95.248.346.125Z" transform="translate(-35.374 -26.367)" fill="#f0f0f0"/>
      <rect id="Rectangle_662" data-name="Rectangle 662" width="0.369" height="22.662" transform="matrix(0.663, -0.749, 0.749, 0.663, 22.783, 49.38)" fill="#f0f0f0"/>
      <path id="Path_4174" data-name="Path 4174" d="M396.336,227.807,371.75,212.571l.538-.147,25.828-24.848-18.431-41.915.339-.151,18.534,42.151-.092.092-25.883,24.9,23.945,14.841Z" transform="translate(-119.016 -49.459)" fill="#f0f0f0"/>
      <path id="Path_4175" data-name="Path 4175" d="M52.11,235.826l-.31-.2,14.86-22.95L49.53,196.782l.125-.133,21.453-23.23.129.074,97.769,56.561-.184.317L71.179,173.888,50.05,196.764l17.086,15.851Z" transform="translate(-31.276 -85.476)" fill="#f0f0f0"/>
    </g>
    <g id="freepik--Shadow--inject-115" transform="translate(20.679 236.096)">
      <ellipse id="freepik--path--inject-115" cx="129.321" cy="4.172" rx="129.321" ry="4.172" fill="#f5f5f5"/>
    </g>
    <g id="freepik--World--inject-115" transform="translate(118.366 103.105)">
      <path id="Path_4176" data-name="Path 4176" d="M193.853,196.623q1.474.122,2.948.1a29.952,29.952,0,0,0,29.381-27.486c0-.184.029-.369.041-.545a29.882,29.882,0,0,0-1.279-10.813h0a29.992,29.992,0,0,0-23.112-20.572c-1-.181-2.012-.321-3.041-.405a29.964,29.964,0,1,0-4.939,59.723Z" transform="translate(-166.335 -136.795)" fill="#0f3b5e"/>
      <g id="Group_102" data-name="Group 102" transform="translate(0 0)" opacity="0.7">
        <path id="Path_4177" data-name="Path 4177" d="M193.853,196.623q1.474.122,2.948.1a29.952,29.952,0,0,0,29.381-27.486c0-.184.029-.369.041-.545a29.882,29.882,0,0,0-1.279-10.813h0a29.992,29.992,0,0,0-23.112-20.572c-1-.181-2.012-.321-3.041-.405a29.964,29.964,0,1,0-4.939,59.723Z" transform="translate(-166.335 -136.795)" fill="#fff"/>
      </g>
      <path id="Path_4178" data-name="Path 4178" d="M175.669,222.672c-.1.557-.807.759-1.378.829l-2.58.321c-.405-1.065-1.666-1.072-2.55-.66a29.967,29.967,0,0,0,26.477,22.061q1.474.122,2.948.1a.5.5,0,0,0,.048-.074c.45-.785-.2-1.474-.545-2.123-.077-.144-.814-2-.571-2a8.067,8.067,0,0,1-2.333-.3.243.243,0,0,1-.147-.088c-.074-.125.1-.243.236-.276.369-.081.719-.1,1.065-.206a1.227,1.227,0,0,0,.826-.649,6.668,6.668,0,0,0,.111-1.084,1.474,1.474,0,0,1,.851-.966,4.791,4.791,0,0,1,1.235-.332c-.9-.494-.243-1.518-.955-2.211-.229-.217-.56-.486-.42-.774s.612-.265.671-.56c.041-.206-.177-.369-.369-.424a2.322,2.322,0,0,1-.615-.133.553.553,0,0,1-.173-.77c.155-.217.442-.284.678-.409s.446-.413.306-.641a.442.442,0,0,0-.136-.125,1.215,1.215,0,0,0-1.26.21,2.229,2.229,0,0,1-1.205.564.369.369,0,0,1,.147-.509.7.7,0,0,0,.181-.1c.107-.107.029-.284-.044-.416a2.7,2.7,0,0,1-.206-2.056l2.742.052c.022-.206.044-.328.265-.391-.615-.737-1.283-1.415-1.843-2.211a.538.538,0,0,0-.243-.236,1.672,1.672,0,0,0-.369,0c-.394-.055-.457-.6-.416-.991-.059-.122-.251-.07-.324.041s-.092.254-.181.369a.5.5,0,0,1-.553.059,1.312,1.312,0,0,1-.7-1.706.368.368,0,0,1,.147-.192c.158-.088.346.022.523.052.7.125.593-.645.428-1.013a2.182,2.182,0,0,0-1.4-.94c-.579-.151-4.423-.888-3.8-2.145a.586.586,0,0,1,.3-.251,8.883,8.883,0,0,1,1.179-.225c.369-.107.759-.509.59-.873-.066-.147-.206-.247-.284-.387-.217-.394.118-.9-.037-1.323a3.52,3.52,0,0,0-.339-.512c-.1-.181-.122-.45.055-.557s.468.059.678-.037a.369.369,0,0,0,0-.6.623.623,0,0,0-.682.052.8.8,0,0,1-.328.181c-.225.029-.394-.192-.509-.391l-.549-.932a.527.527,0,0,0-.435.369c-.07.192-.085.405-.162.6-.391.925-1.795.814-1.614,2.079a.6.6,0,0,1,.612.737c-.147.45-.818.693-.737,1.154.033.162.162.291.188.453.07.446-.619.612-.918.711-.984.339-1.05-.306-1.9-.346a10.565,10.565,0,0,0-1.128.291c-.391.044-.711-.114-1.072-.092-.984.055-.49,1.393-.42,1.975-.531-.369-1.238.059-1.658.534-.649.737-.586.6-1.445.63a.634.634,0,0,0-.557.328c-.158.369.181.737.192,1.143,0,.192-.07.369-.055.564.048.5.634.711.988,1.058a1.356,1.356,0,0,1,.369,1.194,2.894,2.894,0,0,1-.737-.055l-.446-.859a1.813,1.813,0,0,0-.5-.682,1.636,1.636,0,0,1-.369-.287c-.184-.258-.033-.608,0-.925a9.254,9.254,0,0,0-.464-2.8c-.188-.756-.737-1.124-.929-1.869a.236.236,0,0,0-.335-.107.509.509,0,0,0-.21.335,1.371,1.371,0,0,0,.081.921c-.173-.369-1.106.612-1.179.8-.1.31.111.737.1,1.065-.018.8-.21,1.238-1.028.656-.313-.221-.715-.486-1.047-.291a.5.5,0,0,1-.276.56,1.058,1.058,0,0,1-.667.052.656.656,0,0,1-.4-.2,1.107,1.107,0,0,0-.147-.192c-.21-.166-.475.118-.59.369" transform="translate(-168.119 -185.395)" fill="#0f3b5e"/>
      <path id="Path_4179" data-name="Path 4179" d="M267.1,151.47c.166.262,0,.6-.2.84s-.409.531-.328.826l1.069.1a.188.188,0,0,1,.21.262c-.026.229-.055.457-.081.686-.225.177-.442-.369-.737-.321-.122.026-.184.158-.254.262-.575.907-1.585.229-2.123-.243a3.587,3.587,0,0,0-2.362-.59,1.106,1.106,0,0,0-.84.221c-.206.206-.217.531-.321.807-.181.479-.638.792-.9,1.231-.907,1.537.737,2.72,2.112,2.3.719-.214.593-.343,1.327-.129.306.088.682,0,.87.369a.571.571,0,0,1-.5.833,2.417,2.417,0,0,1-1.183-.136,4.271,4.271,0,0,1-.052,1.555.678.678,0,0,0-.737.907c.232,0,.549.092.531.324a.45.45,0,0,1-.081.188,7.709,7.709,0,0,0-.512.686c-.217.369-.214,1.529-.763,1.666-.1.026-.2,0-.295.048a.439.439,0,0,0-.269.512.6.6,0,0,0,.435.42c.136.037.284.033.416.077.708.247.085.947.254,1.294a6.383,6.383,0,0,0,1.415.94,1.677,1.677,0,0,0-.8,1.26c0,.575.424.855.969,1.028s1.283.24,1.7.4c.225.085.5.166.686.018s.184-.627.457-.756a.8.8,0,0,1,.28-.044,1.058,1.058,0,0,0,.9-1.19c.129-.166.369-.151.593-.144s.479-.066.509-.276-.273-.369-.516-.369a2.639,2.639,0,0,0-.737.059.859.859,0,0,1-.542.022.737.737,0,0,1-.287-.3,1.629,1.629,0,0,1-.3-.951.7.7,0,0,1,.638-.66,1.342,1.342,0,0,0,.269.018c.232-.037.332-.321.317-.553a2.1,2.1,0,0,1-.029-.693c.063-.225.369-.391.531-.217.129-.295.214-.737-.077-.873a.848.848,0,0,0-.306-.052c-.641-.063-1.507-.929-.792-1.423.468-.324,1.224.369,1.633-.262.2-.295.077-.737.28-1.014.118-.085.258.088.284.236a1.371,1.371,0,0,1-.446,1.26c.369.21.929-.029,1.176.306s-.118.914.2,1.172a.638.638,0,0,0,.328.114c.579.085,1.655,0,1.688.811a1.34,1.34,0,0,0,.018.3c.088.291.486.321.789.287.155-.295-.048-.641-.184-.951s-.122-.778.2-.855c.236-.055.509.147.7,0,.092-.063.133-.184.232-.236.24-.125.439.24.7.321.369.114.623-.369.623-.737s-.092-.792.147-1.076c.077-.088.181-.151.265-.232a1.552,1.552,0,0,0,.346-1.006c.059-.575,2.333.918,2.477.94,1.106.184,1.762-.9,2.51-1.493a6.694,6.694,0,0,1,1.3-.737,30.221,30.221,0,0,0-21.689-20.27,9.776,9.776,0,0,0-1.393-.269c.14.7.571,1.795.1,2.455-.593.84-1.843.107-2.311,1.106,0,.251.405.21.6.369a.892.892,0,0,1,.188.369c.055.129.181.258.313.217.155.232-.088.52-.295.708a1.842,1.842,0,0,0-.56.8c-.192.66.243,1.312.52,1.939a9.267,9.267,0,0,1,.486,1.625c0-.262.369-.369.608-.247a2.794,2.794,0,0,1,.568.538c.321.31.737.122,1.084.369.435.328.711.914,1.242,1,.649.111,1.106-.579,1.4-1.168.711.369,1.15,1.286,1.953,1.345a2.068,2.068,0,0,0,.9-.206l1.765-.7a.84.84,0,0,1,1.316.6l.369.929a.689.689,0,0,1,.074.4.6.6,0,0,1-.284.321,3.188,3.188,0,0,1-2.289.468,12.831,12.831,0,0,0,.627,3.136c-.6-.155-1.294.044-1.843-.184" transform="translate(-223.364 -137.758)" fill="#0f3b5e"/>
      <path id="Path_4180" data-name="Path 4180" d="M262.695,238.641a1.19,1.19,0,0,1-.9.464,4.741,4.741,0,0,1-.638-.122.59.59,0,0,0-.582.2c-.151.229,0,.534.136.77a.91.91,0,0,0,.464.461,4.322,4.322,0,0,0,.49.026c.321.052.527.369.737.6s.56.464.844.306c.184-.1.265-.339.446-.453.442-.276.984.324,1.382.1.472-.269.3-1.039.1-1.474a3.969,3.969,0,0,0-.94-1.106C263.27,237.487,263.41,237.8,262.695,238.641Z" transform="translate(-225.801 -200.604)" fill="#0f3b5e"/>
      <path id="Path_4181" data-name="Path 4181" d="M298.771,236.319A29.238,29.238,0,0,0,306.78,218.3c0-.184.029-.369.041-.545-.907-.94-2.72-1.537-3.192.151-.188,0-.225-.125-.369-.232-.225-.166-.538.059-.663.31-.409.814-.468,1.843-1.6,1.614-1.345-.262-.431-.837-.87-1.577a1.506,1.506,0,0,0-.265-.265,1.535,1.535,0,0,1-.214-1.3.523.523,0,0,0,.708-.295.855.855,0,0,1,.1-.31c.155-.181.468,0,.542.214s0,.472.066.7.3.457.5.335a.413.413,0,0,0,.158-.243,1.286,1.286,0,0,0-.232-1.168.516.516,0,0,0-.022-1c-.328-.07-.8.122-.929-.188a.737.737,0,0,1-.287.737c-.87.63-2.823.07-2.631,1.92a6.631,6.631,0,0,1,.129.885.689.689,0,0,1-.464.689c.527.424.335,1.4.9,1.773a.737.737,0,0,0,.877-.1.317.317,0,0,1,.125-.1c.1-.033.2.066.306.088.181.037.343-.151.527-.162.262,0,.405.3.453.557s.114.575.369.645a1.6,1.6,0,0,1,.262.037.442.442,0,0,1,.287.416,1.319,1.319,0,0,1-.118.523c-.111.107-.3.041-.409-.074a3.34,3.34,0,0,0-.287-.369A12.658,12.658,0,0,1,299,221.92c-.232.538-.35,1.717-1.161,1.419-.284-.107-.579-.3-.87-.214.14-.369.273-.763.405-1.146-.122-.107-.3.037-.369.188s-.059.332-.184.428a.5.5,0,0,1-.321.063h-1.084a1.3,1.3,0,0,0-1.087.317,1.046,1.046,0,0,0,.177,1.216.291.291,0,0,1,0,.512,1.622,1.622,0,0,0-.534,1.371,1.061,1.061,0,0,0,1.058.907c.2-.018.439-.085.553.074.066.1.066.247.17.291s.243-.1.339-.214a.586.586,0,0,1,.715-.118,2.734,2.734,0,0,1,.369,1.345c-.217.369-1.242.225-1.644.243a.586.586,0,0,0-.431.136c-.158.184-.029.475.147.641s.413.291.5.516a1.566,1.566,0,0,1-.221,1.209c-.1.085-.232.129-.335.217a.822.822,0,0,0-.166.848c.081.295.236.564.295.862.118.638-.232,1.33.022,1.928.122.287.5.516.737.313s.2-.59.472-.619.579.619.792.737.509-.066.822.158C298.439,235.718,298.491,236.12,298.771,236.319Z" transform="translate(-246.929 -185.855)" fill="#0f3b5e"/>
      <path id="Path_4182" data-name="Path 4182" d="M190.819,147.976c.265-.339.435-.737.932-.814.678-.118.932.262.638.907a.262.262,0,0,0-.041.181c.044.2.339.081.5-.029a1.341,1.341,0,0,1,1.3-.063,6.261,6.261,0,0,0,.184-2.031c-.339-.737-1.905-.394-1.585-1.209.59,0,1.19.063,1.776.107l.1-.848c-.026.21,1.069.166,1.194.1.483-.247.35-1.106,1.216-.98,1.106.181,1.157,2.333-.088,1.979a5.613,5.613,0,0,0-.442,2.086h-.678a.619.619,0,0,0-.081.549,1.688,1.688,0,0,0,1.869,0c.369.273.859,0,1.224-.247a1.4,1.4,0,0,0,2.359-.184,1.426,1.426,0,0,0-1.511-1.843,2.174,2.174,0,0,0-.461-1.249,2.827,2.827,0,0,0,2.705-1.876c.192-.56.236-1.238.708-1.6.21-.158.475-.225.7-.369a2.133,2.133,0,0,0,.711-1.566q.077-.593.111-1.183a29.981,29.981,0,0,0-17.757,9.877,1.168,1.168,0,0,0,.044.608,1.294,1.294,0,0,0,.94.582c1.437.369,2.355.3,3.35-.822A1.014,1.014,0,0,0,190.819,147.976Z" transform="translate(-178.994 -137.429)" fill="#0f3b5e"/>
      <g id="Group_103" data-name="Group 103" transform="translate(1.041 0.371)" opacity="0.4">
        <path id="Path_4183" data-name="Path 4183" d="M175.669,222.672c-.1.557-.807.759-1.378.829l-2.58.321c-.405-1.065-1.666-1.072-2.55-.66a29.967,29.967,0,0,0,26.477,22.061q1.474.122,2.948.1a.5.5,0,0,0,.048-.074c.45-.785-.2-1.474-.545-2.123-.077-.144-.814-2-.571-2a8.067,8.067,0,0,1-2.333-.3.243.243,0,0,1-.147-.088c-.074-.125.1-.243.236-.276.369-.081.719-.1,1.065-.206a1.227,1.227,0,0,0,.826-.649,6.668,6.668,0,0,0,.111-1.084,1.474,1.474,0,0,1,.851-.966,4.791,4.791,0,0,1,1.235-.332c-.9-.494-.243-1.518-.955-2.211-.229-.217-.56-.486-.42-.774s.612-.265.671-.56c.041-.206-.177-.369-.369-.424a2.322,2.322,0,0,1-.615-.133.553.553,0,0,1-.173-.77c.155-.217.442-.284.678-.409s.446-.413.306-.641a.442.442,0,0,0-.136-.125,1.215,1.215,0,0,0-1.26.21,2.229,2.229,0,0,1-1.205.564.369.369,0,0,1,.147-.509.7.7,0,0,0,.181-.1c.107-.107.029-.284-.044-.416a2.7,2.7,0,0,1-.206-2.056l2.742.052c.022-.206.044-.328.265-.391-.615-.737-1.283-1.415-1.843-2.211a.538.538,0,0,0-.243-.236,1.672,1.672,0,0,0-.369,0c-.394-.055-.457-.6-.416-.991-.059-.122-.251-.07-.324.041s-.092.254-.181.369a.5.5,0,0,1-.553.059,1.312,1.312,0,0,1-.7-1.706.368.368,0,0,1,.147-.192c.158-.088.346.022.523.052.7.125.593-.645.428-1.013a2.182,2.182,0,0,0-1.4-.94c-.579-.151-4.423-.888-3.8-2.145a.586.586,0,0,1,.3-.251,8.883,8.883,0,0,1,1.179-.225c.369-.107.759-.509.59-.873-.066-.147-.206-.247-.284-.387-.217-.394.118-.9-.037-1.323a3.52,3.52,0,0,0-.339-.512c-.1-.181-.122-.45.055-.557s.468.059.678-.037a.369.369,0,0,0,0-.6.623.623,0,0,0-.682.052.8.8,0,0,1-.328.181c-.225.029-.394-.192-.509-.391l-.549-.932a.527.527,0,0,0-.435.369c-.07.192-.085.405-.162.6-.391.925-1.795.814-1.614,2.079a.6.6,0,0,1,.612.737c-.147.45-.818.693-.737,1.154.033.162.162.291.188.453.07.446-.619.612-.918.711-.984.339-1.05-.306-1.9-.346a10.565,10.565,0,0,0-1.128.291c-.391.044-.711-.114-1.072-.092-.984.055-.49,1.393-.42,1.975-.531-.369-1.238.059-1.658.534-.649.737-.586.6-1.445.63a.634.634,0,0,0-.557.328c-.158.369.181.737.192,1.143,0,.192-.07.369-.055.564.048.5.634.711.988,1.058a1.356,1.356,0,0,1,.369,1.194,2.894,2.894,0,0,1-.737-.055l-.446-.859a1.813,1.813,0,0,0-.5-.682,1.636,1.636,0,0,1-.369-.287c-.184-.258-.033-.608,0-.925a9.254,9.254,0,0,0-.464-2.8c-.188-.756-.737-1.124-.929-1.869a.236.236,0,0,0-.335-.107.509.509,0,0,0-.21.335,1.371,1.371,0,0,0,.081.921c-.173-.369-1.106.612-1.179.8-.1.31.111.737.1,1.065-.018.8-.21,1.238-1.028.656-.313-.221-.715-.486-1.047-.291a.5.5,0,0,1-.276.56,1.058,1.058,0,0,1-.667.052.656.656,0,0,1-.4-.2,1.107,1.107,0,0,0-.147-.192c-.21-.166-.475.118-.59.369" transform="translate(-169.16 -185.765)" fill="#fff"/>
        <path id="Path_4184" data-name="Path 4184" d="M267.1,151.47c.166.262,0,.6-.2.84s-.409.531-.328.826l1.069.1a.188.188,0,0,1,.21.262c-.026.229-.055.457-.081.686-.225.177-.442-.369-.737-.321-.122.026-.184.158-.254.262-.575.907-1.585.229-2.123-.243a3.587,3.587,0,0,0-2.362-.59,1.106,1.106,0,0,0-.84.221c-.206.206-.217.531-.321.807-.181.479-.638.792-.9,1.231-.907,1.537.737,2.72,2.112,2.3.719-.214.593-.343,1.327-.129.306.088.682,0,.87.369a.571.571,0,0,1-.5.833,2.417,2.417,0,0,1-1.183-.136,4.271,4.271,0,0,1-.052,1.555.678.678,0,0,0-.737.907c.232,0,.549.092.531.324a.45.45,0,0,1-.081.188,7.709,7.709,0,0,0-.512.686c-.217.369-.214,1.529-.763,1.666-.1.026-.2,0-.295.048a.439.439,0,0,0-.269.512.6.6,0,0,0,.435.42c.136.037.284.033.416.077.708.247.085.947.254,1.294a6.383,6.383,0,0,0,1.415.94,1.677,1.677,0,0,0-.8,1.26c0,.575.424.855.969,1.028s1.283.24,1.7.4c.225.085.5.166.686.018s.184-.627.457-.756a.8.8,0,0,1,.28-.044,1.058,1.058,0,0,0,.9-1.19c.129-.166.369-.151.593-.144s.479-.066.509-.276-.273-.369-.516-.369a2.639,2.639,0,0,0-.737.059.859.859,0,0,1-.542.022.737.737,0,0,1-.287-.3,1.629,1.629,0,0,1-.3-.951.7.7,0,0,1,.638-.66,1.342,1.342,0,0,0,.269.018c.232-.037.332-.321.317-.553a2.1,2.1,0,0,1-.029-.693c.063-.225.369-.391.531-.217.129-.295.214-.737-.077-.873a.848.848,0,0,0-.306-.052c-.641-.063-1.507-.929-.792-1.423.468-.324,1.224.369,1.633-.262.2-.295.077-.737.28-1.014.118-.085.258.088.284.236a1.371,1.371,0,0,1-.446,1.26c.369.21.929-.029,1.176.306s-.118.914.2,1.172a.638.638,0,0,0,.328.114c.579.085,1.655,0,1.688.811a1.34,1.34,0,0,0,.018.3c.088.291.486.321.789.287.155-.295-.048-.641-.184-.951s-.122-.778.2-.855c.236-.055.509.147.7,0,.092-.063.133-.184.232-.236.24-.125.439.24.7.321.369.114.623-.369.623-.737s-.092-.792.147-1.076c.077-.088.181-.151.265-.232a1.552,1.552,0,0,0,.346-1.006c.059-.575,2.333.918,2.477.94,1.106.184,1.762-.9,2.51-1.493a6.694,6.694,0,0,1,1.3-.737,30.221,30.221,0,0,0-21.689-20.27,9.776,9.776,0,0,0-1.393-.269c.14.7.571,1.795.1,2.455-.593.84-1.843.107-2.311,1.106,0,.251.405.21.6.369a.892.892,0,0,1,.188.369c.055.129.181.258.313.217.155.232-.088.52-.295.708a1.842,1.842,0,0,0-.56.8c-.192.66.243,1.312.52,1.939a9.267,9.267,0,0,1,.486,1.625c0-.262.369-.369.608-.247a2.794,2.794,0,0,1,.568.538c.321.31.737.122,1.084.369.435.328.711.914,1.242,1,.649.111,1.106-.579,1.4-1.168.711.369,1.15,1.286,1.953,1.345a2.068,2.068,0,0,0,.9-.206l1.765-.7a.84.84,0,0,1,1.316.6l.369.929a.689.689,0,0,1,.074.4.6.6,0,0,1-.284.321,3.188,3.188,0,0,1-2.289.468,12.831,12.831,0,0,0,.627,3.136c-.6-.155-1.294.044-1.843-.184" transform="translate(-224.406 -138.128)" fill="#fff"/>
        <path id="Path_4185" data-name="Path 4185" d="M262.695,238.641a1.19,1.19,0,0,1-.9.464,4.741,4.741,0,0,1-.638-.122.59.59,0,0,0-.582.2c-.151.229,0,.534.136.77a.91.91,0,0,0,.464.461,4.322,4.322,0,0,0,.49.026c.321.052.527.369.737.6s.56.464.844.306c.184-.1.265-.339.446-.453.442-.276.984.324,1.382.1.472-.269.3-1.039.1-1.474a3.969,3.969,0,0,0-.94-1.106C263.27,237.487,263.41,237.8,262.695,238.641Z" transform="translate(-226.843 -200.975)" fill="#fff"/>
        <path id="Path_4186" data-name="Path 4186" d="M298.771,236.319A29.238,29.238,0,0,0,306.78,218.3c0-.184.029-.369.041-.545-.907-.94-2.72-1.537-3.192.151-.188,0-.225-.125-.369-.232-.225-.166-.538.059-.663.31-.409.814-.468,1.843-1.6,1.614-1.345-.262-.431-.837-.87-1.577a1.506,1.506,0,0,0-.265-.265,1.535,1.535,0,0,1-.214-1.3.523.523,0,0,0,.708-.295.855.855,0,0,1,.1-.31c.155-.181.468,0,.542.214s0,.472.066.7.3.457.5.335a.413.413,0,0,0,.158-.243,1.286,1.286,0,0,0-.232-1.168.516.516,0,0,0-.022-1c-.328-.07-.8.122-.929-.188a.737.737,0,0,1-.287.737c-.87.63-2.823.07-2.631,1.92a6.631,6.631,0,0,1,.129.885.689.689,0,0,1-.464.689c.527.424.335,1.4.9,1.773a.737.737,0,0,0,.877-.1.317.317,0,0,1,.125-.1c.1-.033.2.066.306.088.181.037.343-.151.527-.162.262,0,.405.3.453.557s.114.575.369.645a1.6,1.6,0,0,1,.262.037.442.442,0,0,1,.287.416,1.319,1.319,0,0,1-.118.523c-.111.107-.3.041-.409-.074a3.34,3.34,0,0,0-.287-.369A12.658,12.658,0,0,1,299,221.92c-.232.538-.35,1.717-1.161,1.419-.284-.107-.579-.3-.87-.214.14-.369.273-.763.405-1.146-.122-.107-.3.037-.369.188s-.059.332-.184.428a.5.5,0,0,1-.321.063h-1.084a1.3,1.3,0,0,0-1.087.317,1.046,1.046,0,0,0,.177,1.216.291.291,0,0,1,0,.512,1.622,1.622,0,0,0-.534,1.371,1.061,1.061,0,0,0,1.058.907c.2-.018.439-.085.553.074.066.1.066.247.17.291s.243-.1.339-.214a.586.586,0,0,1,.715-.118,2.734,2.734,0,0,1,.369,1.345c-.217.369-1.242.225-1.644.243a.586.586,0,0,0-.431.136c-.158.184-.029.475.147.641s.413.291.5.516a1.566,1.566,0,0,1-.221,1.209c-.1.085-.232.129-.335.217a.822.822,0,0,0-.166.848c.081.295.236.564.295.862.118.638-.232,1.33.022,1.928.122.287.5.516.737.313s.2-.59.472-.619.579.619.792.737.509-.066.822.158C298.439,235.718,298.491,236.12,298.771,236.319Z" transform="translate(-247.97 -186.226)" fill="#fff"/>
        <path id="Path_4187" data-name="Path 4187" d="M190.819,147.976c.265-.339.435-.737.932-.814.678-.118.932.262.638.907a.262.262,0,0,0-.041.181c.044.2.339.081.5-.029a1.341,1.341,0,0,1,1.3-.063,6.261,6.261,0,0,0,.184-2.031c-.339-.737-1.905-.394-1.585-1.209.59,0,1.19.063,1.776.107l.1-.848c-.026.21,1.069.166,1.194.1.483-.247.35-1.106,1.216-.98,1.106.181,1.157,2.333-.088,1.979a5.613,5.613,0,0,0-.442,2.086h-.678a.619.619,0,0,0-.081.549,1.688,1.688,0,0,0,1.869,0c.369.273.859,0,1.224-.247a1.4,1.4,0,0,0,2.359-.184,1.426,1.426,0,0,0-1.511-1.843,2.174,2.174,0,0,0-.461-1.249,2.827,2.827,0,0,0,2.705-1.876c.192-.56.236-1.238.708-1.6.21-.158.475-.225.7-.369a2.133,2.133,0,0,0,.711-1.566q.077-.593.111-1.183a29.981,29.981,0,0,0-17.757,9.877,1.168,1.168,0,0,0,.044.608,1.294,1.294,0,0,0,.94.582c1.437.369,2.355.3,3.35-.822A1.014,1.014,0,0,0,190.819,147.976Z" transform="translate(-180.035 -137.8)" fill="#fff"/>
      </g>
    </g>
    <g id="freepik--Connections--inject-115" transform="translate(16.776 49.367)">
      <path id="Path_4188" data-name="Path 4188" d="M50.23,125.769a4.386,4.386,0,1,0,1.285-3.1,4.393,4.393,0,0,0-1.285,3.1Z" transform="translate(-48.494 -85.911)" fill="#0f3b5e"/>
      <circle id="Ellipse_264" data-name="Ellipse 264" cx="4.139" cy="4.139" r="4.139" transform="translate(1.378 36.327) rotate(-9.22)" fill="#fff" opacity="0.3"/>
      <path id="Path_4189" data-name="Path 4189" d="M55.464,127.51a.663.663,0,0,0,.509.612.94.94,0,0,0,0,.615c.122.335.8.335.8.335a.343.343,0,0,0,.306.206c0,.022.033.037.044.055l.1.133a2.3,2.3,0,0,1-.258,1.725c-.284.029-.568.07-.851.114-.136.018-.269.044-.4.07a4.386,4.386,0,0,0,4.894-.346H59.437v-.018a.885.885,0,0,1-.8-.582,1.308,1.308,0,0,1-.055-.453,1.632,1.632,0,0,0,.369-.122,1.493,1.493,0,0,0,.737-.818,1.043,1.043,0,0,0,.052-.151,3.844,3.844,0,0,0,.1-1.308.619.619,0,0,0,.3-.42.453.453,0,0,0-.31-.553.586.586,0,0,0,.446-.6.468.468,0,0,0-.45-.545s.158-.229-.151-.66a.553.553,0,0,0-.737-.166.866.866,0,0,0-.862-.369.929.929,0,0,0-.671.442s0-.317-.608-.14a.822.822,0,0,0-.534.873.446.446,0,0,0-.619.232c-.21.439.247,1.205.247,1.205A.6.6,0,0,0,55.464,127.51Z" transform="translate(-51.797 -87.294)" fill="#0f3b5e"/>
      <path id="Path_4190" data-name="Path 4190" d="M50.23,125.769a4.386,4.386,0,1,0,1.285-3.1,4.393,4.393,0,0,0-1.285,3.1Z" transform="translate(-48.494 -85.911)" fill="#fff" opacity="0.7"/>
      <circle id="Ellipse_265" data-name="Ellipse 265" cx="3.903" cy="3.903" r="3.903" transform="translate(0 159.813)" fill="#0f3b5e"/>
      <path id="Path_4191" data-name="Path 4191" d="M53.471,336.165A3.656,3.656,0,1,1,52.4,333.55,3.685,3.685,0,0,1,53.471,336.165Z" transform="translate(-45.886 -172.449)" fill="#fff" opacity="0.3"/>
      <path id="Path_4192" data-name="Path 4192" d="M54.325,340.132a3.685,3.685,0,0,1-4.979.785c.122-.28.2-.45.2-.45a10.93,10.93,0,0,1,1.4-.343,1.106,1.106,0,0,1,.483-.24,1.415,1.415,0,0,0-.026-.837,1.444,1.444,0,0,1-.369-.369.906.906,0,0,1-.2-.2,1.749,1.749,0,0,1-.936-1.7,1.106,1.106,0,0,1,0-.155c-.243-.026-.5.052-.321.545a1.5,1.5,0,0,1,0,1.3,3.2,3.2,0,0,0-.029-.564c0,.881-.475.936-.475.936s.3-.317-.144-1.294-.317-2.307.534-2.362a1.106,1.106,0,0,1,.94.394,1.419,1.419,0,0,1,1.666-.2s.763-.184.98,0c.044.044,0,.144-.081.276a1.01,1.01,0,0,1,.428.63,1.529,1.529,0,0,1-.21,1.2c.1.966-.063,1.692-.833,1.758v.17a1.076,1.076,0,0,0,.055.413,2.152,2.152,0,0,1,.321.088c.689,0,1.474.074,1.474.074h0a1.077,1.077,0,0,1,.122.133Z" transform="translate(-47.514 -174.16)" fill="#0f3b5e"/>
      <circle id="Ellipse_266" data-name="Ellipse 266" cx="3.903" cy="3.903" r="3.903" transform="translate(0 159.813)" fill="#fff" opacity="0.7"/>
      <circle id="Ellipse_267" data-name="Ellipse 267" cx="4.308" cy="4.308" r="4.308" transform="translate(256.451 110.624) rotate(-45)" fill="#0f3b5e"/>
      <path id="Path_4193" data-name="Path 4193" d="M441.018,252.814a4.054,4.054,0,1,1-4.054-4.054,4.054,4.054,0,0,1,4.054,4.054Z" transform="translate(-174.412 -142.431)" fill="#fff" opacity="0.3"/>
      <path id="Path_4194" data-name="Path 4194" d="M442.984,256.488a4.054,4.054,0,0,1-5.867.958,2.43,2.43,0,0,1,.022-.667c.052-.494.623-.9.615-1.242s-.59-.8-.217-1a1.086,1.086,0,0,0,.155-1.4.947.947,0,0,1,.022-1.319,1.725,1.725,0,0,1,1.106-.6,2.067,2.067,0,0,1,1.2-.173,2.58,2.58,0,0,1,1.194.405,1.769,1.769,0,0,1,.623.767,2.414,2.414,0,0,1,.125,1.758c-.2.582.7.549.737,1.08s-.424.564-.343.921C442.384,256.131,442.7,256.286,442.984,256.488Z" transform="translate(-177.06 -143.687)" fill="#0f3b5e"/>
      <circle id="Ellipse_268" data-name="Ellipse 268" cx="4.308" cy="4.308" r="4.308" transform="translate(256.451 110.624) rotate(-45)" fill="#fff" opacity="0.7"/>
      <rect id="Rectangle_663" data-name="Rectangle 663" width="35.83" height="0.369" transform="matrix(0.917, -0.398, 0.398, 0.917, 187.287, 62.737)" fill="#0f3b5e"/>
      <rect id="Rectangle_664" data-name="Rectangle 664" width="0.369" height="26.705" transform="matrix(0.85, -0.526, 0.526, 0.85, 91.379, 12.795)" fill="#0f3b5e"/>
      <rect id="Rectangle_665" data-name="Rectangle 665" width="37.257" height="0.369" transform="translate(18.021 117.989) rotate(-11.83)" fill="#0f3b5e"/>
      <rect id="Rectangle_666" data-name="Rectangle 666" width="35.83" height="0.369" transform="matrix(0.917, -0.398, 0.398, 0.917, 187.287, 62.737)" fill="#fff" opacity="0.8"/>
      <rect id="Rectangle_667" data-name="Rectangle 667" width="0.369" height="39.519" transform="matrix(0.847, -0.531, 0.531, 0.847, 186.855, 111.564)" fill="#0f3b5e"/>
      <rect id="Rectangle_668" data-name="Rectangle 668" width="0.369" height="39.519" transform="matrix(0.847, -0.531, 0.531, 0.847, 186.855, 111.564)" fill="#fff" opacity="0.8"/>
      <rect id="Rectangle_669" data-name="Rectangle 669" width="0.369" height="26.705" transform="matrix(0.85, -0.526, 0.526, 0.85, 91.379, 12.795)" fill="#fff" opacity="0.8"/>
      <rect id="Rectangle_670" data-name="Rectangle 670" width="37.257" height="0.369" transform="translate(18.021 117.989) rotate(-11.83)" fill="#fff" opacity="0.8"/>
      <path id="Path_4195" data-name="Path 4195" d="M129.7,241.02,94,189.3l5.049-58.821.041-.068,26.9-46.521h.07L174.812,73.5l29.768,39.752v.148l-7.71,106.756-.133.04ZM94.391,189.093l35.429,51.314,66.707-20.728L204.2,113.445,174.712,74.091,126.174,84.426,99.4,130.726Z" transform="translate(-76.133 -67.717)" fill="#0f3b5e"/>
      <path id="Path_4196" data-name="Path 4196" d="M129.7,241.02,94,189.3l5.049-58.821.041-.068,26.9-46.521h.07L174.812,73.5l29.768,39.752v.148l-7.71,106.756-.133.04ZM94.391,189.093l35.429,51.314,66.707-20.728L204.2,113.445,174.712,74.091,126.174,84.426,99.4,130.726Z" transform="translate(-76.133 -67.717)" fill="#fff" opacity="0.8"/>
      <path id="Path_4197" data-name="Path 4197" d="M218.786,153.88l-.553,3.228-.553-3.228Z" transform="translate(-105.861 -101.12)" fill="#0f3b5e"/>
      <path id="Path_4198" data-name="Path 4198" d="M218.039,151.139a1.6,1.6,0,1,1-1.6-1.6A1.6,1.6,0,0,1,218.039,151.139Z" transform="translate(-104.201 -99.167)" fill="#0f3b5e"/>
      <path id="Path_4199" data-name="Path 4199" d="M217.291,150.551c.177.232.037.641-.317.907s-.778.295-.958.063-.037-.641.313-.907S217.111,150.319,217.291,150.551Z" transform="translate(-105.148 -99.815)" fill="#fff" opacity="0.3"/>
      <path id="Path_4200" data-name="Path 4200" d="M303.906,182.31l-.553,3.228-.553-3.228Z" transform="translate(-135.696 -113.937)" fill="#0f3b5e"/>
      <circle id="Ellipse_269" data-name="Ellipse 269" cx="1.599" cy="1.599" r="1.599" transform="translate(166.259 65.985)" fill="#0f3b5e"/>
      <path id="Path_4201" data-name="Path 4201" d="M302.41,178.979c.181.232.037.641-.313.907s-.781.295-.958.063-.037-.641.313-.907S302.233,178.743,302.41,178.979Z" transform="translate(-134.935 -112.712)" fill="#fff" opacity="0.3"/>
      <path id="Path_4202" data-name="Path 4202" d="M193.086,256.02l-.553,3.228-.553-3.228Z" transform="translate(-96.854 -147.166)" fill="#0f3b5e"/>
      <circle id="Ellipse_270" data-name="Ellipse 270" cx="1.599" cy="1.599" r="1.599" transform="translate(93.846 106.462)" fill="#0f3b5e"/>
      <path id="Path_4203" data-name="Path 4203" d="M191.591,252.721c.177.232.037.641-.313.907s-.781.3-.962.063-.037-.641.317-.907S191.411,252.474,191.591,252.721Z" transform="translate(-96.156 -146.165)" fill="#fff" opacity="0.3"/>
      <path id="Path_4204" data-name="Path 4204" d="M315.336,240.47l-.553,3.225-.553-3.225Z" transform="translate(-139.702 -140.157)" fill="#0f3b5e"/>
      <path id="Path_4205" data-name="Path 4205" d="M314.589,237.723a1.6,1.6,0,1,1-.467-1.133A1.6,1.6,0,0,1,314.589,237.723Z" transform="translate(-137.662 -138.203)" fill="#0f3b5e"/>
      <path id="Path_4206" data-name="Path 4206" d="M313.84,237.129c.181.236.041.641-.313.91s-.781.295-.958.063-.037-.641.313-.91S313.663,236.9,313.84,237.129Z" transform="translate(-138.934 -139.093)" fill="#fff" opacity="0.3"/>
      <circle id="Ellipse_271" data-name="Ellipse 271" cx="6.708" cy="6.708" r="6.708" transform="translate(167.482 0)" fill="#0f3b5e"/>
      <path id="Path_4207" data-name="Path 4207" d="M307.579,65.171a6.3,6.3,0,1,1-1.846-4.475A6.324,6.324,0,0,1,307.579,65.171Z" transform="translate(-127.17 -58.467)" fill="#fff" opacity="0.3"/>
      <path id="Path_4208" data-name="Path 4208" d="M308.379,70.763a6.321,6.321,0,0,1-9.509-.273l.1-.033a1.356,1.356,0,0,1,.313-.313.26.26,0,0,1,0-.052h.111a1.3,1.3,0,0,1,.693-.181,1.267,1.267,0,0,1,.2,0l.394-.074v.111l2.13.144a1.106,1.106,0,0,0,.391-.553,1.913,1.913,0,0,0,.077-.737,2.252,2.252,0,0,1-.885-.232,2.289,2.289,0,0,1-1.106-1.246,2.25,2.25,0,0,1-.066-.225,5.694,5.694,0,0,1-.033-2.388h-.066a.066.066,0,0,1-.055-.07h0a.074.074,0,0,1,.085-.063h.018a4.792,4.792,0,0,1,.107-1.426,1.7,1.7,0,0,1,0-1.445c.236-.339.052-.155.671-.21s.247-.6.641-.608.313.243.8.428.306-.369.859-.42.627.369,1.021.472a1.879,1.879,0,0,0,.763,0c.287,0,.313.84.435,1s.328-.077.59.369a.4.4,0,0,1,.044.206,4.508,4.508,0,0,1-.693,1.614c-.033.243-.077.5-.144.785a.715.715,0,0,1,.125.833,1.537,1.537,0,0,1-.612.652,4.52,4.52,0,0,1-.4.7,5.317,5.317,0,0,0,.07,2.823A21.433,21.433,0,0,1,308.379,70.763Z" transform="translate(-130.147 -59.755)" fill="#0f3b5e"/>
      <circle id="Ellipse_272" data-name="Ellipse 272" cx="6.708" cy="6.708" r="6.708" transform="translate(167.482 0)" fill="#fff" opacity="0.5"/>
      <circle id="Ellipse_273" data-name="Ellipse 273" cx="6.708" cy="6.708" r="6.708" transform="translate(82.278 172.516) rotate(-45)" fill="#0f3b5e"/>
      <path id="Path_4209" data-name="Path 4209" d="M186.519,355.53a6.291,6.291,0,1,1-1.848-4.483A6.324,6.324,0,0,1,186.519,355.53Z" transform="translate(-87.538 -183.013)" fill="#fff" opacity="0.2"/>
      <path id="Path_4210" data-name="Path 4210" d="M189.244,362.123a6.321,6.321,0,0,1-7.924.623c.461-.066.943-.122,1.434-.173a6.222,6.222,0,0,0,.081-3.262,5.371,5.371,0,0,1-.453-.807,1.743,1.743,0,0,1-.708-.737.837.837,0,0,1,.14-.966,7.371,7.371,0,0,1-.2-1.522h-.029a2.256,2.256,0,0,1,1.393-2.683,4.662,4.662,0,0,1,3.822.568s.413-.767.9-.568c.42.17.2.715.118.881a1.025,1.025,0,0,1,.431-.369c.335-.151.8.276-.243,1.319a1.365,1.365,0,0,1-.369.265,5.068,5.068,0,0,1,.029,1.426,6.556,6.556,0,0,1-.041,2.753,2.026,2.026,0,0,1-.081.265,2.58,2.58,0,0,1-1.26,1.434,2.422,2.422,0,0,1-1.021.273,2.418,2.418,0,0,0,.085.84,1.312,1.312,0,0,0,.453.638c1.006-.066,1.883-.118,2.462-.166a1.175,1.175,0,0,0,0-.125l.457.085A1.843,1.843,0,0,1,189.244,362.123Z" transform="translate(-91.323 -185.014)" fill="#0f3b5e"/>
      <circle id="Ellipse_274" data-name="Ellipse 274" cx="6.708" cy="6.708" r="6.708" transform="translate(82.278 172.516) rotate(-45)" fill="#fff" opacity="0.5"/>
      <circle id="Ellipse_275" data-name="Ellipse 275" cx="6.708" cy="6.708" r="6.708" transform="translate(15.023 66.921) rotate(-76.72)" fill="#0f3b5e"/>
      <path id="Path_4211" data-name="Path 4211" d="M103.669,163.221a6.3,6.3,0,1,1-1.847-4.476A6.324,6.324,0,0,1,103.669,163.221Z" transform="translate(-74.251 -100.956)" fill="#fff" opacity="0.2"/>
      <path id="Path_4212" data-name="Path 4212" d="M104.829,169.937a6.328,6.328,0,0,1-8.44.9l2.506-.774c.048.052.092.111.14.173l.321-.063c.2-.037.4-.063.6-.1a1.876,1.876,0,0,0,.251-.774h-.346c.07-.251-.3-.77-.3-.77l-.125.686a1.326,1.326,0,0,1-.42-.147c-.17-.107-.369-.855-.369-.855s-.435.737-.531.9-.346,0-.346,0a2.55,2.55,0,0,1,.041-1.279.435.435,0,0,0-.442-.634,2.267,2.267,0,0,1-.166.715,2.211,2.211,0,0,0-.17.936c0,.265.022.453-.166.453s-.214-.17-.192-.453-.273-.557-.1-.789.041-.862.041-.862c-.1.442-.59.42-.671.737s.229.759.081.918-.4,0-.4,0,.21-.346.063-.549-.369-.3-.276-.715.295-.409.236-.862-.276-.431,0-.6a2.241,2.241,0,0,0,.63-1.312c0-.369-.147-1.146.442-1.426s.737-.5.63-1.242.461-.689,1.179-.542c0,0,.369-.568.693-.461s.59.041.66-.147,1-.17,1.142,0a1.006,1.006,0,0,0,.94.166c.306-.125,1.106.369,1.106.715s-.022.527.413.719.516.295.7,1.047-.125,1.058.254,1.349.335,1.452.369,1.813a4.731,4.731,0,0,1,0,.737l-.107.029c-.1.029-.188-.387-.17-.7s-.638-.737-.693-.763c0,.029.133.287.21.49a3.637,3.637,0,0,1,.085,1.128c-.022.369.4.557.4.557l-.461.232a2.176,2.176,0,0,1-.236-1.165.844.844,0,0,0-.229-.737v.737s-.125.273-.313.63.147.464.2.652-.413.2-.413.2l-.088-.453-.158.453a2.388,2.388,0,0,1-.91.28,1.54,1.54,0,0,0,.184.719l.45-.022h.9C103.945,169.878,104.461,169.912,104.829,169.937Z" transform="translate(-77.011 -102.947)" fill="#0f3b5e"/>
      <circle id="Ellipse_276" data-name="Ellipse 276" cx="6.708" cy="6.708" r="6.708" transform="translate(15.023 66.921) rotate(-76.72)" fill="#fff" opacity="0.5"/>
    </g>
    <g id="freepik--character-4--inject-115" transform="translate(243.969 64.896)">
      <path id="Path_4213" data-name="Path 4213" d="M385.005,124.672a12.251,12.251,0,0,1-2.451,7.371,12.571,12.571,0,0,1-3.9,3.391,12.273,12.273,0,0,1-11,.42c-.144-.059-.287-.129-.427-.2h0a11.8,11.8,0,0,1-2.41-1.581,12.287,12.287,0,1,1,20.208-9.391Z" transform="translate(-355.849 -107.801)" fill="#0f3b5e"/>
      <circle id="Ellipse_277" data-name="Ellipse 277" cx="11.93" cy="11.93" r="11.93" transform="translate(0 16.872) rotate(-45)" fill="#fff" opacity="0.7"/>
      <path id="Path_4214" data-name="Path 4214" d="M368.455,145.6l1.154-4.791s.737-.582.774-1.006-.45-2.926-.767-3.077-2.189.5-2.278,1.036a8.718,8.718,0,0,0,.792,2.808l-1.891,5.565Z" transform="translate(-359.506 -123.154)" fill="#e4897b"/>
      <path id="Path_4215" data-name="Path 4215" d="M369,152.147l-.693,6.265a11.852,11.852,0,0,1-2.668-3.2c.428-1.507.859-2.86,1.061-3.468.066-.217.107-.339.107-.339l.4.052,1.64.206.2.026Z" transform="translate(-359.127 -132.442)" fill="#0f3b5e"/>
      <path id="Path_4216" data-name="Path 4216" d="M376.718,159.527l-1.069,3.977c-.14-.059-.28-.129-.413-.2h0a11.5,11.5,0,0,1-2.337-1.541c.085-.192,2.274-5.134,3.092-5.075Z" transform="translate(-363.712 -135.776)" fill="#0f3b5e"/>
      <path id="Path_4217" data-name="Path 4217" d="M369,152.147l-.693,6.265a11.852,11.852,0,0,1-2.668-3.2c.428-1.507.859-2.86,1.061-3.468.066-.217.107-.339.107-.339l.4.052,1.64.206.2.026Z" transform="translate(-359.127 -132.442)" opacity="0.3"/>
      <path id="Path_4218" data-name="Path 4218" d="M376.718,159.527l-1.069,3.977c-.14-.059-.28-.129-.413-.2h0a11.5,11.5,0,0,1-2.337-1.541c.085-.192,2.274-5.134,3.092-5.075Z" transform="translate(-363.712 -135.776)" opacity="0.3"/>
      <path id="Path_4219" data-name="Path 4219" d="M371.023,151.04l-.376.848-2.617-.435.059-.483Z" transform="translate(-360.637 -132.165)" fill="#0f3b5e"/>
      <path id="Path_4220" data-name="Path 4220" d="M393.748,131.839c-.306,1.172,1.364,4.4.686,10.264s-7.109,5.506-10,3.553-2.392-12.571-1.4-14.665S393.748,131.839,393.748,131.839Z" transform="translate(-369.619 -119.074)" fill="#263238"/>
      <path id="Path_4221" data-name="Path 4221" d="M393.556,157.648c-.063.173-.114.339-.173.509s-.118.335-.173.5c-.107.321-.21.638-.313.943-.206.612-.391,1.194-.568,1.743a11.233,11.233,0,0,1-1.968,1.367,11.919,11.919,0,0,1-10.688.416c-.14-.059-.28-.129-.413-.2v-.693c0-.339.018-.652.026-.951,0-.2.018-.391.022-.568v-.273c.018-.328.033-.623.055-.9a1.268,1.268,0,0,1,.018-.265c0-.262.041-.494.055-.711a6.279,6.279,0,0,1,.435-2.119.436.436,0,0,1,.063-.092c.033-.041.052-.044.052-.044l.483-.041c.8-.07,2.447-.184,3.94-.177h.085a4,4,0,0,1,.593.029c.77.041,1.541.107,2.3.2l.848.118c.306.044.612.1.918.147l.129.026a29.824,29.824,0,0,1,3.343.763c.306.085.612.177.914.273Z" transform="translate(-367.728 -135.397)" fill="#0f3b5e"/>
      <path id="Path_4222" data-name="Path 4222" d="M393.519,157.636h0c-.059.166-.118.332-.166.5s-.118.335-.173.5c-.107.321-.21.638-.313.943-.206.612-.391,1.194-.568,1.743a11.232,11.232,0,0,1-1.968,1.367,11.919,11.919,0,0,1-10.688.416c-.14-.059-.28-.129-.413-.2h0v-.689c0-.339.018-.652.026-.951,0-.2.018-.391.022-.568v-.273c0-.328.033-.623.055-.9a1.269,1.269,0,0,1,.018-.265c0-.262.041-.494.055-.711a6.279,6.279,0,0,1,.435-2.119.435.435,0,0,1,.063-.092c.033-.041.052-.044.052-.044l.483-.041c.8-.07,2.447-.184,3.94-.177h.085a4,4,0,0,1,.593.029c.77.041,1.541.107,2.3.2l.848.118c.306.044.612.1.918.147l.129.026a29.823,29.823,0,0,1,3.343.763C392.925,157.448,393.231,157.54,393.519,157.636Z" transform="translate(-367.709 -135.384)" opacity="0.3"/>
      <path id="Path_4223" data-name="Path 4223" d="M393.408,155.2c2.631.206,2.948,1,2.676,1.419s-3.848,3.9-4.92,6.236C391.163,162.85,387.3,154.716,393.408,155.2Z" transform="translate(-374.483 -134.82)" fill="#fff"/>
      <path id="Path_4224" data-name="Path 4224" d="M394.128,152.649c2.606-.335,3.391-1.448,3.391-1.448-1.655-1.559-.28-4.26-.28-4.26l-3.136.582a9.239,9.239,0,0,1,.122,1.323c.026,1.9-.837,1.92-.837,1.92C392.838,151.8,394.128,152.649,394.128,152.649Z" transform="translate(-376.562 -129.62)" fill="#e4897b"/>
      <path id="Path_4225" data-name="Path 4225" d="M395.56,147.522a9.248,9.248,0,0,1,.122,1.323,3.491,3.491,0,0,0,3.015-1.905Z" transform="translate(-378.021 -129.62)" opacity="0.2"/>
      <path id="Path_4226" data-name="Path 4226" d="M393.134,124.712c-2.724-.147-3.685,1.264-4.036,4.054-.442,3.5.2,6.033,3.649,5.469C397.431,133.48,397.664,124.963,393.134,124.712Z" transform="translate(-373.862 -115.577)" fill="#e4897b"/>
      <path id="Path_4227" data-name="Path 4227" d="M392.645,135.6a5.839,5.839,0,0,1-.855,1.106.737.737,0,0,0,.7.346Z" transform="translate(-375.64 -122.459)" fill="#de5753"/>
      <path id="Path_4228" data-name="Path 4228" d="M398.67,134.608c0,.225.092.416.24.428s.284-.162.3-.369-.088-.416-.24-.428S398.688,134.383,398.67,134.608Z" transform="translate(-379.984 -121.599)" fill="#263238"/>
      <path id="Path_4229" data-name="Path 4229" d="M398.852,133.849l-.472-.229S398.608,134.048,398.852,133.849Z" transform="translate(-379.801 -121.209)" fill="#263238"/>
      <path id="Path_4230" data-name="Path 4230" d="M391.136,133.887c-.018.225.088.416.24.428s.284-.158.3-.369-.092-.413-.24-.428S391.155,133.666,391.136,133.887Z" transform="translate(-375.226 -121.144)" fill="#263238"/>
      <path id="Path_4231" data-name="Path 4231" d="M391.322,133.138l-.472-.228S391.06,133.338,391.322,133.138Z" transform="translate(-375.046 -120.761)" fill="#263238"/>
      <path id="Path_4232" data-name="Path 4232" d="M399.975,130.522a.118.118,0,0,1-.1-.055,1.312,1.312,0,0,0-1.05-.424.125.125,0,0,1-.133-.118.118.118,0,0,1,.114-.133,1.522,1.522,0,0,1,1.272.527.129.129,0,0,1-.026.177A.136.136,0,0,1,399.975,130.522Z" transform="translate(-379.995 -118.789)" fill="#263238"/>
      <path id="Path_4233" data-name="Path 4233" d="M390.462,129.5a.125.125,0,0,1-.066-.236,1.386,1.386,0,0,1,1.216-.17.122.122,0,0,1,.063.166.125.125,0,0,1-.162.066,1.153,1.153,0,0,0-.988.155A.1.1,0,0,1,390.462,129.5Z" transform="translate(-374.717 -118.31)" fill="#263238"/>
      <path id="Path_4234" data-name="Path 4234" d="M394.62,141.765a6.85,6.85,0,0,1,.265.966h.177c.8-.037,1.154-.317,1.308-.619a1.028,1.028,0,0,0,.107-.475.986.986,0,0,0-.037-.276,3.785,3.785,0,0,1-1.552.4C394.723,141.765,394.62,141.765,394.62,141.765Z" transform="translate(-377.427 -126.096)" fill="#263238"/>
      <path id="Path_4235" data-name="Path 4235" d="M395.35,141.738l.088.28a2.4,2.4,0,0,0,1.5-.4.988.988,0,0,0-.037-.276A3.785,3.785,0,0,1,395.35,141.738Z" transform="translate(-377.888 -126.084)" fill="#fff"/>
      <path id="Path_4236" data-name="Path 4236" d="M395.82,144c.8-.037,1.154-.317,1.308-.619a2.639,2.639,0,0,0-.873.229.958.958,0,0,0-.435.391Z" transform="translate(-378.185 -127.372)" fill="#de5753"/>
      <path id="Path_4237" data-name="Path 4237" d="M396.157,127.645a8.192,8.192,0,0,1-.862-4.028s-5.281-2.5-5.849,2.948c0,0-.262-4.9,4.423-4.751s4.3,7,1.765,8.915C395.641,130.748,396.872,129.09,396.157,127.645Z" transform="translate(-374.158 -113.752)" fill="#263238"/>
      <path id="Path_4238" data-name="Path 4238" d="M406.328,137.366a1.2,1.2,0,0,1,1.349-1.025c.837.14,1.146,1.894-.977,2.211C406.394,138.582,406.239,138.28,406.328,137.366Z" transform="translate(-384.804 -122.921)" fill="#e4897b"/>
      <path id="Path_4239" data-name="Path 4239" d="M390.769,121.4a10.319,10.319,0,0,0,1.588,6.416,3.659,3.659,0,0,1-.229,4.345s2.724-1.732,2.819-4.345c0,0,2.248-6.247-2.421-7.931,0,0-.018-1.4-3.063-1.139a6.937,6.937,0,0,0-5.959,6.2,14.68,14.68,0,0,0,1.268,7.032S382.93,120.184,390.769,121.4Z" transform="translate(-370.358 -111.794)" fill="#263238"/>
      <path id="Path_4240" data-name="Path 4240" d="M402.9,125.934a7.739,7.739,0,0,0-.229,2.414,11.939,11.939,0,0,0,.391,2.44,10.244,10.244,0,0,0,.914,2.3,6.718,6.718,0,0,0,1.541,1.939,6.73,6.73,0,0,1-1.622-1.894,10.379,10.379,0,0,1-1.01-2.3,12.506,12.506,0,0,1-.49-2.473,8.153,8.153,0,0,1,.151-2.547Z" transform="translate(-382.311 -116.284)" fill="#263238"/>
      <path id="Path_4241" data-name="Path 4241" d="M413.165,162.108a11.384,11.384,0,0,1-1.817,1.924,11.233,11.233,0,0,1-1.968,1.367c.041-.155.092-.313.147-.472a12.162,12.162,0,0,1,1.964-3.369,12.9,12.9,0,0,1,1.076-1.209h0A3.019,3.019,0,0,1,413.165,162.108Z" transform="translate(-386.747 -138.088)" fill="#0f3b5e"/>
      <path id="Path_4242" data-name="Path 4242" d="M413.165,162.108a11.384,11.384,0,0,1-1.817,1.924,11.233,11.233,0,0,1-1.968,1.367c.041-.155.092-.313.147-.472a12.162,12.162,0,0,1,1.964-3.369,12.9,12.9,0,0,1,1.076-1.209h0A3.019,3.019,0,0,1,413.165,162.108Z" transform="translate(-386.747 -138.088)" opacity="0.3"/>
    </g>
    <g id="freepik--character-3--inject-115" transform="translate(212.949 189.198)">
      <circle id="Ellipse_278" data-name="Ellipse 278" cx="13.179" cy="13.179" r="13.179" transform="translate(0 18.638) rotate(-45)" fill="#0f3b5e"/>
      <path id="Path_4243" data-name="Path 4243" d="M364.727,306.281a12.678,12.678,0,0,1-1.367,5.749c-.173.346-.369.682-.568,1.01a8.652,8.652,0,0,1-.5.737,12.737,12.737,0,0,1-2.672,2.724c-.232.181-.472.343-.719.509a12.776,12.776,0,0,1-12.276.929c-.206-.1-.413-.2-.615-.3h0a12.943,12.943,0,0,1-5.362-5.278c-.17-.313-.328-.645-.472-.977h0a12.811,12.811,0,1,1,24.56-5.112Z" transform="translate(-333.279 -287.644)" fill="#fff" opacity="0.7"/>
      <g id="freepik--group--inject-115" transform="translate(6.896 8.061)">
        <path id="Path_4244" data-name="Path 4244" d="M348.124,319.857a6.54,6.54,0,0,1-.792.962l-1.106,5.23-.737,3.413a13,13,0,0,1-2.259-3.007c.088-.276.184-.56.276-.855.781-2.425,1.681-5.23,1.747-5.506.118-.494-.313-2.919-.214-3.361s2.311-.969,2.79-.962S348.3,319.54,348.124,319.857Z" transform="translate(-342.777 -309.789)" fill="#9f5b53"/>
        <path id="Path_4245" data-name="Path 4245" d="M349.076,342.254v.018l-.464,4.765-.162,1.629c-.206-.1-.413-.2-.615-.3h0a12.943,12.943,0,0,1-5.362-5.278c-.17-.313-.328-.645-.472-.977l.737.122,2.705.45.582.1-.682,3.317S347.83,342.626,349.076,342.254Z" transform="translate(-342 -326.421)" fill="#0f3b5e"/>
        <path id="Path_4246" data-name="Path 4246" d="M349.076,342.254v.018l-.464,4.765-.162,1.629c-.206-.1-.413-.2-.615-.3h0a12.943,12.943,0,0,1-5.362-5.278c-.17-.313-.328-.645-.472-.977l.737.122,2.705.45.582.1-.682,3.317S347.83,342.626,349.076,342.254Z" transform="translate(-342 -326.421)" opacity="0.3"/>
        <path id="Path_4247" data-name="Path 4247" d="M375.175,341.278c-.173.346-.369.682-.568,1.01a8.664,8.664,0,0,1-.5.737,12.736,12.736,0,0,1-2.672,2.724c-.232.181-.472.343-.719.509a12.776,12.776,0,0,1-12.276.929c-.206-.1-.413-.2-.615-.3h0a41.831,41.831,0,0,1,1.242-6.092v-.018a27.077,27.077,0,0,1,4.054-.829h.066a50.487,50.487,0,0,1,5.93-.125h0a27.661,27.661,0,0,1,4.109.413A11.493,11.493,0,0,1,375.175,341.278Z" transform="translate(-351.99 -324.952)" fill="#0f3b5e"/>
        <path id="Path_4248" data-name="Path 4248" d="M375.175,341.278c-.173.346-.369.682-.568,1.01a8.664,8.664,0,0,1-.5.737,12.736,12.736,0,0,1-2.672,2.724c-.232.181-.472.343-.719.509a12.776,12.776,0,0,1-12.276.929c-.206-.1-.413-.2-.615-.3h0a41.831,41.831,0,0,1,1.242-6.092v-.018a27.077,27.077,0,0,1,4.054-.829h.066a50.487,50.487,0,0,1,5.93-.125h0a27.661,27.661,0,0,1,4.109.413A11.493,11.493,0,0,1,375.175,341.278Z" transform="translate(-351.99 -324.952)" opacity="0.3"/>
        <path id="Path_4249" data-name="Path 4249" d="M371.43,348c-.232.181-.472.343-.719.509a12.776,12.776,0,0,1-12.276.929c-.206-.1-.413-.2-.615-.3h0c.018-.111.033-.214.048-.317a11.893,11.893,0,0,1,.737-1.01,34.4,34.4,0,0,1,4.117-4.205,2.362,2.362,0,0,0,1.434.737,5.694,5.694,0,0,0,3.737-1.01,28.736,28.736,0,0,1,2.009,2.211,11.578,11.578,0,0,1,1.36,2.045C371.32,347.73,371.379,347.871,371.43,348Z" transform="translate(-351.99 -327.192)" fill="#fff" opacity="0.8"/>
        <path id="Path_4250" data-name="Path 4250" d="M377.987,328.432a6.2,6.2,0,0,1-4.364,1.979c-2.48.111-1.651-1.843-1.651-1.843a2.371,2.371,0,0,0,1.67-1.183,3.451,3.451,0,0,0,.022-2.307l-.044-.17,3.626-3.228C376.91,323.6,376.608,327.149,377.987,328.432Z" transform="translate(-360.842 -313.521)" fill="#9f5b53"/>
        <path id="Path_4251" data-name="Path 4251" d="M379.737,326.341c-.192,1.246-1.706,2.469-3.007,2.856a3.451,3.451,0,0,0,.022-2.307l3-2.3A4.663,4.663,0,0,1,379.737,326.341Z" transform="translate(-363.93 -315.358)" opacity="0.2"/>
        <path id="Path_4252" data-name="Path 4252" d="M373.295,308.26c.859.969.081,2.045-2.753,3.317-.638-1.474-.181-3.932.737-4.341S372.543,307.435,373.295,308.26Z" transform="translate(-359.835 -304.317)" fill="#263238"/>
        <path id="Path_4253" data-name="Path 4253" d="M375.681,310.608c-.763,2.517-1.084,4.025-2.679,5.031a3.491,3.491,0,0,1-5.281-3.1c0-2.418,1.242-6.125,3.98-6.545a3.586,3.586,0,0,1,4.1,2.974A3.63,3.63,0,0,1,375.681,310.608Z" transform="translate(-358.241 -303.587)" fill="#9f5b53"/>
        <path id="Path_4254" data-name="Path 4254" d="M377.664,317.24c-.048.206-.2.35-.335.317s-.2-.225-.155-.431.2-.369.332-.321S377.7,317.049,377.664,317.24Z" transform="translate(-364.201 -310.437)" fill="#263238"/>
        <path id="Path_4255" data-name="Path 4255" d="M371.248,315.777c-.048.206-.2.369-.335.317a.352.352,0,0,1-.158-.435c.048-.21.2-.35.335-.317S371.3,315.581,371.248,315.777Z" transform="translate(-360.147 -309.515)" fill="#263238"/>
        <path id="Path_4256" data-name="Path 4256" d="M371.725,317.29a7.493,7.493,0,0,1-1.415,1.54,1.238,1.238,0,0,0,.951.42Z" transform="translate(-359.876 -310.749)" fill="#892b29"/>
        <path id="Path_4257" data-name="Path 4257" d="M379.268,314.888a.151.151,0,0,0,.081,0,.129.129,0,0,0,.066-.166,1.242,1.242,0,0,0-.873-.737.122.122,0,0,0-.144.092h0a.129.129,0,0,0,.1.144h0a.98.98,0,0,1,.682.59A.14.14,0,0,0,379.268,314.888Z" transform="translate(-364.983 -308.66)" fill="#263238"/>
        <path id="Path_4258" data-name="Path 4258" d="M369.544,312.51a.133.133,0,0,0,.129-.044,1,1,0,0,1,.814-.387.129.129,0,0,0,.14-.114.125.125,0,0,0-.111-.136,1.246,1.246,0,0,0-1.039.483.122.122,0,0,0,0,.173h0a.121.121,0,0,0,.066.026Z" transform="translate(-359.328 -307.299)" fill="#263238"/>
        <path id="Path_4259" data-name="Path 4259" d="M386.181,311.644c-1.29.125-1.448,1.445-.232,4.3,1.474-.656,2.808-2.764,2.414-3.685S387.313,311.534,386.181,311.644Z" transform="translate(-369.228 -307.122)" fill="#263238"/>
        <path id="Path_4260" data-name="Path 4260" d="M386.866,321.956a2.477,2.477,0,0,1-1.5,1.179c-.844.229-1.26-.527-1.021-1.319.217-.715.918-1.7,1.762-1.574a1.106,1.106,0,0,1,.759,1.714Z" transform="translate(-368.697 -312.606)" fill="#9f5b53"/>
        <path id="Path_4261" data-name="Path 4261" d="M373.094,303a3.3,3.3,0,0,0,2.141,3.431c2.41.785,3.317-.593,3.317-.593a4.873,4.873,0,0,1-.615-.1,2.631,2.631,0,0,0,.619-2.432,4.979,4.979,0,0,0-4.515-3.07,4.467,4.467,0,0,0-3.52-.542,3.41,3.41,0,0,0-2.211,2.783s.254-1.327,1.143-1.474c0,0-1.67,2.44-.369,3.531C369.1,304.5,369.917,301.921,373.094,303Z" transform="translate(-358.613 -299.541)" fill="#263238"/>
        <path id="Path_4262" data-name="Path 4262" d="M371.66,323.777a7,7,0,0,1,.49.9l.173-.048c.789-.221,1.08-.586,1.165-.921a1.068,1.068,0,0,0,0-.5,1.035,1.035,0,0,0-.1-.269,3.847,3.847,0,0,1-1.452.756A2.171,2.171,0,0,1,371.66,323.777Z" transform="translate(-360.729 -314.316)" fill="#263238"/>
        <path id="Path_4263" data-name="Path 4263" d="M372.39,323.724l.151.262a2.5,2.5,0,0,0,1.4-.737,1.035,1.035,0,0,0-.1-.269A3.848,3.848,0,0,1,372.39,323.724Z" transform="translate(-361.19 -314.342)" fill="#fff"/>
        <path id="Path_4264" data-name="Path 4264" d="M373.46,325.941c.789-.221,1.08-.586,1.165-.921a2.735,2.735,0,0,0-.826.42A1,1,0,0,0,373.46,325.941Z" transform="translate(-361.865 -315.63)" fill="#de5753"/>
      </g>
    </g>
    <g id="freepik--character-2--inject-115" transform="translate(94.373 50.267)">
      <circle id="Ellipse_279" data-name="Ellipse 279" cx="11.248" cy="11.248" r="11.248" fill="#0f3b5e"/>
      <path id="Path_4265" data-name="Path 4265" d="M172.045,72.132a10.821,10.821,0,0,1-2.263,6.634,10.619,10.619,0,0,1-1.294,1.408,10.135,10.135,0,0,1-1.4,1.076.166.166,0,0,1-.063.041,9.95,9.95,0,0,1-1.209.678,10.872,10.872,0,0,1-12.936-2.783h0a10.88,10.88,0,1,1,19.165-7.047Z" transform="translate(-149.918 -60.884)" fill="#fff" opacity="0.7"/>
      <g id="freepik--group--inject-115-2" data-name="freepik--group--inject-115" transform="translate(2.72 2.404)">
        <path id="Path_4266" data-name="Path 4266" d="M185.744,90.256c.24-.531.409-.3,1.106.236a1.754,1.754,0,0,1,.8,1.581c0,.568-.107,1.7-.107,1.7l1.8,2.016-.814,1.227-2.09-2.359a3.471,3.471,0,0,1-1.205-1.651A7.574,7.574,0,0,1,185.744,90.256Z" transform="translate(-174.684 -81.411)" fill="#ebb376"/>
        <path id="Path_4267" data-name="Path 4267" d="M183.342,89.13l1.474,2.646a.317.317,0,0,1-.041.369l-1.143,1.319a.324.324,0,0,1-.523-.044l-1.319-2.174Z" transform="translate(-172.528 -80.89)" fill="#263238"/>
        <path id="Path_4268" data-name="Path 4268" d="M183.628,89.9l1.3,2.451-1.238,1.456-1.33-2.16Z" transform="translate(-172.888 -81.376)" fill="#0f3b5e" opacity="0.4"/>
        <path id="Path_4269" data-name="Path 4269" d="M193.7,110.347a1.094,1.094,0,0,0,.026.158l-.088-.118a9.95,9.95,0,0,1-1.209.678c.1-.737.2-1.423.3-1.986s.162-.94.221-1.238.092-.472.1-.5h0a1.438,1.438,0,0,1,.369.125,4.909,4.909,0,0,1,1.662,1.81A10.134,10.134,0,0,1,193.7,110.347Z" transform="translate(-179.247 -92.389)" fill="#0f3b5e"/>
        <path id="Path_4270" data-name="Path 4270" d="M171.613,110.484l-.088-.118a9.948,9.948,0,0,1-1.209.678,10.872,10.872,0,0,1-12.936-2.783c.188-.044.369-.085.571-.122h.059l.114-.022c.5-.1,1.006-.181,1.515-.254h0l.667-.092c.295-.041.59-.074.881-.107h.07c.674-.077,1.349-.14,2-.188l.641-.041h0l.818-.052.8-.037h.321l.925-.026c.969-.022,1.821-.022,2.5,0h.45l.649.018h.56c.044.162.088.332.129.5h0c.188.737.369,1.6.523,2.5A.518.518,0,0,0,171.613,110.484Z" transform="translate(-157.115 -92.367)" fill="#0f3b5e"/>
        <path id="Path_4271" data-name="Path 4271" d="M171.159,110.506l-.088-.118a9.948,9.948,0,0,1-1.209.678,10.872,10.872,0,0,1-12.936-2.783l-.265.055.262-.059.575-.118h.059l.114-.022c.5-.1,1.006-.181,1.515-.254h0l.667-.092c.295-.041.59-.074.881-.107h.07c.674-.077,1.349-.14,2-.188l.638-.044.826-.048.8-.037h.321l.921-.029H169.9l.568.022h0c.044.162.088.332.129.5h0c.188.737.369,1.6.523,2.5A.4.4,0,0,0,171.159,110.506Z" transform="translate(-156.66 -92.389)" opacity="0.2"/>
        <path id="Path_4272" data-name="Path 4272" d="M167.65,97.393c1.194,1.106,4.128.686,4.128.686s1.843-.5,1.445-1.072a2.038,2.038,0,0,1-1.813-1.327,3.152,3.152,0,0,1-.111-1.231,6.232,6.232,0,0,1,.088-.686l-3.608-2.683C168.24,92.849,168.822,96.107,167.65,97.393Z" transform="translate(-163.6 -82.122)" fill="#ebb376"/>
        <path id="Path_4273" data-name="Path 4273" d="M170.23,95.7a3.074,3.074,0,0,0,2.808,2.9,3.151,3.151,0,0,1-.111-1.231Z" transform="translate(-165.229 -85.039)" opacity="0.2"/>
        <path id="Path_4274" data-name="Path 4274" d="M181.927,76.523s.516,3.383-1.283,4.684-1.795-5-1.795-5Z" transform="translate(-170.672 -72.732)" fill="#263238"/>
        <path id="Path_4275" data-name="Path 4275" d="M168.348,82.885a3.07,3.07,0,0,0,3.527,1.19,3.409,3.409,0,0,0,1.953-1.592,2.947,2.947,0,0,0,.162-.324c.885-2.068,1.165-5.687-1.021-7.039a3.331,3.331,0,0,0-5.086,2.517C167.615,80.043,167.342,81.455,168.348,82.885Z" transform="translate(-163.59 -71.719)" fill="#ebb376"/>
        <path id="Path_4276" data-name="Path 4276" d="M177.85,85.762c-.044.192.044.369.173.391s.258-.122.291-.313-.044-.369-.17-.394S177.9,85.563,177.85,85.762Z" transform="translate(-170.033 -78.561)" fill="#263238"/>
        <path id="Path_4277" data-name="Path 4277" d="M183.84,86.79c-.044.192.044.369.173.391s.258-.118.291-.313-.044-.369-.17-.391S183.892,86.605,183.84,86.79Z" transform="translate(-173.816 -79.213)" fill="#263238"/>
        <path id="Path_4278" data-name="Path 4278" d="M181.371,87.27a7.057,7.057,0,0,0,.645,1.843,1.135,1.135,0,0,1-.966,0Z" transform="translate(-172.061 -79.716)" fill="#d58745"/>
        <path id="Path_4279" data-name="Path 4279" d="M176.223,83.147a.118.118,0,0,0,.118-.026.943.943,0,0,1,.8-.258.116.116,0,0,0,.055-.225h0a1.154,1.154,0,0,0-1.014.313.114.114,0,0,0,0,.162h0a.21.21,0,0,0,.041.033Z" transform="translate(-168.966 -76.78)" fill="#263238"/>
        <path id="Path_4280" data-name="Path 4280" d="M185.565,84.1a.107.107,0,0,0,.066,0,.114.114,0,0,0,.081-.144h0a1.15,1.15,0,0,0-.715-.785.114.114,0,0,0-.144.077h0a.122.122,0,0,0,.077.144h0a.94.94,0,0,1,.56.63A.114.114,0,0,0,185.565,84.1Z" transform="translate(-174.461 -77.124)" fill="#263238"/>
        <path id="Path_4281" data-name="Path 4281" d="M168.843,75.494v1.08a.8.8,0,0,0-.52.947,2.935,2.935,0,0,1-1.2,2.735s.026-.391-.313-.339-.494,2.082.026,3.125a6.362,6.362,0,0,1-1.146-3.177c-.265-2.023-.129-3.663.369-4.375Z" transform="translate(-162.279 -72.277)" fill="#263238"/>
        <path id="Path_4282" data-name="Path 4282" d="M164.449,85.265a2.311,2.311,0,0,0,1.106,1.378c.715.369,1.249-.214,1.2-.984-.052-.682-.475-1.725-1.268-1.784a1.032,1.032,0,0,0-1.039,1.389Z" transform="translate(-161.537 -77.571)" fill="#ebb376"/>
        <path id="Path_4283" data-name="Path 4283" d="M167.685,71.069a1.108,1.108,0,0,0,1.382.188s.77.641,1.4.184a1.419,1.419,0,0,0,.91.652.49.49,0,0,0,.557-.512s.892.512,1.224.273-.181-1.2-.181-1.2.42-.225.147-1-1.507-.593-1.507-.593a1.953,1.953,0,0,0-.822-1.474.844.844,0,0,0-1.386.181s-.84-1.139-1.883-.988-.921.866-.921.866-1.2-.737-1.74,0,0,1.106,0,1.106-1.2.4-1.139,1.22.674.7.674.7-.343.391.435.737,1.511-.479,1.511-.479a.531.531,0,0,0,.258.781C167.165,72.016,167.685,71.069,167.685,71.069Z" transform="translate(-161.121 -66.773)" fill="#263238"/>
        <path id="Path_4284" data-name="Path 4284" d="M177.974,92.194a6.957,6.957,0,0,0-.682.737l-.151-.088c-.693-.4-.881-.814-.881-1.154a1.028,1.028,0,0,1,.129-.468.989.989,0,0,1,.144-.221,3.774,3.774,0,0,0,1.194,1.065C177.882,92.143,177.974,92.194,177.974,92.194Z" transform="translate(-169.036 -82.071)" fill="#263238"/>
        <path id="Path_4285" data-name="Path 4285" d="M177.963,92.054l-.206.21c-.652-.369-1.058-.737-1.146-1.047a.988.988,0,0,1,.144-.217A3.774,3.774,0,0,0,177.963,92.054Z" transform="translate(-169.257 -82.071)" fill="#fff"/>
        <path id="Path_4286" data-name="Path 4286" d="M177.141,94.024c-.693-.4-.881-.814-.881-1.154a2.65,2.65,0,0,1,.682.6.98.98,0,0,1,.2.557Z" transform="translate(-169.036 -83.252)" fill="#de5753"/>
        <path id="Path_4287" data-name="Path 4287" d="M166.154,104.855s-4.227-2.875-5.572-3.033-1.106,1.515-1.106,1.515-1.039,0-.641,1.279,6.144,1.983,8.263,1.349,3.383-1.821,3.033-2.948-1.334-.158-1.334-.158-.571-1.058-1.393-.811S166.154,104.855,166.154,104.855Z" transform="translate(-157.976 -88.898)" fill="#0f3b5e"/>
        <path id="Path_4288" data-name="Path 4288" d="M194.6,103.658a10.618,10.618,0,0,1-1.294,1.408,10.136,10.136,0,0,1-1.4,1.076,1.1,1.1,0,0,0,.026.158l-.088-.118c-.28-.369-.6-.833-.91-1.308a7.893,7.893,0,0,1-.888-1.776h0a1.876,1.876,0,0,1-.088-.457l-.369-.486.114-.133.929-1.106.2-.236.4.52s.512-.184,2.152,1.227a12,12,0,0,1,1.213,1.231Z" transform="translate(-177.454 -88.183)" fill="#0f3b5e"/>
      </g>
    </g>
    <g id="freepik--character-1--inject-115" transform="translate(24.538 157.235)">
      <circle id="Ellipse_280" data-name="Ellipse 280" cx="10.636" cy="10.636" r="10.636" fill="#0f3b5e"/>
      <path id="Path_4289" data-name="Path 4289" d="M88.093,261.077a10.187,10.187,0,0,1-2.318,6.475,10.32,10.32,0,0,1-1.474,1.474c-.17.14-.346.276-.531.405a9.985,9.985,0,0,1-1.592.94,10.231,10.231,0,0,1-9.545-.416,9.581,9.581,0,0,1-1.106-.756h0l-.055-.048a9.113,9.113,0,0,1-1.161-1.069,10.264,10.264,0,1,1,17.768-7Z" transform="translate(-67.192 -250.441)" fill="#fff" opacity="0.7"/>
      <path id="Path_4290" data-name="Path 4290" d="M91.1,273.285c-.17.14-.346.276-.531.405a9.985,9.985,0,0,1-1.592.94,10.231,10.231,0,0,1-9.545-.416,9.581,9.581,0,0,1-1.106-.756h0l-.055-.048v-.07h0c.088-.332.173-.678.251-1.039.111-.486.21-.991.3-1.518a22.459,22.459,0,0,0,.31-4.341c-.181-5.436.807-7.43,3.029-8.5.1-.048.2-.1.313-.144a2.978,2.978,0,0,1,1.566-.2h0a7.1,7.1,0,0,1,3.553,2.031,12.53,12.53,0,0,1,.87,1.474,24.508,24.508,0,0,1,2.554,9.376h0a27.64,27.64,0,0,1,.085,2.8Z" transform="translate(-73.962 -254.71)" fill="#263238"/>
      <path id="Path_4291" data-name="Path 4291" d="M89,291.3h0a3.074,3.074,0,0,0-1.072-.56s-2.167-.21-4.054-.2l-.623.029c-.966.052-1.931.151-2.886.295-.28.041-.56.085-.837.136a27.494,27.494,0,0,0-2.731.593c-.431.114-.859.24-1.286.369a3.513,3.513,0,0,0-.442,1.187,9.113,9.113,0,0,0,1.161,1.069l.055.048h0a9.581,9.581,0,0,0,1.106.756,10.231,10.231,0,0,0,9.545.416,9.987,9.987,0,0,0,1.592-.94c.184-.129.369-.265.531-.405a10.316,10.316,0,0,0,1.474-1.474A14.1,14.1,0,0,0,89,291.3Z" transform="translate(-71.941 -275.53)" fill="#0f3b5e"/>
      <path id="Path_4292" data-name="Path 4292" d="M89,291.3h0a3.074,3.074,0,0,0-1.072-.56s-2.167-.21-4.054-.2l-.623.029c-.966.052-1.931.151-2.886.295-.28.041-.56.085-.837.136a27.494,27.494,0,0,0-2.731.593c-.431.114-.859.24-1.286.369a3.513,3.513,0,0,0-.442,1.187,9.113,9.113,0,0,0,1.161,1.069l.055.048h0a9.581,9.581,0,0,0,1.106.756,10.231,10.231,0,0,0,9.545.416,9.987,9.987,0,0,0,1.592-.94c.184-.129.369-.265.531-.405a10.316,10.316,0,0,0,1.474-1.474A14.1,14.1,0,0,0,89,291.3Z" transform="translate(-71.941 -275.53)" fill="#fff" opacity="0.2"/>
      <path id="Path_4293" data-name="Path 4293" d="M91.493,287.39c-2.388-.306-3.1-1.327-3.1-1.327a3.03,3.03,0,0,0,.549-3.122,5,5,0,0,0-.295-.781l2.871.538a8.513,8.513,0,0,0-.111,1.209,3.874,3.874,0,0,0,.081.888c.2.859.686.87.686.87C92.669,286.608,91.493,287.39,91.493,287.39Z" transform="translate(-80.352 -270.234)" fill="#eec1bb"/>
      <path id="Path_4294" data-name="Path 4294" d="M91.84,283.926a3.874,3.874,0,0,0,.081.888,3.986,3.986,0,0,1-2.547-1.843,5,5,0,0,0-.295-.781l2.871.538a8.512,8.512,0,0,0-.111,1.2Z" transform="translate(-80.788 -270.253)" opacity="0.2"/>
      <path id="Path_4295" data-name="Path 4295" d="M89.513,262c2.5.092,3.251,1.474,3.339,4.054.111,3.225-.689,5.484-3.789,4.681C84.858,269.64,85.352,261.853,89.513,262Z" transform="translate(-78.932 -257.5)" fill="#eec1bb"/>
      <path id="Path_4296" data-name="Path 4296" d="M100,272.46a5.407,5.407,0,0,0,.689,1.061.685.685,0,0,1-.671.258Z" transform="translate(-87.683 -264.109)" fill="#d4827d"/>
      <path id="Path_4297" data-name="Path 4297" d="M92.791,267.3a.118.118,0,0,1-.085-.029.133.133,0,0,1,0-.184,1.415,1.415,0,0,1,1.22-.369.129.129,0,0,1,.107.147.125.125,0,0,1-.151.107,1.187,1.187,0,0,0-.977.295A.133.133,0,0,1,92.791,267.3Z" transform="translate(-83.054 -260.467)" fill="#263238"/>
      <path id="Path_4298" data-name="Path 4298" d="M101.662,267.093a.143.143,0,0,1-.077-.022,1.047,1.047,0,0,0-.873-.225.136.136,0,0,1-.162-.085.133.133,0,0,1,.085-.166,1.294,1.294,0,0,1,1.106.262.13.13,0,0,1-.077.236Z" transform="translate(-88.026 -260.385)" fill="#263238"/>
      <path id="Path_4299" data-name="Path 4299" d="M96.1,277.767a6.419,6.419,0,0,0-.324.859l-.162-.022c-.737-.1-1.025-.387-1.143-.674a.958.958,0,0,1-.055-.442.976.976,0,0,1,.055-.247,3.491,3.491,0,0,0,1.382.49Z" transform="translate(-84.156 -267.127)" fill="#263238"/>
      <path id="Path_4300" data-name="Path 4300" d="M95.817,277.73l-.1.251a2.174,2.174,0,0,1-1.334-.494.976.976,0,0,1,.055-.247A3.49,3.49,0,0,0,95.817,277.73Z" transform="translate(-84.134 -267.127)" fill="#fff"/>
      <path id="Path_4301" data-name="Path 4301" d="M95.673,279.784c-.737-.1-1.025-.387-1.143-.674a2.33,2.33,0,0,1,.781.273A.84.84,0,0,1,95.673,279.784Z" transform="translate(-84.229 -268.308)" fill="#de5753"/>
      <path id="Path_4302" data-name="Path 4302" d="M85.523,264.415a7.494,7.494,0,0,0,1.128-3.6s5.027-1.843,5.082,3.2c0,0,.652-4.445-3.641-4.7s-4.5,6.026-2.366,7.99A3.127,3.127,0,0,1,85.523,264.415Z" transform="translate(-77.832 -255.798)" fill="#263238"/>
      <path id="Path_4303" data-name="Path 4303" d="M85.425,272.862a1.106,1.106,0,0,0-1.143-1.043c-.778.055-1.205,1.633.7,2.086C85.263,273.967,85.428,273.706,85.425,272.862Z" transform="translate(-77.342 -263.703)" fill="#eec1bb"/>
      <path id="Path_4304" data-name="Path 4304" d="M85.675,257.27c1.353-.369,4.953-.424,5.8,3.317l-.5.251a8.028,8.028,0,0,0-2.7-.822,6.476,6.476,0,0,0-.7-1,5.819,5.819,0,0,1,0,.951,8.04,8.04,0,0,0-3.4,1.3c-1.651,1.5-1.754,2.455-1.754,2.455S81.279,258.494,85.675,257.27Z" transform="translate(-76.499 -254.414)" fill="#263238"/>
      <path id="Path_4305" data-name="Path 4305" d="M97.159,260.635a.092.092,0,0,1-.085-.063A4.356,4.356,0,0,0,94.9,257.89a5.9,5.9,0,0,0-4.054-.162.09.09,0,0,1-.059-.17,6.21,6.21,0,0,1,4.205.17,4.526,4.526,0,0,1,2.263,2.79.088.088,0,0,1-.055.111Z" transform="translate(-81.827 -254.51)" fill="#263238"/>
      <path id="Path_4306" data-name="Path 4306" d="M94,271.454s.586-.5.862.17A1.718,1.718,0,0,0,94,271.454Z" transform="translate(-83.894 -263.361)" fill="#263238"/>
      <path id="Path_4307" data-name="Path 4307" d="M101.53,272.126s.324-.678.737-.2A1.7,1.7,0,0,0,101.53,272.126Z" transform="translate(-88.649 -263.664)" fill="#263238"/>
    </g>
    <g id="freepik--speech-bubble--inject-115" transform="translate(153.013 94.411)">
      <rect id="Rectangle_671" data-name="Rectangle 671" width="7.776" height="7.776" rx="3.69" transform="translate(0.372 0) rotate(2.74)" fill="#0f3b5e"/>
      <path id="Path_4308" data-name="Path 4308" d="M259.78,143.981c-.5-.914-1.57-.623-2.145.044-.509-.719-1.541-1.106-2.13-.247-1,1.456.84,2.948,1.714,3.527l.251.17.265-.144C258.659,146.83,260.631,145.529,259.78,143.981Z" transform="translate(-253.498 -141.34)" fill="#fff" opacity="0.6"/>
      <path id="Path_4309" data-name="Path 4309" d="M257.53,157.719a6.028,6.028,0,0,1-3.45,2.9s1.3-.667,1.316-3.1Z" transform="translate(-252.781 -150.327)" fill="#0f3b5e"/>
    </g>
    <g id="freepik--Character--inject-115" transform="translate(125.359 145.595)">
      <path id="Path_4310" data-name="Path 4310" d="M279.51,208.249a23.614,23.614,0,0,0,3.866-5.009,2.835,2.835,0,0,1-.022-1.769c.346-.6,2.285-2.337,2.8-1.968s1.272,1.821.962,2.429a10.048,10.048,0,0,1-2.211,1.843s-2.37,4.754-3.837,5.823S279.51,208.249,279.51,208.249Z" transform="translate(-245.463 -184.676)" fill="#ebb376"/>
      <path id="Path_4311" data-name="Path 4311" d="M258.887,199.45c1.7.221,3.649,8.477,5.009,9.262s4.894-3.789,4.894-3.789l1.618,1.843s-4.677,6.523-6.52,5.926-5.318-7-5.318-7Z" transform="translate(-232.24 -184.674)" fill="#263238"/>
      <path id="Path_4312" data-name="Path 4312" d="M258.887,199.45c1.7.221,3.649,8.477,5.009,9.262s4.894-3.789,4.894-3.789l1.618,1.843s-4.677,6.523-6.52,5.926-5.318-7-5.318-7Z" transform="translate(-232.24 -184.674)" fill="#fff" opacity="0.05"/>
      <path id="Path_4313" data-name="Path 4313" d="M280.645,395.347l-2.237.4-.918-3.055-.84-2.8,2.584-.9.748,3.365Z" transform="translate(-243.657 -304.36)" fill="#ebb376"/>
      <path id="Path_4314" data-name="Path 4314" d="M280.049,406.15c-.037-.251,3.029-.59,3.029-.59a9.8,9.8,0,0,0,4.087,1.673c1.876.107,1.065,1.371-.958,1.728l-5.012.885C279.758,410.1,280.44,408.718,280.049,406.15Z" transform="translate(-245.803 -314.823)" fill="#263238"/>
      <path id="Path_4315" data-name="Path 4315" d="M290.371,404.609a4.847,4.847,0,0,1-1.106-.177h-.026a.063.063,0,0,1-.022-.022h0v-.018h0a.14.14,0,0,1,0-.037,1.744,1.744,0,0,1,.516-1.028.479.479,0,0,1,.394-.059c.151.041.232.114.247.217a.838.838,0,0,1-.394.534,1.275,1.275,0,0,1,.693-.044.317.317,0,0,1,.2.177.3.3,0,0,1,0,.335A.641.641,0,0,1,290.371,404.609Zm-.829-.276c.479.111,1.065.177,1.187.037,0,0,.044-.052,0-.166a.192.192,0,0,0-.107-.092A2.035,2.035,0,0,0,289.542,404.333Zm.446-.936a.3.3,0,0,0-.17.052,1.382,1.382,0,0,0-.405.737c.42-.251.811-.564.8-.7,0-.044-.081-.07-.125-.085A.425.425,0,0,0,289.988,403.4Z" transform="translate(-251.592 -313.364)" fill="#0f3b5e"/>
      <path id="Path_4316" data-name="Path 4316" d="M280.005,392.45l-2.491.328-.844-2.83,2.58-.918Z" transform="translate(-243.67 -304.385)" opacity="0.2"/>
      <path id="Path_4317" data-name="Path 4317" d="M241.825,397.7h-2.274l-.372-3.166-.339-2.9,2.7-.439.151,3.446Z" transform="translate(-219.782 -305.749)" fill="#ebb376"/>
      <path id="Path_4318" data-name="Path 4318" d="M238.873,408.231c0-.251,3.085-.055,3.085-.055a9.724,9.724,0,0,0,3.737,2.362c1.843.435.811,1.537-1.246,1.537h-5.09C237.9,412.075,238.814,410.829,238.873,408.231Z" transform="translate(-219.591 -316.429)" fill="#263238"/>
      <path id="Path_4319" data-name="Path 4319" d="M249.975,407.946a3.844,3.844,0,0,1-1.275-.391l-.029-.018h0v-.018a.092.092,0,0,1,0-.063,1.753,1.753,0,0,1,.689-.921.472.472,0,0,1,.4,0c.14.066.206.151.2.258,0,.162-.229.324-.479.457a1.235,1.235,0,0,1,.689.077.317.317,0,0,1,.166.206.3.3,0,0,1-.074.328.442.442,0,0,1-.287.085Zm-1-.442c.453.192,1.017.369,1.165.243,0,0,.048-.041,0-.162a.166.166,0,0,0-.088-.107A1.987,1.987,0,0,0,248.98,407.5Zm.549-.848a.368.368,0,0,0-.122.026,1.368,1.368,0,0,0-.531.663c.457-.173.9-.413.907-.553,0-.041-.07-.081-.111-.1a.339.339,0,0,0-.147-.033Z" transform="translate(-225.986 -315.41)" fill="#0f3b5e"/>
      <path id="Path_4320" data-name="Path 4320" d="M241.693,394.731l-2.514-.111-.339-2.937,2.7-.453Z" transform="translate(-219.782 -305.774)" opacity="0.2"/>
      <path id="Path_4321" data-name="Path 4321" d="M247.366,300.711l-3.685.649c-3.715-9.251-6.354-16.975-8.219-23.384-1.006-3.457-1.787-6.534-2.392-9.262l.181,10.072v22.879h-3.744c-9.092-43.352-2.65-53.263-2.65-53.263l10.876-1.843a49.27,49.27,0,0,1,.91,6.059l.49,3.593,4.253,21.954Z" transform="translate(-210.816 -214.422)" fill="#0f3b5e"/>
      <path id="Path_4322" data-name="Path 4322" d="M274.75,391.425l4.563-1.515-.063,1.942-3.774,1.2Z" transform="translate(-242.457 -304.941)" fill="#0f3b5e"/>
      <path id="Path_4323" data-name="Path 4323" d="M236.51,393.4l4.762-.7-.4,1.9-3.925.527Z" transform="translate(-218.311 -306.702)" fill="#0f3b5e"/>
      <path id="Path_4324" data-name="Path 4324" d="M252.821,180.031a.081.081,0,0,1-.048,0c-1.386-.837-2.624-3.914-2.676-4.054a.088.088,0,0,1,.052-.118.1.1,0,0,1,.122.052c0,.029,1.264,3.151,2.58,3.955a.1.1,0,0,1,.033.129A.1.1,0,0,1,252.821,180.031Z" transform="translate(-226.886 -169.774)" fill="#263238"/>
      <path id="Path_4325" data-name="Path 4325" d="M223.4,161.53s.542-1.843,4.154-2.152a4.463,4.463,0,0,1,4.555,5.9s.759,3.6,2.211,4.655c0,0-6.951,3.14-10.459,3.158-.781,0-2.447-3.873-2.665-6.667C221,163.723,221.811,161.615,223.4,161.53Z" transform="translate(-208.624 -159.359)" fill="#263238"/>
      <path id="Path_4326" data-name="Path 4326" d="M230.65,245.19v1.622l11.093-.851v-1.92Z" transform="translate(-214.61 -212.831)" fill="#263238"/>
      <path id="Path_4327" data-name="Path 4327" d="M230.65,245.19v1.622l11.093-.851v-1.92Z" transform="translate(-214.61 -212.831)" fill="#fff" opacity="0.3"/>
      <rect id="Rectangle_672" data-name="Rectangle 672" width="2.436" height="1.846" transform="translate(22.147 31.818) rotate(-5.12)" fill="#fff"/>
      <rect id="Rectangle_673" data-name="Rectangle 673" width="0.549" height="2.805" transform="translate(19.22 31.698) rotate(-2.93)" fill="#0f3b5e"/>
      <rect id="Rectangle_674" data-name="Rectangle 674" width="0.549" height="2.805" transform="translate(25.99 30.958) rotate(-2.92)" fill="#0f3b5e"/>
      <path id="Path_4328" data-name="Path 4328" d="M234.546,215.692l-11.093.958c-.107-1.677-.214-3.114-.468-4.725-.162-1.032-.387-2.138-.711-3.424-.251-1.006-.564-2.127-.962-3.409-.018-.07-.041-.14-.063-.21-.229-.737-1.843-.173-2-1.054-.641-3.921,3.59-4.209,5.16-4.467a35.306,35.306,0,0,1,4.983-.523c2.156-.018,4.636.225,4.636.225s.369.085.575,2.373A100.379,100.379,0,0,1,234.546,215.692Z" transform="translate(-207.369 -184.288)" fill="#263238"/>
      <path id="Path_4329" data-name="Path 4329" d="M238.273,195.223c-2.731-.369-3.553-1.518-3.553-1.518,1.732-1.636.291-4.474.291-4.474l3.291.615a10.282,10.282,0,0,0-.129,1.386c-.022,2,.881,2.016.881,2.016C239.614,194.331,238.273,195.223,238.273,195.223Z" transform="translate(-217.18 -178.221)" fill="#ebb376"/>
      <path id="Path_4330" data-name="Path 4330" d="M238.8,189.845a10.283,10.283,0,0,0-.129,1.386,3.683,3.683,0,0,1-3.162-2Z" transform="translate(-217.679 -178.221)" opacity="0.2"/>
      <path id="Path_4331" data-name="Path 4331" d="M232.955,165.639c2.794-.634,4.032.66,4.887,3.494,1.072,3.538.851,6.265-2.816,6.3C230.047,175.461,228.311,166.689,232.955,165.639Z" transform="translate(-214.354 -163.225)" fill="#ebb376"/>
      <path id="Path_4332" data-name="Path 4332" d="M245.86,176.07a6.155,6.155,0,0,0,1.076.977.789.789,0,0,1-.656.472Z" transform="translate(-224.215 -169.911)" fill="#d58745"/>
      <path id="Path_4333" data-name="Path 4333" d="M240.131,175.9c.059.228-.018.446-.17.483s-.324-.114-.369-.343,0-.446.17-.483S240.075,175.675,240.131,175.9Z" transform="translate(-220.247 -169.586)" fill="#263238"/>
      <path id="Path_4334" data-name="Path 4334" d="M239.89,175.1l.446-.317S240.2,175.259,239.89,175.1Z" transform="translate(-220.445 -169.096)" fill="#263238"/>
      <path id="Path_4335" data-name="Path 4335" d="M247.8,173.843c.059.229-.018.442-.17.483s-.324-.118-.369-.346.018-.442.17-.479S247.749,173.615,247.8,173.843Z" transform="translate(-225.094 -168.285)" fill="#263238"/>
      <path id="Path_4336" data-name="Path 4336" d="M247.56,173.031l.446-.321S247.866,173.185,247.56,173.031Z" transform="translate(-225.288 -167.789)" fill="#263238"/>
      <path id="Path_4337" data-name="Path 4337" d="M236.564,171.91a.125.125,0,0,1-.059,0,.133.133,0,0,1-.059-.177,1.611,1.611,0,0,1,1.224-.774.136.136,0,0,1,.144.122.133.133,0,0,1-.118.147,1.36,1.36,0,0,0-1.01.623.136.136,0,0,1-.122.059Z" transform="translate(-218.262 -166.684)" fill="#263238"/>
      <path id="Path_4338" data-name="Path 4338" d="M245.035,169.375a.129.129,0,0,1-.111-.063.136.136,0,0,1,.037-.184,1.474,1.474,0,0,1,1.286-.033.133.133,0,1,1-.1.247,1.205,1.205,0,0,0-1.043,0A.133.133,0,0,1,245.035,169.375Z" transform="translate(-223.61 -165.423)" fill="#263238"/>
      <path id="Path_4339" data-name="Path 4339" d="M243.179,183.077a7.328,7.328,0,0,0-.107,1.043l-.184.026a1.5,1.5,0,0,1-1.474-.409,1.047,1.047,0,0,1-.192-.475,1,1,0,0,1,0-.291,3.929,3.929,0,0,0,1.673.136C243.068,183.1,243.179,183.077,243.179,183.077Z" transform="translate(-221.279 -174.268)" fill="#263238"/>
      <path id="Path_4340" data-name="Path 4340" d="M242.914,183.106l-.041.306a2.484,2.484,0,0,1-1.622-.151,1,1,0,0,1,0-.291A3.928,3.928,0,0,0,242.914,183.106Z" transform="translate(-221.298 -174.268)" fill="#fff"/>
      <path id="Path_4341" data-name="Path 4341" d="M243.234,185.433a1.5,1.5,0,0,1-1.474-.409,2.628,2.628,0,0,1,.947.07.991.991,0,0,1,.527.339Z" transform="translate(-221.626 -175.555)" fill="#de5753"/>
      <path id="Path_4342" data-name="Path 4342" d="M229.236,169.36a8.547,8.547,0,0,0,.188-4.316s5.027-3.52,6.571,2.042c0,0-.59-5.115-5.418-4.139s-3.217,8-.262,9.531C230.316,172.471,228.754,171,229.236,169.36Z" transform="translate(-212.625 -161.547)" fill="#263238"/>
      <path id="Path_4343" data-name="Path 4343" d="M230.218,180.379a1.257,1.257,0,0,0-1.574-.818c-.844.287-.855,2.16,1.393,2.1C230.361,181.65,230.468,181.311,230.218,180.379Z" transform="translate(-213.013 -172.079)" fill="#ebb376"/>
      <path id="Path_4344" data-name="Path 4344" d="M232.356,167.146s2.9-1.069,4.526-.265c0,0-1.754-1.577-4.732-.092Z" transform="translate(-215.558 -163.648)" fill="#263238"/>
      <path id="Path_4345" data-name="Path 4345" d="M227.84,200.03s3.21,2.606,6.2,2.561,4.054-3.4,4.054-3.4A17.1,17.1,0,0,0,227.84,200.03Z" transform="translate(-212.836 -184.245)" fill="#ebb376"/>
      <path id="Path_4346" data-name="Path 4346" d="M249.9,299.381c-1.006-3.457-1.787-6.534-2.392-9.262a85.7,85.7,0,0,1,.7-9.66S249.81,292.921,249.9,299.381Z" transform="translate(-225.257 -235.828)" opacity="0.2"/>
      <path id="Path_4347" data-name="Path 4347" d="M193.151,200.667a23.264,23.264,0,0,1-2.654-5.749,2.924,2.924,0,0,0,.416-1.717c-.192-.66-1.706-2.786-2.292-2.543s-1.647,1.474-1.474,2.152a10,10,0,0,0,1.754,2.3s1.249,5.16,2.44,6.531S193.151,200.667,193.151,200.667Z" transform="translate(-187.129 -179.11)" fill="#ebb376"/>
      <path id="Path_4348" data-name="Path 4348" d="M202.342,206.134c1.106-.155,3.376,2.027,3.033,3.914s-3.5,7.194-5.945,6.781c-3.446-.586-7.231-9.652-7.231-9.652l1.891-1.647s4.463,7.74,5.34,7.577S202.342,206.134,202.342,206.134Z" transform="translate(-190.331 -188.514)" fill="#263238"/>
      <path id="Path_4349" data-name="Path 4349" d="M202.342,206.134c1.106-.155,3.376,2.027,3.033,3.914s-3.5,7.194-5.945,6.781c-3.446-.586-7.231-9.652-7.231-9.652l1.891-1.647s4.463,7.74,5.34,7.577S202.342,206.134,202.342,206.134Z" transform="translate(-190.331 -188.514)" fill="#fff" opacity="0.05"/>
      <path id="Path_4350" data-name="Path 4350" d="M190.1,205.615l2.76-1.655.439.715-2.606,2.3Z" transform="translate(-189.005 -187.522)" fill="#263238"/>
      <path id="Path_4351" data-name="Path 4351" d="M284.63,213.415l2.233,2.768.391-.866-2.009-2.337Z" transform="translate(-248.696 -193.218)" fill="#263238"/>
      <path id="Path_4352" data-name="Path 4352" d="M287.538,196.419l3.531-4.3a.335.335,0,0,1,.486-.029l1.574,1.474a.332.332,0,0,1,.029.453l-3.586,4.4a.332.332,0,0,1-.5.022l-1.522-1.585A.335.335,0,0,1,287.538,196.419Z" transform="translate(-250.487 -179.966)" fill="#0f3b5e"/>
      <path id="Path_4353" data-name="Path 4353" d="M287.538,196.419l3.531-4.3a.335.335,0,0,1,.486-.029l1.574,1.474a.332.332,0,0,1,.029.453l-3.586,4.4a.332.332,0,0,1-.5.022l-1.522-1.585A.335.335,0,0,1,287.538,196.419Z" transform="translate(-250.487 -179.966)" opacity="0.3"/>
      <path id="Path_4354" data-name="Path 4354" d="M287.149,195.959l3.534-4.3a.335.335,0,0,1,.486-.029l1.574,1.474a.335.335,0,0,1,.029.453l-3.586,4.423a.335.335,0,0,1-.5,0l-1.518-1.585A.332.332,0,0,1,287.149,195.959Z" transform="translate(-250.242 -179.676)" fill="#0f3b5e"/>
      <path id="Path_4355" data-name="Path 4355" d="M291.469,192.33l1.747,1.692-3.416,4.2-1.7-1.784Z" transform="translate(-250.887 -180.178)" fill="#fff" opacity="0.6"/>
    </g>
  </g>
</svg>
